<?xml version="1.0" encoding="UTF-8"?>
<svg id="Layer_1" xmlns="http://www.w3.org/2000/svg" version="1.1" viewBox="0 0 24.3 25.7">
  <!-- Generator: Adobe Illustrator 29.1.0, SVG Export Plug-In . SVG Version: 2.1.0 Build 142)  -->
  <defs>
    <style>
      .st0 {
        fill: #231f20;
      }

      .st1 {
        font-family: Roboto-Medium, Roboto;
        font-weight: 500;
      }

      .st1, .st2 {
        fill: #3d60ac;
        font-size: 29.1px;
      }

      .st1, .st2, .st3 {
        isolation: isolate;
      }

      .st2 {
        font-family: Roboto-Light, Roboto;
        font-weight: 300;
      }

      .st3, .st4 {
        display: none;
      }
    </style>
  </defs>
  <g id="abstract-logo">
    <circle class="st0" cx="11.9" cy="4.1" r="1.7"/>
    <circle class="st0" cx="19.4" cy="8.9" r="1.7"/>
    <circle class="st0" cx="4.7" cy="8.8" r="1.7"/>
    <path class="st0" d="M5.1,8.2l6.3-4.1c.2-.1.5,0,.6.1h0c.1.2,0,.5-.1.6l-6.3,4.1c-.2.1-.5,0-.6-.1h0c-.1-.2,0-.5.1-.6Z"/>
    <path class="st0" d="M18.5,9.2l-6.3-4.1c-.2-.1-.3-.4-.1-.6h0c.1-.2.4-.3.6-.1l6.3,4.1c.2.1.3.4.1.6h0c-.1.2-.4.3-.6.1Z"/>
    <rect class="st0" x="13.3" y="8.5" width="1.1" height="5.5" rx=".5" ry=".5" transform="translate(-2.8 17.6) rotate(-60)"/>
    <path class="st0" d="M5.1,12.5l5.4,2.9c.3.2.4.6.3.9h0c-.2.3-.6.4-.9.3l-5.4-2.9c-.3-.2-.4-.6-.3-.9h0c.2-.3.6-.4.9-.3Z"/>
    <path class="st0" d="M5.6,15.6l5.1,2.7c.3.2.4.6.3.9h0c-.2.3-.6.4-.9.3l-5.1-2.7c-.3-.2-.4-.6-.3-.9h0c.2-.3.6-.4.9-.3Z"/>
    <path class="st0" d="M6.8,19.1l4.2,2.2c.3.2.4.6.3.9h0c-.2.3-.6.4-.9.3l-4.2-2.2c-.3-.2-.4-.6-.3-.9h0c.2-.3.6-.4.9-.3Z"/>
    <path class="st0" d="M19.3,13.5l-5.4,2.9c-.3.2-.7,0-.9-.3h0c-.2-.3,0-.7.3-.9l5.4-2.9c.3-.2.7,0,.9.3h0c.2.3,0,.7-.3.9Z"/>
    <path class="st0" d="M18.6,16.8l-5.1,2.7c-.3.2-.7,0-.9-.3h0c-.2-.3,0-.7.3-.9l5.1-2.7c.3-.2.7,0,.9.3h0c.2.3,0,.7-.3.9Z"/>
    <path class="st0" d="M17.6,20.3l-4.2,2.2c-.3.2-.7,0-.9-.3h0c-.2-.3,0-.7.3-.9l4.2-2.2c.3-.2.7,0,.9.3h0c.2.3,0,.7-.3.9Z"/>
    <path class="st0" d="M7.7,11.8l3.9-2.1c.3-.1.6,0,.7.2h0c.1.3,0,.6-.2.7l-3.9,2.1c-.3.1-.6,0-.7-.2h0c-.1-.3,0-.6.2-.7Z"/>
    <path class="st0" d="M11.3,10v-4.8c0-.3.2-.6.6-.6h0c.3,0,.6.2.6.6v4.8c0,.3-.2.6-.6.6h0c-.3,0-.6-.2-.6-.6Z"/>
  </g>
  <g id="name" class="st4">
    <g class="st3">
      <text class="st1" transform="translate(-16.7 22.2)"><tspan x="0" y="0" xml:space="preserve">P   rtal</tspan></text>
      <text class="st2" transform="translate(66.7 22.2)"><tspan x="0" y="0">Nest</tspan></text>
    </g>
  </g>
</svg>