<?xml version="1.0" encoding="UTF-8"?>
<svg id="Layer_1" xmlns="http://www.w3.org/2000/svg" version="1.1" viewBox="0 0 20.9 24.7">
  <!-- Generator: Adobe Illustrator 29.1.0, SVG Export Plug-In . SVG Version: 2.1.0 Build 142)  -->
  <defs>
    <style>
      .st0, .st1, .st2 {
        fill: #fff;
      }

      .st1 {
        font-family: Roboto-Medium, Roboto;
        font-weight: 500;
      }

      .st1, .st3, .st2 {
        isolation: isolate;
      }

      .st1, .st2 {
        font-size: 29.1px;
      }

      .st3, .st4 {
        display: none;
      }

      .st2 {
        font-family: Roboto-Light, Roboto;
        font-weight: 300;
      }
    </style>
  </defs>
  <g id="abstract-logo">
    <circle class="st0" cx="10.5" cy="3.6" r="1.7"/>
    <circle class="st0" cx="18" cy="8.4" r="1.7"/>
    <circle class="st0" cx="3.3" cy="8.3" r="1.7"/>
    <path class="st0" d="M3.8,7.7l6.3-4.1c.2-.1.5,0,.6.1h0c.1.2,0,.5-.1.6l-6.3,4.1c-.2.1-.5,0-.6-.1h0c-.1-.2,0-.5.1-.6Z"/>
    <path class="st0" d="M17.1,8.7l-6.3-4.1c-.2-.1-.3-.4-.1-.6h0c.1-.2.4-.3.6-.1l6.3,4.1c.2.1.3.4.1.6h0c-.1.2-.4.3-.6.1Z"/>
    <rect class="st0" x="11.9" y="8" width="1.1" height="5.5" rx=".5" ry=".5" transform="translate(-3.1 16.1) rotate(-60)"/>
    <path class="st0" d="M3.7,12l5.4,2.9c.3.2.4.6.3.9h0c-.2.3-.6.4-.9.3l-5.4-2.9c-.3-.2-.4-.6-.3-.9h0c.2-.3.6-.4.9-.3Z"/>
    <path class="st0" d="M4.3,15.1l5.1,2.7c.3.2.4.6.3.9h0c-.2.3-.6.4-.9.3l-5.1-2.7c-.3-.2-.4-.6-.3-.9h0c.2-.3.6-.4.9-.3Z"/>
    <path class="st0" d="M5.4,18.6l4.2,2.2c.3.2.4.6.3.9h0c-.2.3-.6.4-.9.3l-4.2-2.2c-.3-.2-.4-.6-.3-.9h0c.2-.3.6-.4.9-.3Z"/>
    <path class="st0" d="M18,13l-5.4,2.9c-.3.2-.7,0-.9-.3h0c-.2-.3,0-.7.3-.9l5.4-2.9c.3-.2.7,0,.9.3h0c.2.3,0,.7-.3.9Z"/>
    <path class="st0" d="M17.2,16.3l-5.1,2.7c-.3.2-.7,0-.9-.3h0c-.2-.3,0-.7.3-.9l5.1-2.7c.3-.2.7,0,.9.3h0c.2.3,0,.7-.3.9Z"/>
    <path class="st0" d="M16.2,19.8l-4.2,2.2c-.3.2-.7,0-.9-.3h0c-.2-.3,0-.7.3-.9l4.2-2.2c.3-.2.7,0,.9.3h0c.2.3,0,.7-.3.9Z"/>
    <path class="st0" d="M6.3,11.3l3.9-2.1c.3-.1.6,0,.7.2h0c.1.3,0,.6-.2.7l-3.9,2.1c-.3.1-.6,0-.7-.2h0c-.1-.3,0-.6.2-.7Z"/>
    <path class="st0" d="M10,9.5v-4.8c0-.3.2-.6.6-.6h0c.3,0,.6.2.6.6v4.8c0,.3-.2.6-.6.6h0c-.3,0-.6-.2-.6-.6Z"/>
  </g>
  <g id="name" class="st4">
    <g class="st3">
      <text class="st1" transform="translate(-18.1 21.7)"><tspan x="0" y="0" xml:space="preserve">P   rtal</tspan></text>
      <text class="st2" transform="translate(65.4 21.7)"><tspan x="0" y="0">Nest</tspan></text>
    </g>
  </g>
</svg>