<?xml version="1.0" encoding="UTF-8"?>
<svg id="Layer_1" xmlns="http://www.w3.org/2000/svg" version="1.1" viewBox="0 0 141.9 27.9">
  <!-- Generator: Adobe Illustrator 29.1.0, SVG Export Plug-In . SVG Version: 2.1.0 Build 142)  -->
  <defs>
    <style>
      .st0 {
        fill: #231f20;
      }

      .st1 {
        font-family: Roboto-Medium, Roboto;
        font-weight: 500;
      }

      .st1, .st2, .st3 {
        isolation: isolate;
      }

      .st1, .st3 {
        fill: #3d60ac;
        font-size: 29.1px;
      }

      .st3 {
        font-family: Roboto-Light, Roboto;
        font-weight: 300;
      }
    </style>
  </defs>
  <g id="abstract-logo">
    <circle class="st0" cx="27.5" cy="5.9" r="1.7"/>
    <circle class="st0" cx="35" cy="10.7" r="1.7"/>
    <circle class="st0" cx="20.3" cy="10.6" r="1.7"/>
    <path class="st0" d="M20.8,10l6.3-4.1c.2-.1.5,0,.6.1h0c.1.2,0,.5-.1.6l-6.3,4.1c-.2.1-.5,0-.6-.1h0c-.1-.2,0-.5.1-.6Z"/>
    <path class="st0" d="M34.2,11l-6.3-4.1c-.2-.1-.3-.4-.1-.6h0c.1-.2.4-.3.6-.1l6.3,4.1c.2.1.3.4.1.6h0c-.1.2-.4.3-.6.1Z"/>
    <rect class="st0" x="28.9" y="10.3" width="1.1" height="5.5" rx=".5" ry=".5" transform="translate(3.5 32) rotate(-60)"/>
    <path class="st0" d="M20.7,14.3l5.4,2.9c.3.2.4.6.3.9h0c-.2.3-.6.4-.9.3l-5.4-2.9c-.3-.2-.4-.6-.3-.9h0c.2-.3.6-.4.9-.3Z"/>
    <path class="st0" d="M21.3,17.4l5.1,2.7c.3.2.4.6.3.9h0c-.2.3-.6.4-.9.3l-5.1-2.7c-.3-.2-.4-.6-.3-.9h0c.2-.3.6-.4.9-.3Z"/>
    <path class="st0" d="M22.4,20.9l4.2,2.2c.3.2.4.6.3.9h0c-.2.3-.6.4-.9.3l-4.2-2.2c-.3-.2-.4-.6-.3-.9h0c.2-.3.6-.4.9-.3Z"/>
    <path class="st0" d="M35,15.3l-5.4,2.9c-.3.2-.7,0-.9-.3h0c-.2-.3,0-.7.3-.9l5.4-2.9c.3-.2.7,0,.9.3h0c.2.3,0,.7-.3.9Z"/>
    <path class="st0" d="M34.2,18.6l-5.1,2.7c-.3.2-.7,0-.9-.3h0c-.2-.3,0-.7.3-.9l5.1-2.7c.3-.2.7,0,.9.3h0c.2.3,0,.7-.3.9Z"/>
    <path class="st0" d="M33.2,22.1l-4.2,2.2c-.3.2-.7,0-.9-.3h0c-.2-.3,0-.7.3-.9l4.2-2.2c.3-.2.7,0,.9.3h0c.2.3,0,.7-.3.9Z"/>
    <path class="st0" d="M23.3,13.6l3.9-2.1c.3-.1.6,0,.7.2h0c.1.3,0,.6-.2.7l-3.9,2.1c-.3.1-.6,0-.7-.2h0c-.1-.3,0-.6.2-.7Z"/>
    <path class="st0" d="M27,11.8v-4.8c0-.3.2-.6.6-.6h0c.3,0,.6.2.6.6v4.8c0,.3-.2.6-.6.6h0c-.3,0-.6-.2-.6-.6Z"/>
  </g>
  <g id="name">
    <g class="st2">
      <text class="st1" transform="translate(-1.1 24)"><tspan x="0" y="0" xml:space="preserve">P   rtal</tspan></text>
      <text class="st3" transform="translate(82.4 24)"><tspan x="0" y="0">Nest</tspan></text>
    </g>
  </g>
</svg>