<?xml version="1.0" encoding="UTF-8"?>
<svg id="Layer_1" xmlns="http://www.w3.org/2000/svg" version="1.1" viewBox="0 0 146.1 29">
  <!-- Generator: Adobe Illustrator 29.1.0, SVG Export Plug-In . SVG Version: 2.1.0 Build 142)  -->
  <defs>
    <style>
      .st0, .st1, .st2 {
        isolation: isolate;
      }

      .st3, .st1, .st2 {
        fill: #fff;
      }

      .st1 {
        font-family: Roboto-Medium, Roboto;
        font-weight: 500;
      }

      .st1, .st2 {
        font-size: 29.1px;
      }

      .st2 {
        font-family: Roboto-Light, Roboto;
        font-weight: 300;
      }
    </style>
  </defs>
  <g id="abstract-logo">
    <circle class="st3" cx="29" cy="7.5" r="1.7"/>
    <circle class="st3" cx="36.5" cy="12.2" r="1.7"/>
    <circle class="st3" cx="21.7" cy="12.1" r="1.7"/>
    <path class="st3" d="M22.2,11.5l6.3-4.1c.2-.1.5,0,.6.1h0c.1.2,0,.5-.1.6l-6.3,4.1c-.2.1-.5,0-.6-.1h0c-.1-.2,0-.5.1-.6Z"/>
    <path class="st3" d="M35.6,12.5l-6.3-4.1c-.2-.1-.3-.4-.1-.6h0c.1-.2.4-.3.6-.1l6.3,4.1c.2.1.3.4.1.6h0c-.1.2-.4.3-.6.1Z"/>
    <rect class="st3" x="30.4" y="11.8" width="1.1" height="5.5" rx=".5" ry=".5" transform="translate(2.9 34) rotate(-60)"/>
    <path class="st3" d="M22.2,15.8l5.4,2.9c.3.2.4.6.3.9h0c-.2.3-.6.4-.9.3l-5.4-2.9c-.3-.2-.4-.6-.3-.9h0c.2-.3.6-.4.9-.3Z"/>
    <path class="st3" d="M22.7,18.9l5.1,2.7c.3.2.4.6.3.9h0c-.2.3-.6.4-.9.3l-5.1-2.7c-.3-.2-.4-.6-.3-.9h0c.2-.3.6-.4.9-.3Z"/>
    <path class="st3" d="M23.9,22.4l4.2,2.2c.3.2.4.6.3.9h0c-.2.3-.6.4-.9.3l-4.2-2.2c-.3-.2-.4-.6-.3-.9h0c.2-.3.6-.4.9-.3Z"/>
    <path class="st3" d="M36.4,16.8l-5.4,2.9c-.3.2-.7,0-.9-.3h0c-.2-.3,0-.7.3-.9l5.4-2.9c.3-.2.7,0,.9.3h0c.2.3,0,.7-.3.9Z"/>
    <path class="st3" d="M35.6,20.1l-5.1,2.7c-.3.2-.7,0-.9-.3h0c-.2-.3,0-.7.3-.9l5.1-2.7c.3-.2.7,0,.9.3h0c.2.3,0,.7-.3.9Z"/>
    <path class="st3" d="M34.7,23.6l-4.2,2.2c-.3.2-.7,0-.9-.3h0c-.2-.3,0-.7.3-.9l4.2-2.2c.3-.2.7,0,.9.3h0c.2.3,0,.7-.3.9Z"/>
    <path class="st3" d="M24.8,15.1l3.9-2.1c.3-.1.6,0,.7.2h0c.1.3,0,.6-.2.7l-3.9,2.1c-.3.1-.6,0-.7-.2h0c-.1-.3,0-.6.2-.7Z"/>
    <path class="st3" d="M28.4,13.3v-4.8c0-.3.2-.6.6-.6h0c.3,0,.6.2.6.6v4.8c0,.3-.2.6-.6.6h0c-.3,0-.6-.2-.6-.6Z"/>
  </g>
  <g id="name">
    <g class="st0">
      <text class="st1" transform="translate(.4 25.5)"><tspan x="0" y="0" xml:space="preserve">P   rtal</tspan></text>
      <text class="st2" transform="translate(83.8 25.5)"><tspan x="0" y="0">Nest</tspan></text>
    </g>
  </g>
</svg>