<?xml version="1.0" encoding="UTF-8"?>
<svg id="Layer_1" xmlns="http://www.w3.org/2000/svg" version="1.1" viewBox="0 0 146 33.6">
  <!-- Generator: Adobe Illustrator 29.1.0, SVG Export Plug-In . SVG Version: 2.1.0 Build 142)  -->
  <defs>
    <style>
      .st0, .st1, .st2 {
        isolation: isolate;
      }

      .st1 {
        font-family: Roboto-Medium, Roboto;
        font-weight: 500;
      }

      .st1, .st2 {
        font-size: 29.1px;
      }

      .st2 {
        font-family: Roboto-Light, Roboto;
        font-weight: 300;
      }
    </style>
  </defs>
  <g id="abstract-logo">
    <circle cx="28.6" cy="9.2" r="1.7"/>
    <circle cx="36.1" cy="13.9" r="1.7"/>
    <circle cx="21.3" cy="13.8" r="1.7"/>
    <path d="M21.8,13.2l6.3-4.1c.2-.1.5,0,.6.1h0c.1.2,0,.5-.1.6l-6.3,4.1c-.2.1-.5,0-.6-.1h0c-.1-.2,0-.5.1-.6Z"/>
    <path d="M35.2,14.2l-6.3-4.1c-.2-.1-.3-.4-.1-.6h0c.1-.2.4-.3.6-.1l6.3,4.1c.2.1.3.4.1.6h0c-.1.2-.4.3-.6.1Z"/>
    <rect x="30" y="13.5" width="1.1" height="5.5" rx=".5" ry=".5" transform="translate(1.2 34.5) rotate(-60)"/>
    <path d="M21.8,17.5l5.4,2.9c.3.2.4.6.3.9h0c-.2.3-.6.4-.9.3l-5.4-2.9c-.3-.2-.4-.6-.3-.9h0c.2-.3.6-.4.9-.3Z"/>
    <path d="M22.3,20.6l5.1,2.7c.3.2.4.6.3.9h0c-.2.3-.6.4-.9.3l-5.1-2.7c-.3-.2-.4-.6-.3-.9h0c.2-.3.6-.4.9-.3Z"/>
    <path d="M23.5,24.1l4.2,2.2c.3.2.4.6.3.9h0c-.2.3-.6.4-.9.3l-4.2-2.2c-.3-.2-.4-.6-.3-.9h0c.2-.3.6-.4.9-.3Z"/>
    <path d="M36,18.5l-5.4,2.9c-.3.2-.7,0-.9-.3h0c-.2-.3,0-.7.3-.9l5.4-2.9c.3-.2.7,0,.9.3h0c.2.3,0,.7-.3.9Z"/>
    <path d="M35.2,21.8l-5.1,2.7c-.3.2-.7,0-.9-.3h0c-.2-.3,0-.7.3-.9l5.1-2.7c.3-.2.7,0,.9.3h0c.2.3,0,.7-.3.9Z"/>
    <path d="M34.2,25.3l-4.2,2.2c-.3.2-.7,0-.9-.3h0c-.2-.3,0-.7.3-.9l4.2-2.2c.3-.2.7,0,.9.3h0c.2.3,0,.7-.3.9Z"/>
    <path d="M24.4,16.8l3.9-2.1c.3-.1.6,0,.7.2h0c.1.3,0,.6-.2.7l-3.9,2.1c-.3.1-.6,0-.7-.2h0c-.1-.3,0-.6.2-.7Z"/>
    <path d="M28,15v-4.8c0-.3.2-.6.6-.6h0c.3,0,.6.2.6.6v4.8c0,.3-.2.6-.6.6h0c-.3,0-.6-.2-.6-.6Z"/>
  </g>
  <g id="name">
    <g class="st0">
      <text class="st1" transform="translate(0 27.2)"><tspan x="0" y="0" xml:space="preserve">P   rtal</tspan></text>
      <text class="st2" transform="translate(83.4 27.2)"><tspan x="0" y="0">Nest</tspan></text>
    </g>
  </g>
</svg>