<?xml version="1.0" encoding="UTF-8"?>
<svg xmlns="http://www.w3.org/2000/svg" xmlns:xlink="http://www.w3.org/1999/xlink" version="1.1" viewBox="0 0 417.72 355.47">
  <!-- Generator: Adobe Illustrator 29.1.0, SVG Export Plug-In . SVG Version: 2.1.0 Build 142)  -->
  <defs>
    <style>
      .st0 {
        fill: #006ab3;
      }

      .st1, .st2, .st3 {
        mix-blend-mode: multiply;
      }

      .st1, .st4 {
        fill: #ededed;
      }

      .st5 {
        fill: #d48256;
      }

      .st6 {
        fill: #49270c;
      }

      .st2 {
        fill: #ebdfda;
      }

      .st7 {
        fill: #004b74;
      }

      .st8 {
        fill: #193762;
      }

      .st9 {
        fill: #92b7b7;
      }

      .st10 {
        fill: #d6d6d6;
      }

      .st11 {
        fill: #e3bbb6;
      }

      .st12 {
        fill: #fcc000;
      }

      .st13 {
        fill: #f6f6f6;
      }

      .st14 {
        fill: #00648b;
      }

      .st15 {
        fill: #1a1b25;
      }

      .st16 {
        fill: #72210d;
      }

      .st17 {
        fill: #bbc8cf;
      }

      .st18 {
        fill: url(#linear-gradient);
      }

      .st19 {
        fill: #262c2f;
      }

      .st20 {
        fill: #2f282f;
      }

      .st21 {
        fill: #095d7e;
      }

      .st22 {
        isolation: isolate;
      }

      .st23 {
        fill: #c4c4c4;
      }

      .st24 {
        fill: #002739;
      }

      .st25 {
        fill: #c6c6c6;
      }

      .st26 {
        fill: #dadada;
      }

      .st27 {
        mix-blend-mode: soft-light;
      }

      .st27, .st28 {
        fill: #fff;
      }

      .st29 {
        fill: #b78b98;
      }

      .st30 {
        fill: #f9bb8d;
      }

      .st31 {
        fill: #cacaca;
      }

      .st32 {
        fill: #8d5433;
      }

      .st33 {
        fill: #a52116;
      }

      .st34 {
        fill: #df996d;
      }

      .st35 {
        fill: #55aea3;
      }

      .st36 {
        fill: #ae9dcc;
      }

      .st37 {
        fill: #7d4e24;
      }

      .st38 {
        fill: #259dab;
      }

      .st39 {
        fill: #017ca8;
      }

      .st40 {
        fill: #d6e2ea;
      }

      .st41 {
        fill: #1e2425;
      }

      .st42 {
        fill: #f59d16;
      }

      .st43 {
        fill: #bcc7cd;
      }

      .st44 {
        fill: #1f95c5;
      }
    </style>
    <linearGradient id="linear-gradient" x1="200.41" y1="316.16" x2="200.41" y2="41.82" gradientUnits="userSpaceOnUse">
      <stop offset="0" stop-color="#45babd"/>
      <stop offset=".22" stop-color="#5dc2c7"/>
      <stop offset=".67" stop-color="#9bd7e2"/>
      <stop offset=".95" stop-color="#c5e6f4"/>
    </linearGradient>
  </defs>
  <g class="st22">
    <g id="Capa_1">
      <g>
        <path class="st18" d="M337.27,316.16s50.21-24.89,50.21-98.63c0-112.77-50.18-175.72-140.69-175.72S13.34,87.04,13.34,199.81c0,74.41,47.11,116.35,47.11,116.35h276.82Z"/>
        <path class="st17" d="M343.64,315.57c0,1.46-65.33,2.64-145.93,2.64s-145.93-1.18-145.93-2.64,65.33-2.64,145.93-2.64,145.93,1.18,145.93,2.64Z"/>
        <g>
          <path class="st8" d="M396.08,130.91c0,60.36-48.93,109.3-109.3,109.3s-109.3-48.94-109.3-109.3,48.93-109.3,109.3-109.3,109.3,48.93,109.3,109.3Z"/>
          <g>
            <path class="st38" d="M349.83,189.72c-.5-.8-1.42.25-1.64-1.2-.14-.93,0-2.05.5-3.16.9-2.01,1.81-3.59,2.28-5.8.55-2.58,1.15-4.09,3.34-5.77,1.66-1.27,2.9-2.43,4.25-4.27.6-.81,1.3-2.38,2.1-2.55.16,1.01,0,2.75-.06,3.77-.04.7-.75,4.24-1.34,2.61-.42,1.8-.4,3.42-1.2,5.24-.66,1.49-1.56,3.03-2.45,4.45-.77,1.24-4.57,8.6-5.8,6.81.01-.05.02-.07.03-.12Z"/>
            <path class="st38" d="M361.23,50.89c-.14-.06-5.67.47-5.76.41-.99-.57-2.34-2.12-3.13-2.2.54,1.19,1.76,2.37,2.78,3.66.67.85,1.13,1.52,1.43,2.35.27.75.26,1.57-.96.17-.91-1.04-.65-1.51-.99-2.25-.38-.83-1.2-1.82-1.92-2.7-1.25-1.52-2.57-3.32-4.01-4.16-1.35-.79-1.05,1.32.04,2.82.56.78,1.85,1.84.63,1.35-.8-.33-1.63-1.52-2.44-2.23-1.66-1.45-3.02-1-4.39-1.4-1.74-.51-3.26-1.44-4.47-.66-.53.34-.9,1.08-1.91-.02-.79-.86-1.09-2.21-2.09-1.84-.75.28.04,1.33-.13,2.11-.17.75-1.02.52-1.53.92-.62.47-.54.84-1.65.43-.75-.28-2.07-.76-1.77-1.8.24-.83,4.31,1.38,3.01-1.21-.66-1.31-3.56-2.9-4.51-3.36-.88-.43-1.74-.66-2.63-1.07-.91-.42-1.26-.79-2.05-1.43-1.53-1.25-3.31-1.24-4.74-1.21-1.35.02-3.04.09-4.34.47-1.39.41-2.26,2.24-3.26,3.38-1.03,1.18-2.28,2.04-3.47,3.21-.78.76-1.32.97-2.31,1.45-.76.37-1.41.72-1.33,1.88.06.9.79,2.2,1.23,3.02.76,1.43,1.1,1.33,2.21.89,1.81-.71,3.09-.38,4.31,2.12.46.94.13,2.64.94,3.4.59.55,1.72.04,2.12-.5.56-.78.09-1.48.27-2.4.19-.94,1.03-1.78,1.45-2.52.62-1.11.24-1.03-.11-2.31-.24-.87-.14-2.07.27-2.62.47-.66,1.16-.8,1.61-1.48.31-.48,1.29-1.56,2.25-.42.92,1.1-1.65,3.18-1.63,4.4.06,2.72,2.76,2.88,4.21,2.73.73-.08,1.78-.76,2.63-.27,1.09.62,1.03,1.49.16,1.52-.73.02-2.05-.79-2.77-.47-.98.44.14,1.36.13,2.38-.88-.02-1.63-1.14-2.45-1.02-1.05.17-.55,1.62-.42,2.65.43,3.42-2.19.77-4.08,1.04-1.11.16-1.28.92-2.48.65-.79-.18-1.72-.07-2.5-.48-1.42-.75-1.03-1.45-.93-2.54.1-1.11-.37-1.84-.63-2.97-1.31-.38-2.15,2.03-1.92,3.27.4,2.1,1.16,2.69-1.22,2.61-2.12-.07-2.67,1.88-4.27,3.16-1.4,1.12-2.86,2.61-4.53,3.46-.8.42-5.69-.72-3.78,2.13,1.23,1.82,3.39,2.15,3.33,5.08-.07,3.04-2.88,1.48-4.85,1.34-.97-.07-2.32-.07-3.1.55-1.08.85-.72,1.77-.89,3.05-.29,2.16-1.44,4.08-.79,6.32.82,2.83,3.52-.53,4.27,2.84.26-.23.4-.35.66-.59.47.76,2.43.14,3.18-.1,2.16-.71,2.72-2.83,3.98-4.61.69-.97,1.62-1.15,2.37-2.01.96-1.1.3-2.02.77-3.16.51-1.23,1.59-.28,2.54-.17,1.53.18,1.31-.58,2.25-1.28,1.21-.9,3.9,1.03,5.08,2.17,1.44,1.4,3.5,2.6,4.72,4.25.58.79.82,2.08.04,2.76-.62.54-2.45-.79-2.64.41-.11.66,1.57,1.94,2,2.05.97.24,1.39-.54,2.07-1.24.77-.8.92-1.21.74-2.5-.24-1.65-.38-1.51,1.23-1.49-.2-1.05-1.43-1.25-2.13-1.67-.92-.56-1.06-1.07-1.75-1.83-1.11-1.23-3.68-2.59-4.01-4.44-.59-3.24,3.34.33,4.12,1.06,1.54,1.45,3.8,2.74,4.87,4.74.62,1.15.52,2.39,1.1,3.52.45.87,1.25,1.46,1.62,2.37.42,1.02.39,2.64,1.69,2.85,1.56.26.69-1.42.44-2.36,1.42.38.76-.64.45-1.36-.45-1.04-1.15-1.74-.47-2.75,1.01-1.5,3-.09,4.37.18,3.78.75-.36-2.63,0-4.35.29-1.34,1.74-3.9,2.99-3.65.25.05,1.17.48,1.39.7.37.37.21.83.57,1.21,1.01,1.04,1.59.07,2.54-.01,1.55-.13,3.65,1.93,5.09,3.03,1.6,1.22,4.63,2.75,2.77,4.33-1.45,1.23-3.44-.54-5.49-.71-.96-.08-1.8.13-2.81-.11-1.02-.25-2.01-.71-3.01-.52-.82.15-1.33.91-2.12,1.12-1.14.31-2.02-.55-1.66,1.06.51,2.31,1.3,4.31,3.58,4.54,1.96.2,3.84-.06,5.77.07,1.5.11,1.68.37,1.67,1.86,0,1.05,0,2.13.1,3.27.22,2.22.44,4.71-1.97,4.7-1.99,0-4.24-.63-6.36-.79-1.04-.08-2.07-.09-3.06-.48-.97-.38-1.92-.99-2.95-1.21-.69-.15-2.64-.51-3.17-.1-.52.4-.06,1-.42,1.45-.37.46-.6.24-1.13.37-2.49.63-2.89-1.13-4.87-2.5-.99-.69-2.11-1.02-3.06-1.78-.93-.74-.93-1.62-1.64-2.58-.38-.52-1.01-.73-1.26-1.35-.2-.5.12-1.25-.08-1.77-.55-1.44-1.54-.75-2.75-1-2.04-.42-3.95-.48-6.1-.43-2.1.04-3.6,1.06-5.46,2.07-.87.48-1.73,1.24-2.75,1.19-.94-.05-1.54-.91-2.54-.93-2.19-.05-3.17,2.37-4.5,4.03-.57.71-1.61,1.29-2.07,2.07-.64,1.1-.12,2.34-.51,3.53-.71,2.16-3.04,2.41-4.13,4.14-.22.31-.33.46-.55.77-.88,1.26-2.11,1.34-2.91,2.63-.92,1.49-1.17,3.55-1.9,5.13-.28.62-1.15,1.77-1.25,2.33-.17.93.43,1.55.64,2.34.49,1.83.52,3.62-.14,5.37-.49,1.31-.35,2.68-.83,3.91-.56,1.42-1.07,1.85-.87,3.65.34,3.04,3.31,4.56,5.05,6.57,1.83,2.12,4.37,2.97,5.29,5.87.72,2.27.36,3.12,2.64,2.97,1.3-.09,2.59-.63,3.88-.64,1.18-.01,2.13.48,3.31.47,1.66,0,3.28-.56,4.8-1.31,2.22-1.09,4.71-2.54,6.56-.16,1.01,1.3,1.44,2.25,2.94,2.59,1.32.3,1.83.15,2.57,1.52,1.44,2.67-.6,5.27-.06,8.05.45,2.29,2.71,4.21,3.7,6.12.65,1.25.22,2.35.38,3.75.16,1.36.91,2.47,1.21,3.73.65,2.8-1.21,4.94-1.73,7.52-.32,1.56-.85,3.26-.94,4.81-.07,1.28.3,2.49.42,3.73.14,1.29.21,2.64.74,3.75.47.99,1.43,1.66,1.59,2.85.3,2.22-.47,4.77,0,6.85.24,1.04.89,1.41,1.32,2.18.41.74.55,1.75.82,2.58.54,1.68-.66,4.48.99,4.97.15.55.22.82.37,1.36.96-.14,1.65-.57,2.51-1.12,1.12-.73,1.45-.45,2.6-.72,1.83-.43,3.62-2.32,5.19-3.73,1.81-1.63,3.3-3,4.74-5.1.59-.86,1.12-2.12,1.29-3.04.17-.94-.24-1.8.47-2.76,0-.08,0-.16.05-.25,1.48-1.08,4.06-2,4.22-4.59.07-1.11-.77-1.52-.47-2.79.26-1.1,1.28-2.3,1.97-3.21.92-1.2,1.78-2.51,2.9-3.46.99-.84,1.98-1.2,2.75-2.34,1.57-2.33,1.21-4.57,1.83-7.02.44-1.75.21-1.61-.34-3.08-.33-.87-.5-1.92-.11-2.89.23-.56.67-.46.76-1.28.06-.58-.45-.7-.49-1.19-.09-1.18.61-2.07,1.03-3.11.47-1.16.66-2.03,1.39-3.07.76-1.06,1.66-1.9,2.53-2.82,1.84-1.93,3.26-4.19,5.17-5.9,3.09-2.76,4.47-8.15,5.17-12.2.19-1.12.84-2.2-.15-2.69-.81-.4-1.98.12-2.65.52-1.65.97-3.45,2.31-5.41,2.18-2.13-.14-3.15-2.22-3.58-4.47-.85-.56-1-1.5-1.61-2.34-.59-.81-1.5-1.21-2.02-2.1-.52-.88-.57-2.08-1.1-2.94-.77-1.23-1.29-1.28-1.56-2.81-.21-1.21-.11-2.25-.73-3.36-.66-1.15-1.5-1.15-2.28-1.95-1.96-2.02-1.8-4.36-2.64-6.82-.41-1.2-2.13-5.38-1.07-6.19.91,1.18,1.26,1.79,2.27,1.46,1.1-.36,1.09-.97,1.98.69,1,1.87,1.41,3.2,2.8,4.9,1.4,1.71,2.66,3.68,3.5,5.71.51,1.24.57,2.36.9,3.6.34,1.24.89,1.42,1.73,2.32,1.32,1.41,2.94,3.29,3.21,5.27.27,2.03-.67,5.21,2.04,5.16,1.77-.03,3.81-1.63,5.48-2.2,2.36-.8,3.15-2.52,4.79-4.42,1.46-1.69,2.97-2.81,3.31-5.14.08-.6-.03-.88.22-1.43.27-.56.96-.6.78-1.5-.15-.73-1.23-1.55-1.76-2.12-.64-.69-1.18-1.49-1.71-2.08-1-1.12-1.07-.57-1.56.38-.73,1.45-3.62,2.01-4.91.21-.83-1.17-.4-2.09-1.83-3.04-1.01-.66-1.87-.69-2.32-2.13-.58-1.82-1.15-5.93,1.54-3.86.8.61,1.07,1.56,1.63,2.35.66.93,1.63,2.09,2.45,2.83,1.62,1.47,3.46.69,4.93,2.32.82.9.86,1.11,1.94,1.52.78.3,1.7.73,2.48.98,2.06.65,3.65-.8,5.66-.4,1.53.3,2.95,1.57,3.92,2.85.67.88.47,1.74,1.22,2.59.54.61,1.74,1.58,2.41,1.48.1-.72.29-1.52,1.06-1.22,1.29.5,1.23,2.47,1.4,3.46.37,2.2,2.14,4.68,2.98,6.75.85,2.12.92,4.49,1.34,6.69.26,1.4,1.95,2.18,2.47,1.81,1.82-42.67-21.26-72.16-34.77-84.35Z"/>
            <path class="st38" d="M289,62.48c.96-.88,2.74-1.31,3.04-2.89.08-.43.03-.83.19-1.25.16-.44.49-.35.51-.92.04-1.06-.96-1.22-1.6-.89-.57.3-.88,1.02-1.36,1.43-.7.6-1.64.34-2.32.92-.43.36-.73,1.4-.42,2.12.33.77,1.41.56,1.4,1.37v.1c.22,0,.33,0,.56,0Z"/>
            <path class="st38" d="M282.46,44.12c.91-.86,4.14-.73,4.45-2.22.08-.41-.15-1.08,0-1.47.16-.41-.88-.63-.85-1.17.06-1-.86-1.12-1.47-.79-.54.3-.85.98-1.3,1.38-.67.58-1.52.37-2.16.93-.4.36-2.6,1.51-2.35,2.17.27.71,1.28.47,1.24,1.23,0,.03,1.91-.09,1.91-.06.21,0,.31,0,.52-.01Z"/>
            <path class="st38" d="M292.68,63.58c.08-1.25.56-1.2,1.06-2.1.36-.65.03-1.64.13-2.37.09-.69.56-1.31.43-2.06-.14-.78-.8-1-1.16-1.65-.74-1.36-.32-3.72.62-4.7.41-.43,1.36-1.01,1.92-.51.71.63.22,1.39-.28,1.68.43.86,1.54.28,1.76,1.3.11.54-.27.6-.34,1-.09.5-.05.34.05.92.1.54.26.39.16.96-.09.45-.54.37-.43,1.07.11.64.89,1.15,1.25,1.5.34.32.47.08.65.67.14.47-.24.77-.14,1.14.16.6,1.53,1.29.8,2-.34.33-1.7-.12-2.18.06-.67.25-1.05.99-1.74,1.2-.52.17-1.71-.09-1.98.35-.23-.17-.34-.26-.57-.43Z"/>
            <path class="st38" d="M255.05,51.31c.53,2.21,3.02.12,4.05-1.19.59-.76.96-1.55,1.66-2.24.69-.69,1.53-1.2,2.22-1.88.73-.71,1.1-1.45,1.67-2.22.61-.83,1.29-1.02,2.09-1.3,1.54-.54,3.06-.54,4.38-1.82,1.58-1.52,2.85-2.06,4.79-2.3,1.01-.12,3.93-.28,4.46-1.65.26-.69-.43-1.3.45-1.76.67-.35,1.41.54,1.75-.35.33-.88-.83-1.15-.55-1.97.29-.82,1.42-.44,2.01-.52,1.38-.2,1.44-1.37,1.51-2.72.72-.35.95-.76,1.04-1.6.12-1.06.15-1.45,1.03-2.02,1.13-.72,2.43-.87,3.45-1.56.29-.2,1.2-.81,1.02-1.31-.17-.49-1.39-.34-1.79-.34-1.74.01-3.47.85-5.27.77-3.27-.14-6.2-1.48-9.39-1.16-2.01.2-4.14.71-6.12,1.75-1.96,1.02-3.87,1.49-5.84,2.17-.96.33-1.78.79-2.76,1.01-.98.22-1.83.66-2.81,1.23-1.36.79-2.83,2.02-4.14,2.59-.94.41-3.37,1.23-2.04,2.35.7.59,1.92.08,2.98-.03.73-.07,1.43.23,1.95.65.81.66.1.94-.17,2.03-.3,1.25.72.57,1.18.92.79.6-.56.92-1.1,1.19-.17.79-.11,1.18-.7,1.75-.53.52-.96.63-1.46,1.34-.96,1.38-1.36,2.77-1.69,4.31-.26,1.25-.32,7.43,1.5,6.16.25-.12.37-.17.62-.29Z"/>
            <path class="st38" d="M238.89,37.09c.55-.46,1-.05,1.48-.17.55-.13,1.17-.57,1.74-.82,1.04-.44,2.36-.19,3.47-1.01.44-.32,1.2-1.37,1.75-1.83.65-.55,1.3-.87,1.98-1.27.85-.5,1.62-.91,2.5-1.25.8-.3,1.16-.79,1.93-1.36,1.29-.94,2.66-1.22,3.94-1.89,1.31-.69,2.59-1.59,3.88-2.23.6-1.26-2.46-.02-2.95.09-1.58.34-3.12.94-4.73,1.6-2.49,1.03-4.83,1.26-7.23,2.55-.62.33-2.92,1.46-2.24,2.1.3.28,2.74-.9,1.66.7-.59.87-2.53,1.8-3.24,2.22-1.12.68-2.16,1.33-3.29,2.1-.26.19-.38.28-.64.47Z"/>
            <path class="st38" d="M244.89,32.46c-.3-.26-.84-.22-1.17-.41-.35-.21-.96-.02-1.62.44-.42.29-.8.67-1.22.95-.34.22-.66.44-.97.63-.27.16-1.51.54-1.68.91-.17.36.54.73.76.7.43-.06,1.16-.32,1.71-.65.64-.38,1.23-.83,1.87-1.15.3-.15.6-.33.89-.42.25-.08.53-.08.8-.23.13-.07.29-.23.42-.34.09-.16.13-.25.22-.41Z"/>
            <path class="st38" d="M235.46,49.03c-.32-.07-.78-.03-1.17.06-.48.11-.74.44-1.22.88-1.32,1.23-.24,1.3.6,1.03,1.04-.33,1.8-.69,2.34-.02.48.58.85,1.24,1.67,1.46.29.08,1.09.37,1.51,0,.64-.57.11-1.04.19-1.43.09-.46.58-.51.87-.54.53-.05.86-.1,1.38-.81.94-1.29.67-1.81.59-2.85-.04-.46.38-1.1.89-1.17.51-.08.4.75.8.9,1.03.39,3.69-2.31,2.09-2.6-.68-.13-1.64.16-1.81-.64-.14-.67.16-.93.7-1.62,1.12-1.44-1.12-1.84-1.78-1.88-.45-.02-.93.02-1.46.2-.69.23-1.19.22-1.94.74-.42.29-1.19.96-1.31.61-.11-.34.22-.91-.31-.81-.53.1-1.12.88-1.64,1.39-.48.48-.98.87-1.45,1.15-.03-.35.17-.8.54-1.26.42-.51.6-.78.04-.62-.65.18-1.85,1.45-2.48,2.15-.44.48-.92,1.16-.8,1.52.14.38.8.21,1.28.07.97-.28,2-.58,3.08-1.21.38-.22.87-.57,1.19-.58.12,0,.08.15.26.1.2-.05.32-.23.5-.35.92-.64.85.55,1.08,1.04.36.74.23,1.84-.89,2.93-.45.44-.85.77-1.23,1.27-.41.54-.59.66-1.1.82-.1.03-.2.06-.3.09-.29,0-.43-.01-.72-.02Z"/>
            <path class="st38" d="M241.51,39.53c-.28.07-.74.14-.78-.16-.04-.3.28-.76.62-.97.6-.38,1.1-.19,1.58-.25.21-.03.6-.24.77-.18.26.11.1.5-.21.73-.26.19-.59.22-.86.37-.34.18-.75.68-1.05.78-.02-.13-.04-.19-.06-.33Z"/>
            <path class="st38" d="M234.52,41.14c-.61.19-1.34.61-1.89.73-.12.02-.51.05-.61.12-.14.11-.22.33-.34.46-.16.17-.29.26-.45.39-.37.31-1.44,1.32-1.19,1.56.23.21,1.17-.69,1.58-.93.55-.31.78-.27,1.37-.75.42-.34.98-.75,1.3-1.28.09-.12.14-.18.23-.31Z"/>
            <path class="st38" d="M240.35,38.95c.3-.52,1.35-.88,1.8-1.3.27-.26.74-.89.73-1.19-.01-.31-.51-.11-.78,0-.41.17-.84.49-1.26.73-.61.35-1.09.51-1.59.6-.62.11-1.45.39-1.89.24-.28-.09-.51-.14-1.03.52-.48.61-.66.97-1.23,1.49.16.61,1.65-.18,2.44-.49.45-.18,1.02-.48,1.44-.56.41-.07.67.17,1.11.02.11-.02.16-.04.27-.06Z"/>
            <path class="st38" d="M225.99,47.17c.54-.08,1.49-.82,2.18-1.56.37-.38.59-.73.9-1.13.25-.31.72-.8.78-1.1.05-.32-.53.06-.84.26-.51.34-1,.69-1.41.81-.38.11-.48.13-.95.78-.41.56-.56.74-1.06,1.07-.54.36-.58.55-.48.87.09.28.41.35.89.08,0-.04,0-.05-.01-.09Z"/>
            <path class="st38" d="M230.45,41.59c-.18.28.37.18.57.1.26-.11.5-.3.79-.57.34-.31.56-.51.9-.71.29-.18.62-.35.66-.75.05-.54-.86-.04-1.38.39-.26.22-.5.49-.75.72-.3.26-.59.44-.88.74.04.03.05.05.09.08Z"/>
            <path class="st38" d="M225.27,54.39c.19-.5.94-1.02,1.31-1.37.46-.43.58-.72.93-1.2.69-.93,1.35-.95,1.44-.43.07.39.27.44.44.73.11.19.22.82-.18,1.16-.39.33-.63-.1-.85-.14-.27-.05-.55.02-.95.41-.53.51-.86.79-1.4.99-.41.15-1.06.49-.73-.22,0,.02-.01.03-.02.04Z"/>
            <path class="st38" d="M225.65,44.86c.25-.17,1.87-1.21,1.54-1.41-.06-.04-.28.13-.35.12-.16-.02-.04-.07-.03-.24.01-.24-.03-.32-.44-.07-.37.23-.73.66-1.12.97-.42.33-.67.41-.85.37-.36-.08-.84.16-1.63.82-.61.51-1.71,1.11-2.16,1.88-.43.74.39.16.87-.13.73-.45,1.41-.85,2.06-1.14.6-.26,1.52-.62,2.28-1.23-.07.02-.11.04-.18.06Z"/>
            <path class="st38" d="M220.03,52.11c.55-.4,1.41-1.1,1.96-1.7.91-.97.03-.83.57-1.69.25-.4.62-.72.84-1.13.23-.44.14-.61-.24-.39-.58.33-2.25,2.47-2.44,2.06-.08-.16.15-.47-.31-.18-.27.17-.75.63-.98.73-.27.12-.12-.21-.43-.07-.21.1-.62.48-.76.52-.21.05.08-.36.17-.57.18-.4-.06-.27-.41-.07-.31.17-.6.34-.88.47-.24.12-.38.13-.64.27-.61.33-1.46,1.08-2.16,1.6-.91.67-2.04,1.91-2.98,2.68-.25.21-.93.77-1.04,1.07-.03.09.26-.04.35-.09.28-.16.62-.5.97-.8.54-.46.97-.67,1.48-1.06.35-.26,1.12-.93,1.35-.98.19-.05.01.11-.28.45.06,0,.09.07.16.07.06,0,.36-.19.36-.12,0,.25-.73.74-.94.87-.34.22-.57.41-.62.69-.04.24.14.18-.45.73.04.13.4-.13.55-.13.18,0-.05.31.15.27.23-.04.85-.6,1.19-.86.46-.35.85-.59,1.29-.89.87-.6,1.72-1.29,2.42-1.49.37-.11,1.14-.58,1.19-.22.22-.02.33-.02.55-.04Z"/>
            <path class="st38" d="M239.28,68.62c-1.24.57-1.37-.78-.52-1.81.29-.35.99-.79.94-1.33-.08-.79-.89.15-1.2.53-1.11,1.4-1.89,3.16-3.32,4.17-.61.42-1.17.64-1.66,1.3-.47.63-.68,1.16-.12,1.29.35.08,1.08-.03,1.49-.27.49-.29.9-.86,1.46-1.01.4-.11.97.03,1.32.11.43.1.69.5,1.09.61,1.33.36,1.14-1.05,1.44-1.99.15-.47.29-1.17.49-1.63.2-.47.86-1.06.02-.92-.34.06-.63.4-.93.54-.21.16-.31.24-.51.41Z"/>
            <path class="st38" d="M209.94,83.52c-.82.31-1.49.78-2.3.92-.16-.54.15-1.34.71-1.96.71-.79,1.21-.9,1.97-1.13.6-1.18.78-1.9-.21-2.01-.5-.06-1.68-.07-1.74-.66-.05-.46.39-1.17.3-1.62-.08-.38-.49-.41-.8-.5-.71-.2-1.79.73-2.72,1.5-.51.42-1.02.94-1.53,1.29-.5.34-.92.41-1.41.69-.3.17-1.11.56-1.17.96-.08.46.72.18,1.02.04.91-.41,1.83-.95,2.71-1.12.41-.07.74,0,1.15-.06.4-.07.81-.22,1.17-.23.15,0,.27.01.41.02-.02.55-.77.58-1.1.67-.46.13-.84.29-1.3.52-1.17.61-1.33,1.12-2.22,2.22-.84,1.02-1.38,1.65-1.92,2.77-.39.8-.79,2.31.47,1.24.45-.38.96-1.15,1.36-1.6.47-.54.91-1.12,1.33-1.71.71-1.01,1.52-1.96,2.51-2.56.41-.25.88-.5.76.06-.09.42-.71.96-1.03,1.36-.61.75-.28.48-.13.92.15.4-.1.83-.5,1.33-.52.62-1.36,1.26-1.05,1.83.25.45,1.07.33,1.66.06.65-.29,1.37-.8,2-1.3.61-.49,1.03-1.07,1.56-1.58.02-.14.02-.21.04-.35Z"/>
            <path class="st38" d="M178.76,114.14c.2-.54.44-1.08.69-1.62.41-.87.82-2.12,1.35-2.95.71-1.13,3.3-3.09,4.5-3.63,1.66-.76,2.56.76,4.24-.76,1.01-.91,1.2-1.09,2.43-1.54.95-.35,1.8-.82,2.75-.82,2.36-.01,1.16,2.6,1.05,4.65-.16,2.99,2.44,2.7,3.35-.39.37-1.27.07-2.28.38-3.54.39-1.54,1.19-2.19,2.26-3.38,1.32-1.47,2.28-2.73,3.73-4.03,1.25-1.11,2.49-2.51,3.36-4,1.63-2.8,4.19-5.13,6.72-7.2,1.21-1,2.25-1.69,3.37-2.89.99-1.06,1.86-1.95,2.92-2.81,1.02-.82,1.96-1.48,2.97-2.02-.79,2.2.12,2.18,1.81,1.37,1.43-.69,3.92-1.13,2.36-2.51-.56-.5-1.06-.27-.56-1.69.24-.67,1.26-1.84,1.14-2.46-.22-1.1-3.19.19-4.11.35.07-2.3,4.03-2.47,5.1-2.65.94-.16,1.84-.14,2.8-.56.96-.41,1.91-1.28,2.86-1.96,1.69-1.21,3.82-1.35,4.06-3.75.22-2.19-2.1-2.15-1.94-4.29.15-2.13,1.58-5.53-1.56-3.1-.73.57-2.04,1.42-2.51.9-.42-.47.06-1.56-.34-2.06-.56-.71-2.23-1.43-3.54-.48-.61.45-1.76,2.38-2.33,3.09-.62.78-1.92,1.82-2.33,2.55-.28.52-.08.89-.32,1.4-.28.61-.86,1.19-1.35,1.71-.96,1.02-2.07,1.68-2.94,2.83-.95,1.24-1.3,1.99-2.5,3.05-.8.72-1.71,1.52-2.54,2.22-.09-.65.45-1.99.86-2.83.73-1.48,1.06-1.57.17-1.97-.99-.45-2.16-.89-3.55-.46-.86.27-1.73.78-1.37-.34.16-.5.62-.9.78-1.33.19-.52-.04-.63.1-1.05.55-1.62,3.5-3.37,4.86-4.43,1.05-.82,2.05-1.39,3.07-2.09.98-.68,1.84-1.56,2.82-2.46,1.67-1.55,3.5-3.2,5.18-4.4,1.45-1.04,2.81-.69,4.18-3.02,1.69-2.88-2.78,1.76-3.4,2.24-.94.72-1.66.88-.8-.53-.19.03-.28-.12-.54,0,.5-.96-.11-.84-.74-.52-.05-.42.41-1.06.91-1.53-1.53-.09-2.76,2.67-4.28,4.1-1.8,1.71-2.62,1.38-4.36,2.54-.83.56-1.76,1.29-2.49,1.54-.68.23-1.05-.05-1.8.28-1.62.7-3.61,2.14-5.27,3.02-1.05.56-1.05.23-1.5.15-.42-.08-1.47.62-2.41,1.26-.93.64-1.91,1.38-2.85,2.08-.9.66-1.36.88-2.05,1.32-.2.13-.41.27-.61.41-11.45,16.25-18.09,31.54-22.25,50.98Z"/>
            <path class="st38" d="M250.39,163.48c-.09-1.7-.42-1.79-1.41-3.02-1.55-1.94-2.74-3.06-4.96-3.79-2.19-.72-4.05-.96-5.86-2.8-1.83-1.86-3.8-.9-5.64-2.22-.66-.47-1.91-1.57-2.25-2.4-.41-.97-.52-1.94-1.04-2.95-1-1.92-1.62-4.28-3.52-5.18-1.65-.78-4.27,0-5.2-1.77-.54-1.02-.62-1.67-1.43-2.51-.64-.65-1.44-1.07-2.02-1.71-.69-.77-.89-1.72-1.72-2.28-.82-.55-1.76-.48-2.62-.33-.86.14-1.96.56-2.88.27-.73-.23-1.57-1.05-2.25-1.45-.99-.59-1.58-.99-2.38,0-.56.7-.27,2.44-1.22,2.19.05-.74.24-1.7-.48-2.05-.16-1.22.87-1.27.78-2.29-1.33.86-2.89,1.18-4.27,1.86-.84.42-1.33.93-1.6,1.9-.19.7-.13,1.17-.51,1.75-.27.41-.68.56-.92,1-.28-.37-.42-.56-.7-.93-.65-2.24-2.86-.07-4.06-.56-1.38-.56-2.18-2.5-2.11-4.03.07-1.48.69-4.38-.36-5.2-1.04-.81-3.3.04-4.53-.36-.13-1.37,1.23-2.46,1.83-3.5.34-.58.49-1.29.76-1.89.22-.47.81-1.27.94-1.75.54-2.04-1.35-1.16-2.4-.92-1.77.4-1.78,1.46-2.32,3.18-.01.1-.01.14-.02.24-1.08,1.14-4.2,2.18-5.23,1.19-.56-.53-.26-2.07-.3-2.85-.03-.51-.08-.99-.1-1.48-.45,3.51-.61,5.29-.78,8.87.65.12,1.33.15,2.03.09,1.67-.16,2.38,1.66,3.94,2.31,1.63.69,2.62,1.07,3.62,2.97.47.9.37,1.76.91,2.63.49.8,1.43,1.44,2.14,1.97.66.49,1.54,1.17,2.29,1.43,1.05.37,1.09-.21,1.9-.68,2.16-1.25,2.32,2.5,2.4,4.08.07,1.29-.07,1.82-.49,2.81-.34.9-.5,1.35-.82,2.24.19.14.34.12.25.51-1.48.4-1.12,1.16-1.46,2.66-.33,1.46.14,2.11.32,3.61.15,1.21-.68,1.09-.77,1.99-.08.73.95,2,1.37,2.69.51.86,1.1,2.17,1.81,2.98.97,1.12,1.71,1.58,2.51,2.92,1.12,1.88,1.85,4.43,3.34,6.11,1.32,1.48,3.16,2.5,4.59,3.71,1.82,1.54,4.15,4.79,4.8,6.9.94,3.1,1.49,5.9,2.24,8.83.85,3.34,2.63,6.51,3.63,9.69.87,2.8,2.07,5.25,3.65,8.06,1.29,2.3,3.16,3.81,4.63,6.25,1.49,2.48,3.02,5.01,4.73,7.49,1.34,1.93,3.15,4.93,4.82,5.7,1.05.48.77.22,1.88,1.73.89,1.22,1.42,1.33,2.22,2.18-.07-.03-.11-.05-.18-.08.54.25,2.02,1.26,2.29,1.05.49-.39-.87-1.46-1.51-2.02-1.58-1.4-2.97-2.96-4.26-4.79-1.5-2.13.46-2.22-.78-4.08-.69-1.03-3.95-2.31-3.52-3.61.12-.34.8-.09.92-.5-.21-.31-.32-.47-.53-.79.02-1.28-.53-1.46-1.46-2.86-.26-.39-.77-1.32-.75-1.67.04-.62.62-.08,1.02-.17.69-.15.43-1.14.99-1.52.59-.4,2.15.32,2.39-.58.46-1.71-4.65-5.38-1.72-4.78.95.19,1.91.69,2.83.96,1.22.35,1.16-.15,1.35-1.22.17-.94.33-1.77.35-2.82.01-.73-.02-.98.31-1.53.2-.34.62-.39.83-.74.34-.56.68-1.93.63-2.76-.07-1.02-.85-2.16-.77-3.21.14-1.66,1.88-3.26,3.39-3.29.94-.02,2.1.59,2.78-.16.56-.62.56-1.83,1.14-2.54.72-.87,1.33-1.1,1.37-2.5.04-1.17-.33-2.47-.48-3.66-.35-2.72-.05-4.38.65-6.73.35-1.16.29-2.27.91-3.35.52-.91,1.43-1.56,1.93-2.52.53-1.03.26-2.38.2-3.66Z"/>
            <path class="st38" d="M191.8,115.56c-1.11-.38-.09-1.53.65-1.84.71-.3,1.59-.23,2.32-.3.79-.07,1.63-.38,2.32-.08.69.3,1.16,1.06,1.83,1.43.64.36,4.2,1.74,3.01,3.21-.42.53-1.79.26-2.35.33-1.17.15-1.4.6-1.56-.78-.18-1.59-.99-1.73-2.25-2.17-.37-.13-.99-.65-1.32-.66-.72-.03-1.12.8-1.82.68-.34.07-.51.11-.84.18Z"/>
            <path class="st38" d="M202.9,120.91c-.26-.07-.92-.37-.9-.77.03-.66.49-.41.88-.58,1.33-.56.82-.68,1.07-2.05.1-.52-.31-.32.35-.6.47-.2.79.08,1.15.24.81.37,3.77.86,3.6,2.22-.14,1.1-1.3.59-2.01.78-.52.14-.56.33-.94.58-.42.28-2.49.37-3.2.17Z"/>
          </g>
        </g>
        <g>
          <path class="st20" d="M96.11,154.21h192.34c3.45,0,6.25,2.8,6.25,6.25v122.9c0,3.45-2.8,6.25-6.25,6.25H96.11c-3.45,0-6.25-2.8-6.25-6.25v-122.9c0-3.45,2.8-6.25,6.25-6.25Z"/>
          <path class="st44" d="M289.49,252.84c0,3.09-.57,3.52-3.85,3.52H98.92c-3.28,0-3.85-.43-3.85-3.52v-88.85c0-3.09.57-3.52,3.85-3.52h186.72c3.28,0,3.85.43,3.85,3.52v88.85Z"/>
          <path class="st4" d="M89.86,260.45v22.91c0,3.45,2.8,6.25,6.25,6.25h192.34c3.45,0,6.25-2.8,6.25-6.25v-22.91H89.86Z"/>
          <path class="st26" d="M197.75,274.95c0,3.02-2.45,5.47-5.47,5.47s-5.47-2.45-5.47-5.47,2.45-5.47,5.47-5.47,5.47,2.45,5.47,5.47Z"/>
          <path class="st10" d="M202.95,308.71h-21.35c10.68-9.55,0-19.1,0-19.1h21.35s-7.1,9.55,0,19.1Z"/>
          <rect class="st4" x="158.26" y="308.71" width="68.05" height="4.99"/>
        </g>
        <path class="st31" d="M95.07,321.92c0,3.58-17.36,6.48-38.77,6.48s-38.77-2.9-38.77-6.48,17.36-6.48,38.77-6.48,38.77,2.9,38.77,6.48Z"/>
        <ellipse class="st31" cx="296.02" cy="320.74" rx="38.77" ry="6.48"/>
        <g>
          <rect class="st13" x="67.68" y="78.96" width="170.47" height="130.26"/>
          <rect class="st7" x="67.68" y="78.96" width="170.47" height="11.63"/>
          <path class="st28" d="M232.99,84.77c0,1.74-1.41,3.15-3.16,3.15s-3.16-1.41-3.16-3.15,1.41-3.16,3.16-3.16,3.16,1.41,3.16,3.16Z"/>
          <path class="st28" d="M224.69,84.77c0,1.74-1.41,3.15-3.16,3.15s-3.16-1.41-3.16-3.15,1.41-3.16,3.16-3.16,3.16,1.41,3.16,3.16Z"/>
          <path class="st28" d="M216.71,84.77c0,1.74-1.41,3.15-3.16,3.15s-3.16-1.41-3.16-3.15,1.41-3.16,3.16-3.16,3.16,1.41,3.16,3.16Z"/>
          <rect class="st28" x="74.16" y="81.62" width="74.52" height="6.31" rx="2.99" ry="2.99"/>
          <rect class="st40" x="67.68" y="90.59" width="170.47" height="45.19"/>
          <rect class="st42" x="79.81" y="141.76" width="44.78" height="9.97"/>
          <rect class="st40" x="79.81" y="154.72" width="44.78" height="4.98"/>
          <rect class="st40" x="79.81" y="162.69" width="37.65" height="4.98"/>
          <rect class="st43" x="79.81" y="173.16" width="144.88" height="9.97"/>
          <rect class="st40" x="79.81" y="186.12" width="144.88" height="4.98"/>
          <rect class="st40" x="79.81" y="194.1" width="121.8" height="4.98"/>
          <rect class="st35" x="129.95" y="141.76" width="44.78" height="9.97"/>
          <rect class="st40" x="129.95" y="154.72" width="44.78" height="4.98"/>
          <rect class="st40" x="129.95" y="162.69" width="37.65" height="4.98"/>
          <rect class="st5" x="179.91" y="141.76" width="44.78" height="9.97"/>
          <rect class="st40" x="179.91" y="154.72" width="44.78" height="4.98"/>
          <rect class="st40" x="179.91" y="162.69" width="37.65" height="4.98"/>
          <rect class="st42" x="92.94" y="99.56" width="24.92" height="24.92"/>
          <rect class="st35" x="123.75" y="99.56" width="24.92" height="24.92"/>
          <rect class="st36" x="155.66" y="99.56" width="24.92" height="24.92"/>
          <rect class="st5" x="186.89" y="99.56" width="24.92" height="24.92"/>
          <g class="st3">
            <path class="st11" d="M105.92,112.76c3.09,0,5.59-2.5,5.59-5.59s-2.5-5.59-5.59-5.59-5.59,2.5-5.59,5.59,2.5,5.59,5.59,5.59Z"/>
            <path class="st11" d="M105.92,113.89c-4.73,0-8.56,3.83-8.56,8.56h17.12c0-4.73-3.83-8.56-8.56-8.56Z"/>
          </g>
          <g class="st3">
            <path class="st11" d="M199.35,112.76c3.09,0,5.59-2.5,5.59-5.59s-2.5-5.59-5.59-5.59-5.59,2.5-5.59,5.59,2.5,5.59,5.59,5.59Z"/>
            <path class="st11" d="M199.35,113.89c-4.73,0-8.56,3.83-8.56,8.56h17.12c0-4.73-3.83-8.56-8.56-8.56Z"/>
          </g>
          <g class="st3">
            <path class="st9" d="M136.21,112.76c3.09,0,5.59-2.5,5.59-5.59s-2.5-5.59-5.59-5.59-5.59,2.5-5.59,5.59,2.5,5.59,5.59,5.59Z"/>
            <path class="st9" d="M136.21,113.89c-4.73,0-8.56,3.83-8.56,8.56h17.12c0-4.73-3.83-8.56-8.56-8.56Z"/>
          </g>
          <g class="st3">
            <path class="st29" d="M168.11,112.76c3.09,0,5.59-2.5,5.59-5.59s-2.5-5.59-5.59-5.59-5.59,2.5-5.59,5.59,2.5,5.59,5.59,5.59Z"/>
            <path class="st29" d="M168.11,113.89c-4.73,0-8.56,3.83-8.56,8.56h17.12c0-4.73-3.83-8.56-8.56-8.56Z"/>
          </g>
        </g>
        <g>
          <path class="st28" d="M177.03,121.69h86.87c2.71,0,4.9,2.2,4.9,4.9v118.8c0,2.71-2.2,4.9-4.9,4.9h-86.87c-2.71,0-4.9-2.2-4.9-4.9v-118.8c0-2.71,2.2-4.9,4.9-4.9Z"/>
          <path class="st0" d="M268.81,137.48v-10.89c0-2.71-2.2-4.9-4.9-4.9h-86.87c-2.71,0-4.9,2.2-4.9,4.9v10.89h96.68Z"/>
          <g>
            <path class="st28" d="M178.65,132.29v-5.38h1.12c.17,0,.31.03.42.09.11.06.2.15.26.29.07.14.11.32.14.55.03.23.04.52.04.86s-.01.63-.04.86-.07.42-.13.57c-.06.14-.15.25-.27.32-.11.07-.26.1-.43.1h-.48v1.74h-.62ZM179.66,129.92c.06,0,.11-.02.15-.06.04-.04.07-.1.1-.2s.05-.22.06-.38c.01-.16.02-.36.02-.61s0-.44-.02-.59c-.01-.15-.04-.27-.06-.35-.03-.08-.06-.13-.11-.16-.04-.03-.09-.04-.15-.04h-.38v2.38h.38Z"/>
            <path class="st28" d="M182.42,132.29s-.03-.06-.04-.09c0-.03-.02-.07-.02-.13,0-.06-.01-.13-.02-.23,0-.1-.02-.23-.03-.39,0-.18-.02-.36-.03-.54-.01-.18-.03-.36-.05-.54-.02-.15-.06-.24-.1-.28-.04-.04-.11-.06-.2-.06h-.3v2.27h-.62v-5.38h1.14c.16,0,.29.02.38.06.09.04.17.1.23.19.04.06.08.12.11.19.03.07.06.15.08.25.02.09.03.21.04.33,0,.13,0,.27,0,.44s0,.31,0,.43c0,.12-.01.22-.02.3-.01.08-.03.15-.04.21-.01.06-.03.11-.05.16-.03.08-.07.14-.12.18-.04.04-.09.08-.15.1v.04s.09.07.14.13c.04.06.08.17.1.32.03.25.06.5.08.75.02.25.04.52.05.79,0,.11.02.2.03.28.01.08.03.15.05.22v.03h-.65ZM181.92,129.44c.09,0,.16-.01.21-.04.06-.02.1-.08.14-.16.02-.04.03-.08.04-.11,0-.04.02-.09.03-.15,0-.06.01-.14.01-.24,0-.1,0-.22,0-.38,0-.12,0-.22,0-.29,0-.08,0-.14-.01-.19,0-.05-.01-.09-.02-.12-.01-.03-.03-.06-.04-.08-.06-.09-.14-.13-.25-.13h-.4v1.9h.28Z"/>
            <path class="st28" d="M183.5,131.94c-.03-.08-.06-.17-.09-.27-.02-.1-.04-.23-.06-.39-.01-.17-.02-.38-.03-.65,0-.27,0-.61,0-1.03s0-.76,0-1.03c0-.27.02-.48.03-.65.01-.17.03-.3.06-.39.02-.09.05-.18.09-.27.07-.17.16-.28.28-.34.12-.06.3-.1.55-.1s.42.03.55.1c.12.06.22.18.28.34.03.09.06.18.09.27.02.09.04.23.06.39.01.17.02.38.03.65,0,.27.01.61.01,1.03s0,.77-.01,1.03c0,.27-.02.48-.03.65-.01.17-.03.3-.06.39-.02.1-.05.19-.09.27-.07.17-.16.28-.28.34-.12.06-.31.1-.55.1s-.42-.03-.55-.1c-.12-.06-.22-.18-.28-.34ZM184.64,131.49c.01-.06.03-.12.04-.18,0-.07.02-.16.02-.3,0-.13.01-.31.02-.53,0-.22,0-.52,0-.89s0-.67,0-.9c0-.23,0-.4-.01-.53,0-.13-.01-.23-.02-.29,0-.06-.02-.12-.04-.18-.02-.09-.06-.15-.1-.18-.04-.04-.11-.05-.21-.05s-.16.02-.21.05c-.04.04-.08.09-.1.17-.01.06-.03.12-.04.18-.01.07-.02.16-.03.29,0,.13-.01.31-.01.53,0,.23,0,.52,0,.9s0,.67,0,.89c0,.22,0,.4.01.53,0,.13.02.23.03.3.01.07.02.13.04.18.02.09.06.14.1.18.04.03.11.05.21.05s.16-.02.21-.05c.04-.03.08-.09.1-.18Z"/>
            <path class="st28" d="M185.75,132.29v-5.38h1.64v.64h-1.02v1.75h.99v.62h-.99v2.37h-.62Z"/>
            <path class="st28" d="M187.75,132.29v-5.38h.65v5.38h-.65Z"/>
            <path class="st28" d="M188.87,132.29v-5.38h.62v4.71h.96v.67h-1.58Z"/>
            <path class="st28" d="M190.77,132.29v-5.38h1.66v.64h-1.04v1.69h1.02v.61h-1.02v1.77h1.03v.67h-1.66Z"/>
          </g>
          <path class="st27" d="M263.12,129.42c0,3.29-2.67,5.96-5.96,5.96s-5.95-2.67-5.95-5.96,2.66-5.95,5.95-5.95,5.96,2.67,5.96,5.95Z"/>
          <polygon class="st28" points="260.43 131.02 258.83 129.42 260.43 127.81 258.76 126.15 257.16 127.75 255.56 126.15 253.89 127.81 255.5 129.42 253.89 131.02 255.56 132.69 257.16 131.08 258.76 132.69 260.43 131.02"/>
          <g>
            <path class="st26" d="M249.04,144.08c0,1.07-.86,1.93-1.93,1.93s-1.93-.86-1.93-1.93.86-1.93,1.93-1.93,1.93.86,1.93,1.93Z"/>
            <path class="st26" d="M255.88,144.08c0,1.07-.86,1.93-1.93,1.93s-1.93-.86-1.93-1.93.86-1.93,1.93-1.93,1.93.86,1.93,1.93Z"/>
            <path class="st26" d="M262.71,144.08c0,1.07-.86,1.93-1.93,1.93s-1.92-.86-1.92-1.93.86-1.93,1.92-1.93,1.93.86,1.93,1.93Z"/>
          </g>
          <rect class="st42" x="178.42" y="146.01" width="20.75" height="20.75"/>
          <rect class="st25" x="178.42" y="172.85" width="84.1" height="59.56"/>
          <g class="st3">
            <path class="st11" d="M189.23,157.01c2.57,0,4.65-2.08,4.65-4.65s-2.08-4.65-4.65-4.65-4.65,2.08-4.65,4.65,2.08,4.65,4.65,4.65Z"/>
            <path class="st11" d="M189.23,157.95c-3.94,0-7.13,3.19-7.13,7.13h14.25c0-3.94-3.19-7.13-7.13-7.13Z"/>
          </g>
          <rect class="st42" x="204.73" y="147.28" width="33.28" height="7"/>
          <rect class="st40" x="204.73" y="156.39" width="52.43" height="3.5"/>
          <rect class="st40" x="204.73" y="161.99" width="20.32" height="3.5"/>
          <path class="st40" d="M199.17,240.29c0,1.84-1.49,3.33-3.33,3.33h-14.09c-1.84,0-3.33-1.49-3.33-3.33h0c0-1.84,1.49-3.33,3.33-3.33h14.09c1.84,0,3.33,1.49,3.33,3.33h0Z"/>
          <path class="st40" d="M230.84,240.29c0,1.84-1.49,3.33-3.33,3.33h-14.09c-1.84,0-3.33-1.49-3.33-3.33h0c0-1.84,1.49-3.33,3.33-3.33h14.09c1.84,0,3.33,1.49,3.33,3.33h0Z"/>
          <path class="st40" d="M262.52,240.29c0,1.84-1.49,3.33-3.33,3.33h-14.09c-1.84,0-3.33-1.49-3.33-3.33h0c0-1.84,1.49-3.33,3.33-3.33h14.09c1.84,0,3.33,1.49,3.33,3.33h0Z"/>
        </g>
        <g>
          <path class="st32" d="M75.87,310.47c-1.47-2.68,7.97-49.31,2.42-77.76-1.46-7.49-12.2-6.11-10.9,0,6.49,30.33,1.87,81.15,1.87,81.15,0,0,1.78,3.16,9.45,4.08,2.82.33,4.98-1.82,3.9-2.46-2.9-1.72-5.28-2.32-6.75-5Z"/>
          <path class="st21" d="M78.04,215c-8.47-6.99-13.15,13.06-13.15,13.06,0,0,1.54,19.57,3.14,25.57,7.06,0,12.11-1.7,12.11-1.7-.02-9.27-1.61-30.04-2.11-36.93Z"/>
          <path class="st32" d="M83.17,212.58c-7.65-13.22-10.89-33.78-10.89-33.78l6.03.22s1.62,19.17,9.14,33.61c1.9,1.33-1.57,4.63-4.28-.05Z"/>
          <g>
            <path class="st32" d="M84.91,217.5c-.66-1.11-1.63-4.77-1.63-4.77,0,0,1.12-2.97,2.4-2.04.51.37,5.47.82,5.84.81.57-.01.24,1.2-.66,1.48-.42.13-1.04-.1-1.38-.08-.27.01.3,1.48.49,1.86.2.38-.78,1.02-1.99,2.02-1.93,1.59-2.84,1.09-3.07.71Z"/>
            <path class="st32" d="M87.74,216.97c-.71,0,1.81-1.69,1.37-1.08-.23.32,1.63,2.84,2.22,3.6.89,1.17.03,1.76-.78.86-1.06-1.18-2.31-3.38-2.81-3.38Z"/>
            <path class="st32" d="M86.35,217.68c-.5-.03,1.45-1.3,1.38-.71-.26.43,1.51,2.97,2.27,3.83.69.78-.15,1.09-.88.27-1.02-1.13-2.42-3.38-2.77-3.4Z"/>
            <path class="st32" d="M89.98,214.77s-1.6,1.02-1.01,1.08c.28-.1,1.92,2.31,2.64,3.21.55.68,1.63-.14.81-1.03-1.11-1.2-2.43-3.26-2.43-3.26Z"/>
            <path class="st32" d="M84.91,217.5c-.52-.99,1.38.07,1.45.26.14.36.9,1.62,1.44,2.59.34.62-.19.88-.56.4-.69-.91-1.83-2.29-2.33-3.25Z"/>
          </g>
          <path class="st23" d="M73.8,159.73c2.85.97,4.11,5.4,4.92,11.32.81,5.92,2.21,20.26,2.21,20.26,0,0-4.07.39-6.59.16-3.07-10.97-9.75-34.88-.55-31.74Z"/>
          <g>
            <path class="st24" d="M86.01,320.87c-1.36.32-6.74.22-10.97.07-.45-.02-.72-.74-1.14-.76-.2,0-.57.69-.76.68-2.02-.09-3.48-.18-3.55-.22-.64-.33-.61-3.55-.61-3.55l18.91,1.78s0,1.56-1.87,2Z"/>
            <path class="st14" d="M86.45,320.07c-2.29.62-14.44-1.42-15.85-1.79-1.01-.26-1.47-.5-1.63-1.19-.16-.69.11-1.6.3-3.24,1.89,1.65,6.51,2.6,9.08,3.24,2.57.63,4.29.17,4.28-1.62,1.38.68,2.64,1.24,3.28,1.42,2.18.64,2.84,2.56.54,3.17Z"/>
          </g>
          <path class="st32" d="M44.94,310.78c-1.03-2.87,15.61-47.45,14.59-76.42-.27-7.63-11.1-7.95-10.76-1.71,1.66,30.97-10.88,80.44-10.88,80.44,0,0,1.26,3.4,8.7,5.51,2.73.77,5.21-1.02,4.24-1.82-2.59-2.16-4.85-3.12-5.88-5.99Z"/>
          <g>
            <path class="st24" d="M53.32,322.64c-1.39.1-6.69-.83-10.85-1.65-.45-.09-.6-.85-1.01-.93-.2-.04-.67.59-.86.55-1.98-.41-3.41-.72-3.47-.77-.58-.43-.05-3.6-.05-3.6l18.4,4.72s-.25,1.54-2.16,1.69Z"/>
            <path class="st14" d="M53.88,321.91c-2.35.25-14.04-3.67-15.37-4.25-.96-.42-1.37-.72-1.42-1.43-.05-.71.36-1.57.8-3.15,1.6,1.92,6.02,3.59,8.46,4.62,2.44,1.03,4.21.84,4.48-.93,1.26.89,2.42,1.63,3.02,1.92,2.05.97,2.4,2.97.04,3.22Z"/>
          </g>
          <path class="st39" d="M77.23,219.19c2.46-7.54-1.12-15.11-1.12-15.11-2.12-2.24-9.57-8.75-9.57-8.75,0,0-18.74,10.53-19.33,10.55,0,0-2.34,2.49-3.12,10.93-.8,6.17,3.01,11.46,3.01,11.46-.64,7.85,0,18.33,0,25.04,0,0,5.27,1.85,12.12,1.32,1.15-3.62,4.88-24.58,4.88-24.58,0,0,10.27-2.12,13.12-10.87Z"/>
          <path class="st15" d="M57.73,149.63c16.12,2.81,21.3-16.32,21.3-16.32,0,0,2.59-2.6,2.26-9.01-.32-6.14-4.98-12.71-13.67-13.36-13.41-1-20.8,6.59-21.22,18.33-.36,10.13,5.79,19.39,11.32,20.36Z"/>
          <path class="st26" d="M44.14,212.01l6.41-18.37s-3.06-14.1-3.06-17.24c0-8.18.17-16.64,3.14-17.7,2.97-1.05,4.87-1.1,4.87-1.1l6.4,3.68,6.4-3.68s2.54,1.06,5.51,2.12c1.05,9.64,3.69,11.32,4.92,16.54,0,2.8-2.25,5.49-2.25,5.49l-1.23,11.89,3.09,17.37s-7.29,3.33-15.96,3.33c-12.79,0-18.24-2.34-18.24-2.34Z"/>
          <path class="st32" d="M68.29,157.61c1.72,3.57,10.23,12.1.08,12.68-13.67.77-12.24-9.8-12.88-12.68,2.42-.42,3.36-6.32,1.52-10.19-1.84-3.86,11.7-.83,10.02,1.02-1.68,1.84-1.18,8.75,1.26,9.17Z"/>
          <path class="st2" d="M66.84,156.28c-3.94-1.53-5.98-6.34-5.96-10.64,3.24.36,7.1,1.77,6.15,2.8-1.27,1.39-1.29,5.64-.19,7.84Z"/>
          <path class="st32" d="M51.84,122.93l.68,16.56c0,6.43,10.73,14.49,15.41,14.49,3.93,0,8.21-6.28,9.85-12.51,1.78-6.78,1.12-15.54.82-18.54h-26.75Z"/>
          <path class="st32" d="M55.46,137.17c0,1.96-.76,3.35-2.88,3.56-3.11.3-3.67-2.33-3.64-3.97.04-1.9,1.86-3.18,3-3.11,2.13.14,3.52,1.55,3.52,3.52Z"/>
          <path class="st15" d="M62.02,134.21c0,.68.55,1.24,1.23,1.24s1.24-.55,1.24-1.24-.55-1.23-1.24-1.23-1.23.55-1.23,1.23Z"/>
          <path class="st15" d="M73.85,134.21c0,.68.55,1.24,1.23,1.24s1.24-.55,1.24-1.24-.55-1.23-1.24-1.23-1.23.55-1.23,1.23Z"/>
          <path class="st16" d="M65.95,143.86c0,3.43,2.52,4.1,3.81,4.1s4.26-.68,4.26-4.1h-8.07Z"/>
          <path class="st16" d="M66.01,143.86c.89-.4,2.7-.95,3.98-.95s2.59.39,4.03.95h-8.01Z"/>
          <path class="st32" d="M43.81,212.62c-4.25-14.67-2.45-35.41-2.45-35.41l5.8,1.66s-3.04,18.99.79,34.82c1.53,1.75-2.64,4.12-4.14-1.08Z"/>
          <g>
            <path class="st32" d="M44.31,217.81c-.38-1.24-.44-5.02-.44-5.02,0,0,1.8-2.61,2.82-1.4.4.48,5.11,2.11,5.47,2.19.56.12-.05,1.22-.99,1.28-.44.03-.99-.34-1.32-.41-.26-.05-.07,1.51.04,1.92.1.42-1,.8-2.42,1.48-2.25,1.08-3.02.38-3.15-.05Z"/>
            <path class="st32" d="M47.18,217.98c-.69-.17,2.17-1.21,1.59-.72-.3.25.91,3.15,1.29,4.03.59,1.35-.39,1.72-.96.64-.74-1.4-1.43-3.83-1.91-3.95Z"/>
            <path class="st32" d="M45.67,218.33c-.48-.15,1.71-.92,1.51-.35-.36.36.75,3.24,1.28,4.26.48.92-.41,1.02-.92.05-.72-1.35-1.53-3.86-1.87-3.97Z"/>
            <path class="st32" d="M49.89,216.38s-1.8.61-1.24.81c.3-.04,1.3,2.7,1.79,3.75.37.8,1.62.26,1.03-.8-.79-1.44-1.58-3.75-1.58-3.75Z"/>
            <path class="st32" d="M44.31,217.81c-.27-1.09,1.32.4,1.34.6.05.38.49,1.79.78,2.86.18.68-.4.8-.64.25-.45-1.05-1.22-2.67-1.48-3.71Z"/>
          </g>
          <path class="st23" d="M50.63,158.71c2.04-.28-.35,12.76-2.12,15.6-.18,6.52-1.76,17.12-1.76,17.12,0,0-4.05-.6-6.44-1.43-.34-11.38.67-29.99,10.32-31.28Z"/>
          <path class="st2" d="M70,138.38c.75,0,1.39.43,1.57,1.02.04-.11.06-.23.06-.35,0-.76-.73-1.37-1.63-1.37s-1.63.61-1.63,1.37c0,.12.03.24.06.35.19-.59.82-1.02,1.57-1.02Z"/>
          <path class="st2" d="M50.37,137.31c.03.8,1,1.92,1.54,1.58.54-.34-.68-2.24,1.21-1.84,0,.63-.34,1.92-1.38,2.1-1.03.18-1.91-.69-1.91-1.96,0-2.44,2.38-2.26,2.38-2.26,0,0-1.91.35-1.85,2.38Z"/>
          <path class="st15" d="M77.53,131.42c-.08.25-.57-.39-1.75-.77-.72-.24-1.33,0-1.77.18-.44.18-.63-.89-.4-1.08.29-.24,1.28-.49,2.24-.17,1.15.38,1.76,1.59,1.68,1.84Z"/>
          <path class="st15" d="M60.28,131.36c.08.25.76-.19,1.94-.57.72-.23,1.33,0,1.77.18.45.18.63-.88.4-1.08-.28-.24-1.28-.49-2.24-.18-1.15.38-1.94,1.39-1.87,1.64Z"/>
          <path class="st2" d="M51.8,122.93c-1.64,7.83,2.42,14.98,2.42,14.98-.4-3.7,1.71-8.61,4.37-10.28,4.8-3.02,13.04-4.02,17.72-.52,1.99,1.48,2.67,6.19,2.72,6.2l-.51-10.38s-25.3-1.79-26.73,0Z"/>
          <path class="st15" d="M79.39,120.64c.72,3.7.45,9.32-.44,11.29-.23-5.23-1.98-8.42-9.57-8.42s-13.83,1.94-15.19,9.01c-1.25,1.77.02,5.4.02,5.4,0,0-1.68-1.84-3.01-6.45-.78-2.71-.44-7.4-.03-10.83h28.21Z"/>
          <path class="st15" d="M56.21,114.46s-4.47,8.68-8.84,10.3c-6.04,2.23-9.17-5.77-5.83-13.13,3.21-7.07,10.22-8.18,12.81-5.82,2.58,2.35,1.86,8.65,1.86,8.65Z"/>
          <path class="st28" d="M66.11,144.03c.26,1.6,1.95,2.94,3.67,2.94,1.85,0,3.66-.87,4.11-2.94h-7.78Z"/>
          <path class="st12" d="M53.18,140.81c0,.68-.55,1.23-1.23,1.23s-1.23-.55-1.23-1.23.55-1.23,1.23-1.23,1.23.55,1.23,1.23Z"/>
        </g>
        <g>
          <path class="st30" d="M285.83,312.45c1.78-3.58-10.14-48.49-5.72-77.14,1.17-7.54,11.95-6.59,10.89-.43-5.29,30.56-.25,74.41.98,78.23.3,1.38-7.51,2.07-6.15-.67Z"/>
          <g>
            <path class="st6" d="M275.55,320.68c1.37.27,6.71-.44,10.94-.77.45-.04.69-.77,1.11-.8.2-.02.6.66.79.65,2.02-.17,3.52-.75,3.59-.79.63-.35.45-2.74.45-2.74l-18.83,2.52s.06,1.56,1.95,1.93Z"/>
            <path class="st37" d="M275.08,319.89c2.31.53,14.38-1.99,15.77-2.41,1-.3,1.45-.56,1.58-1.25.13-.7-.17-1.6-.43-3.22-1.75,1.02-6.32,1.39-6.32-.17-1.35.74-9.35,4.81-10.01,4.86-2.33.18-2.9,1.67-.59,2.19Z"/>
          </g>
          <path class="st41" d="M291.04,231.52c-.15,6.43.95,67.74,2.08,77.91l-11.01.79s-5.72-70.51-5.57-87.53c-2.22-1.1,14.52,8.63,14.5,8.83Z"/>
          <path class="st30" d="M308.9,312.7c1.34-3.76-15.78-46.96-14.76-75.93.27-7.63,11.09-7.95,10.76-1.71-1.66,30.97,8.51,73.92,10.18,77.57.46,1.34-7.21,2.94-6.18.06Z"/>
          <g>
            <path class="st6" d="M299.67,322.08c1.39.1,6.61-1.23,10.77-2.05.44-.09.6-.84,1.01-.93.2-.04.67.59.86.55,1.98-.41,3.41-1.16,3.47-1.21.58-.43.12-2.77.12-2.77l-18.4,4.72s.24,1.54,2.16,1.69Z"/>
            <path class="st37" d="M299.11,321.35c2.36.25,14.04-3.67,15.37-4.25.96-.42,1.37-.72,1.42-1.43.05-.71-.36-1.57-.8-3.15-1.62,1.22-6.11,2.12-6.3.58-1.26.89-8.72,5.88-9.37,6-2.29.45-2.68,2-.33,2.25Z"/>
          </g>
          <path class="st19" d="M276.25,220.34c.29-7.66,1.31-13.85,1.31-13.85,2.12-2.24,9.56-8.75,9.56-8.75,0,0,18.74,10.53,19.33,10.55,0,0,2.35,2.48,3.12,10.93.02.2.17,12.78.17,12.98.61,6.4,6.03,66.23,6.03,76.62l-10.84,2.08s-12.24-59.96-12.7-72.67c-2.33-.83-15.08-4.04-15.99-17.91Z"/>
          <path class="st15" d="M293.4,153.38c-12.55-.06-16.66-8.61-16.66-8.61,0,0-4.05-4.08-4.31-14.84-.13-5.56,1.66-18.72,11.24-14.31,13.61-6.66,22.8,3.71,22.87,15.91.06,10.88-4.44,21.9-13.14,21.85Z"/>
          <path class="st26" d="M273.65,167.56c.3-1.67,1.62-4.01,3.64-4.62.84-.3,1.11,23.87,1.11,23.87l.68,8.29s-8.61,1.39-9.16-5.53c-.68-8.47,3.42-20.36,3.73-22.02Z"/>
          <path class="st1" d="M276.6,189.16c-5.29-3.04-2.55-6.4-1.26-10.95.84-2.99,2.7-6.97,2.7-6.97l.37,15.58.05.64c-.13-.03-1.73,1.77-1.86,1.7Z"/>
          <path class="st33" d="M308.11,212.22c3.15-1.17-1.34-28.89-1.34-32.02,0-8.18,1.69-18.02-1.27-19.08-2.97-1.05-7.32-1.09-7.32-1.09l-6.4,3.68-6.4-3.68s-5.12,1.86-8.09,2.92c-1.05,9.64-1.55,14.7-1.96,18.63s.63,18.7.63,18.7c0,0-1.69,11.72,1.39,12.77,3.08,1.05,27.6.33,30.75-.83Z"/>
          <path class="st26" d="M302.43,160.39c-2.23-.35-4.25-.36-4.25-.36l-6.4,3.68-6.4-3.68s-2.45.89-4.94,1.79c-1.11.4,4.83,10,7.91,11.05,3.07,1.05,15.12-12.32,14.08-12.48Z"/>
          <path class="st1" d="M287.58,183.89c3.65,1.86,6.14.87,9.74.15,3.2-.64,5.03,1.58,8.18,1.32,0,.26,0,.55,0,.8,0,2.02-.88,7.71-.42,11.46-6.41.6-13.25-3.68-13.25-3.68,0,0-10.2,3.69-13.48,2.72l-1.13-7.49s-1.22-.5-1.86-2.4c4.51.28,7.29-5.41,12.24-2.88Z"/>
          <path class="st30" d="M285.38,160.03c-.36,2.54,3.2,5.45,3.2,5.45,0,0,8.96-2.57,9.59-5.45-2.42-.42-3.36-6.32-1.52-10.19,1.84-3.86-11.7-.83-10.02,1.02,1.68,1.84,1.18,8.75-1.26,9.17Z"/>
          <path class="st2" d="M286.84,158.7c3.94-1.53,5.98-6.34,5.96-10.64-3.24.36-7.1,1.77-6.15,2.8,1.27,1.39,1.29,5.64.19,7.84Z"/>
          <path class="st30" d="M301.83,125.35l-.68,16.56c0,6.43-10.73,14.49-15.41,14.49-3.93,0-9.9-6.67-10.78-12.68-1.02-6.93-.19-15.37.12-18.37h26.75Z"/>
          <path class="st30" d="M298.21,139.59c0,1.97.75,3.35,2.88,3.56,3.11.3,3.68-2.34,3.64-3.97-.04-1.89-1.86-3.18-3-3.11-2.13.14-3.52,1.55-3.52,3.52Z"/>
          <path class="st15" d="M291.66,136.63c0,.68-.55,1.24-1.23,1.24s-1.24-.55-1.24-1.24.55-1.23,1.24-1.23,1.23.55,1.23,1.23Z"/>
          <path class="st15" d="M279.83,136.63c0,.68-.55,1.24-1.24,1.24s-1.23-.55-1.23-1.24.55-1.23,1.23-1.23,1.24.55,1.24,1.23Z"/>
          <path class="st28" d="M288.59,145.55c0,3.02-2.75,3.62-4.16,3.62s-4.65-.6-4.65-3.62h8.81Z"/>
          <g>
            <path class="st30" d="M279.25,188.54c1.46.44,5.93.51,5.93.51,0,0,3.08-2.13,1.65-3.34-.23-.19-.56-.91-1.02-2.08-.69-1.74-2.33-2.44-2.9-2.53-.86-.13-1.97.83-1.97.83,0,0-.64-.08-.88.24-.52.73-.41,1.69-.41,1.69,0,0-.78-.18-.7,1.43-.36.75-.83.71-.23,1.95-.51.63.17,1.17.53,1.29Z"/>
            <polygon class="st34" points="280.94 181.95 283.33 182.65 283.11 181.92 282.44 182.22 280.94 181.95"/>
          </g>
          <path class="st26" d="M305.5,161.12c-2.01-.43-1.67,11.76.02,14.65,3.07,4.77-.39,11.32-.39,11.32,0,0,.97,8.19,4.3,6.66,9.21-4.86,7.64-30.16-3.93-32.63Z"/>
          <path class="st26" d="M286.63,184.52l-2.63,5.1s16.38,8.05,25.43,4.14c4.57-1.97,2.31-9.08-3.33-7.2-5.32,1.77-19.47-2.04-19.47-2.04Z"/>
          <path class="st1" d="M298.55,190.67c-.41.03-5.56,2.23-6.05,2.24-4.83-1.48-8.5-3.29-8.5-3.29l1.89-3.66s2.42-.07,4.49-.54c3.74.82,9.48,1.86,13.41,1.56,0,2.7-1.63,3.42-5.23,3.7Z"/>
          <path class="st2" d="M283.67,140.8c-.75,0-1.38.43-1.57,1.02-.04-.11-.06-.23-.06-.35,0-.76.73-1.37,1.63-1.37s1.63.61,1.63,1.37c0,.12-.02.24-.06.35-.19-.59-.82-1.02-1.57-1.02Z"/>
          <path class="st2" d="M303.3,139.72c-.03.8-1,1.92-1.54,1.58-.54-.34.68-2.24-1.21-1.84,0,.63.34,1.92,1.38,2.1,1.02.18,1.91-.68,1.91-1.96,0-2.44-2.38-2.26-2.38-2.26,0,0,1.91.35,1.84,2.38Z"/>
          <path class="st15" d="M276.15,133.84c.08.25.57-.39,1.75-.77.72-.24,1.33,0,1.77.18.45.18.63-.89.4-1.08-.28-.24-1.28-.49-2.24-.18-1.16.38-1.76,1.59-1.68,1.84Z"/>
          <path class="st15" d="M293.39,133.78c-.08.25-.76-.19-1.94-.57-.72-.23-1.33,0-1.77.18-.44.18-.63-.88-.4-1.08.29-.24,1.28-.49,2.24-.17,1.16.38,1.94,1.39,1.87,1.64Z"/>
          <path class="st2" d="M301.87,125.35s-2.03,14.21-3.66,14.24c1.1-4.58-1.68-9.04-4.82-8.85-7.73.48-15.13-.98-16.23-.02-1.86,1.65-2.49,5-2.54,5.01l.5-10.38h26.73Z"/>
          <path class="st15" d="M274.28,123.06c-.72,3.7-.71,9.84.19,11.82,1.15-4.93,3.01-7.49,10.05-5.66,6.08,1.58,9.63-2.42,13.21,2.31,3.47,4.58.49,8.07.49,8.07l1.23.74s1.68-1.84,3.02-6.45c.78-2.7.44-7.4.03-10.83h-28.21Z"/>
          <g>
            <path class="st30" d="M302.09,189.08c-1.47.42-5.94.41-5.94.41,0,0-3.04-2.18-1.59-3.37.23-.19.57-.9,1.06-2.06.72-1.73,2.38-2.4,2.95-2.47.86-.11,1.96.87,1.96.87,0,0,.65-.07.87.26.51.74.38,1.7.38,1.7,0,0,.79-.17.68,1.44.35.76.81.72.2,1.95.5.64-.19,1.17-.55,1.27Z"/>
            <polygon class="st34" points="300.51 182.46 298.12 183.12 298.34 182.39 299.01 182.71 300.51 182.46"/>
          </g>
          <path class="st26" d="M295.58,185.29l2.54,5.14s-16.52,7.76-25.5,3.68c-4.53-2.05-2.14-9.12,3.46-7.14,5.29,1.87,19.5-1.69,19.5-1.69Z"/>
        </g>
      </g>
    </g>
  </g>
</svg>