<svg width="36" height="36" viewBox="0 0 36 36" fill="none" xmlns="http://www.w3.org/2000/svg">
<path fill-rule="evenodd" clip-rule="evenodd" d="M15.7211 15.3828C15.6959 15.4314 15.6221 15.9228 15.9119 15.9228C15.9625 15.9229 16.0115 15.9047 16.0498 15.8717C16.0882 15.8386 16.1133 15.7929 16.1207 15.7428C16.1819 15.192 15.8219 15.1938 15.7211 15.3828ZM18.3311 15.3756C18.3473 15.5664 18.3689 15.7356 18.5597 15.7356C18.6103 15.7357 18.6593 15.7175 18.6976 15.6845C18.736 15.6514 18.7611 15.6057 18.7685 15.5556C18.7724 15.4398 18.7597 15.324 18.7307 15.2118C18.6263 15.0192 18.3041 15.066 18.3311 15.3756ZM17.0711 17.1144C17.1269 17.1144 17.6111 17.091 17.7245 17.0028C17.7587 16.9776 17.7551 16.929 17.7551 16.884C17.7443 16.3734 17.695 15.8643 17.6075 15.3612C17.6075 15.3342 17.5841 15.3288 17.5697 15.3324C17.5553 15.336 17.5481 15.3612 17.5499 15.4044C17.5499 15.552 17.5373 15.6024 17.5895 16.4286C17.6237 16.9686 17.6093 16.8174 17.6201 16.9074C17.4513 16.9692 17.278 17.018 17.1017 17.0532C16.9847 17.0784 17.0675 17.1144 17.0711 17.1144ZM17.6399 18.36C17.5063 18.4316 17.3591 18.4739 17.2079 18.4842C17.2003 18.4842 17.1929 18.4872 17.1875 18.4926C17.1821 18.498 17.1791 18.5053 17.1791 18.513C17.1791 18.5206 17.1821 18.5279 17.1875 18.5333C17.1929 18.5387 17.2003 18.5418 17.2079 18.5418C17.2925 18.5722 17.3828 18.5831 17.4722 18.5738C17.5616 18.5645 17.6477 18.5351 17.7242 18.4879C17.8006 18.4406 17.8654 18.3768 17.9138 18.301C17.9622 18.2253 17.9928 18.1396 18.0035 18.0504C18.0044 18.0467 18.0047 18.0429 18.0041 18.0392C18.0036 18.0354 18.0023 18.0318 18.0004 18.0285C17.9985 18.0253 17.996 18.0224 17.9929 18.0202C17.9899 18.0179 17.9865 18.0162 17.9828 18.0153C17.9791 18.0143 17.9753 18.0141 17.9716 18.0146C17.9678 18.0152 17.9642 18.0164 17.961 18.0184C17.9577 18.0203 17.9549 18.0228 17.9526 18.0259C17.9503 18.0289 17.9486 18.0323 17.9477 18.036C17.8748 18.1688 17.7688 18.2804 17.6399 18.36ZM9.5723 4.47838C10.0349 6.02458 11.6711 5.94898 11.8619 6.06418C11.8619 6.08218 12.2363 7.52398 12.3875 7.72198C12.4721 7.83178 12.6755 7.78858 12.8105 7.76338C13.1273 7.70038 13.4945 7.68058 13.7627 7.46638C13.8311 7.41058 13.7915 7.18378 13.7735 7.10638C13.7162 6.78273 13.6368 6.46338 13.5359 6.15058C13.4962 6.05621 13.4625 5.95941 13.4351 5.86078C13.5593 5.75075 13.6944 5.65364 13.8383 5.57098C14.0758 5.40918 14.2871 5.21189 14.4647 4.98598C14.8084 4.48248 14.9638 3.874 14.9035 3.26735C14.8433 2.66071 14.5713 2.09467 14.1353 1.66858C12.8015 0.359981 10.3895 0.786581 9.6065 2.43718C9.3383 3.00958 9.3905 3.87718 9.5723 4.47838ZM13.6799 7.37998C13.4405 7.57258 13.0877 7.59778 12.7799 7.66078C12.6971 7.67878 12.5009 7.72738 12.4487 7.66078C12.3469 7.51376 12.2736 7.3489 12.2327 7.17478C12.699 7.10907 13.155 6.98448 13.5899 6.80398C13.6487 6.99035 13.6791 7.18454 13.6799 7.37998ZM13.5701 6.73018C13.1102 6.8159 12.6585 6.94116 12.2201 7.10458C12.1736 6.89567 12.1135 6.69003 12.0401 6.48898C12.5052 6.44027 12.9613 6.32761 13.3955 6.15418C13.4681 6.34446 13.5283 6.53927 13.5755 6.73738L13.5701 6.73018ZM9.7199 2.49298C10.4741 0.934181 12.7799 0.539981 14.0399 1.77298C14.4494 2.17467 14.7056 2.7069 14.7641 3.27755C14.8226 3.8482 14.6798 4.42135 14.3603 4.89778C14.0489 5.33698 13.4189 5.63938 13.3217 5.79778C13.2875 5.85358 13.3505 5.99578 13.3901 6.09658C13.1849 6.13618 12.9599 6.18478 12.7583 6.22978C12.7043 5.98318 12.4523 4.98778 12.3587 4.75378C12.3227 4.66018 12.2903 4.66738 12.1949 4.69438C11.6693 4.69438 11.0915 4.56118 10.9061 4.06618C10.8837 4.00816 10.868 3.94777 10.8593 3.88618C10.8341 3.62698 11.0393 3.32458 11.2661 3.34618C11.2337 3.54418 11.2661 3.92218 11.4353 4.03558C11.6045 4.14898 11.7953 3.96898 11.7953 3.80698C11.7857 3.69016 11.7477 3.57745 11.6847 3.47864C11.6216 3.37983 11.5354 3.2979 11.4335 3.23998C11.4618 3.17572 11.5037 3.11838 11.5564 3.07194C11.6091 3.0255 11.6712 2.99107 11.7385 2.97104C11.8058 2.95101 11.8766 2.94585 11.9461 2.95592C12.0156 2.96599 12.0821 2.99106 12.1409 3.02938C11.9987 3.30658 12.1409 3.94198 12.3929 3.79258C12.6449 3.64318 12.5621 3.27598 12.4055 3.07258C12.3299 2.97358 12.3137 3.00058 12.3515 2.97178C12.6449 2.75758 12.9779 3.00598 13.1183 3.33178C13.3199 3.77998 12.8879 4.33258 12.6143 4.49998C12.6076 4.50404 12.6028 4.51058 12.601 4.51818C12.5991 4.52578 12.6003 4.5338 12.6044 4.54048C12.6085 4.54716 12.615 4.55196 12.6226 4.55382C12.6302 4.55568 12.6382 4.55444 12.6449 4.55038C12.9797 4.35418 13.4027 3.77638 13.2101 3.29038C13.0175 2.80438 12.5333 2.61718 12.2273 2.90698C12.1503 2.85411 12.0623 2.81921 11.97 2.80484C11.8777 2.79046 11.7833 2.79699 11.6938 2.82394C11.6043 2.85088 11.522 2.89756 11.453 2.96053C11.384 3.0235 11.3299 3.10116 11.2949 3.18778C10.9601 3.14458 10.6775 3.53518 10.7153 3.88978C10.7356 4.04651 10.7949 4.19565 10.8876 4.32362C10.9804 4.45158 11.1037 4.55429 11.2463 4.62238C11.4155 4.70338 12.0167 4.85098 12.2543 4.78258C12.3371 4.96258 12.6377 6.01918 12.6917 6.24058C11.8925 6.42058 12.0545 6.50518 12.0149 6.38818C11.9681 6.24238 11.9393 6.02818 11.8997 6.01378C10.9061 5.78878 10.0097 5.62318 9.6749 4.44418C9.5111 3.87358 9.4679 3.02758 9.7199 2.49298ZM11.3903 3.38218C11.4585 3.43058 11.5155 3.49308 11.5574 3.56544C11.5994 3.6378 11.6252 3.71834 11.6333 3.80158C11.6333 3.85018 11.5235 3.98158 11.4533 3.83758C11.3996 3.69218 11.3805 3.53625 11.3975 3.38218H11.3903ZM12.2399 3.10678C12.3839 3.24718 12.4739 3.57478 12.3173 3.67018C12.263 3.58807 12.2279 3.49481 12.2145 3.39729C12.2011 3.29977 12.2098 3.20049 12.2399 3.10678ZM6.8399 9.97738C7.5725 9.74878 8.4599 9.94678 8.8019 10.7568C9.3941 12.1284 7.8281 12.8268 7.8443 12.8988C7.8803 13.0788 7.9451 13.3938 7.9721 13.5756C7.97425 13.5909 7.98238 13.6047 7.9947 13.6139C8.00702 13.6232 8.02252 13.6272 8.0378 13.6251C8.05308 13.6229 8.06687 13.6148 8.07616 13.6025C8.08544 13.5902 8.08945 13.5747 8.0873 13.5594C8.0657 13.3794 8.0423 13.1202 8.0171 12.933C8.2716 12.8309 8.50709 12.6867 8.7137 12.5064C9.9845 11.007 8.5661 9.11518 6.7535 9.70738C6.46649 9.79107 6.21263 9.96202 6.02717 10.1965C5.84171 10.431 5.73383 10.7174 5.7185 11.016C5.6609 11.7252 6.2261 12.3372 7.1387 12.258C7.15246 12.2556 7.16492 12.2484 7.1739 12.2377C7.18288 12.227 7.1878 12.2134 7.1878 12.1995C7.1878 12.1855 7.18288 12.172 7.1739 12.1613C7.16492 12.1506 7.15246 12.1434 7.1387 12.141C6.3287 12.1824 5.8949 11.601 5.9723 11.043C5.99023 10.7978 6.08308 10.5641 6.23827 10.3735C6.39346 10.1829 6.60349 10.0446 6.8399 9.97738ZM20.2841 5.28118C20.2994 5.28524 20.3156 5.28306 20.3293 5.27513C20.343 5.2672 20.3529 5.25416 20.357 5.23888C20.3611 5.2236 20.3589 5.20734 20.3509 5.19367C20.343 5.18 20.33 5.17004 20.3147 5.16598C19.5353 4.94638 19.3103 4.25698 19.5623 3.75118C19.6604 3.52528 19.8257 3.33503 20.0356 3.20623C20.2456 3.07743 20.49 3.01632 20.7359 3.03118C22.0895 3.06538 22.6835 4.31098 22.1759 5.20018C21.8393 5.80858 21.3893 5.97238 20.8133 6.04798C20.7951 6.05054 20.7782 6.05895 20.7653 6.07194C20.7523 6.08493 20.7439 6.10179 20.7413 6.11998C20.7215 6.28558 20.6783 6.61138 20.6459 6.80038C20.6428 6.81542 20.6458 6.83107 20.6542 6.8439C20.6627 6.85673 20.6759 6.86568 20.6909 6.86878C20.7059 6.87188 20.7216 6.86889 20.7344 6.86045C20.7472 6.85201 20.7562 6.83882 20.7593 6.82378C20.8007 6.62938 20.8565 6.40078 20.8943 6.20818C21.1678 6.19347 21.4367 6.13261 21.6899 6.02818C22.3001 5.66818 22.6709 5.09938 22.6223 4.37938C22.5089 2.68918 20.0429 2.08438 19.3337 3.65938C19.0583 4.30018 19.3931 5.07958 20.2841 5.28118ZM30.2849 13.7268C30.2643 13.3931 30.1453 13.0731 29.9429 12.807C29.7482 12.5879 29.5108 12.4111 29.2452 12.2872C28.9796 12.1634 28.6914 12.0953 28.3985 12.087C28.1003 12.0732 27.8052 12.1523 27.554 12.3136C27.3028 12.4748 27.1079 12.7101 26.9963 12.987C26.7137 13.6404 27.0539 14.4018 27.9413 14.6178C27.9492 14.6213 27.9578 14.6231 27.9665 14.623C27.9751 14.6229 27.9837 14.6209 27.9915 14.6171C27.9993 14.6133 28.0062 14.6079 28.0117 14.6012C28.0172 14.5945 28.0211 14.5866 28.0233 14.5782C28.0254 14.5698 28.0257 14.5611 28.024 14.5525C28.0224 14.544 28.019 14.536 28.0139 14.5289C28.0088 14.5219 28.0023 14.516 27.9947 14.5118C27.9872 14.5076 27.9787 14.505 27.9701 14.5044C27.1961 14.2704 26.9657 13.6044 27.2195 13.0896C27.3176 12.8637 27.4829 12.6734 27.6928 12.5446C27.9028 12.4158 28.1472 12.3547 28.3931 12.3696C28.6427 12.3765 28.8884 12.434 29.1151 12.5386C29.3419 12.6432 29.5451 12.7926 29.7125 12.978C29.8811 13.198 29.9813 13.4628 30.0005 13.7394C30.1283 15.327 28.4183 15.3324 28.4021 15.4584C28.3805 15.6384 28.3409 15.9552 28.3067 16.1388C28.3036 16.1538 28.3066 16.1695 28.315 16.1823C28.3235 16.1951 28.3367 16.2041 28.3517 16.2072C28.3667 16.2103 28.3824 16.2073 28.3952 16.1988C28.408 16.1904 28.417 16.1772 28.4201 16.1622C28.4633 15.9696 28.5173 15.7392 28.5551 15.5466C28.829 15.5312 29.0985 15.4704 29.3525 15.3666C29.9537 15.0138 30.3335 14.454 30.2849 13.7268ZM8.7731 14.94C8.8505 14.6196 8.6183 14.283 8.3879 14.31C8.23847 14.2938 8.088 14.2896 7.9379 14.2974C7.5473 14.391 7.3637 14.9022 7.7309 15.1524C8.1521 15.4332 8.6975 15.2388 8.7731 14.94ZM8.4941 14.904C8.43018 14.9573 8.35188 14.9905 8.2691 14.9994C7.7795 15.0678 7.6751 14.6394 8.0045 14.499L8.3915 14.427C8.5589 14.4414 8.5967 14.7996 8.4941 14.895V14.904ZM20.4965 7.48798C20.0771 7.33498 19.6235 7.80838 19.9205 8.20798C20.2175 8.60758 20.8061 8.60758 20.9753 8.34118C21.1445 8.07478 21.0419 7.67158 20.8151 7.62118C20.7953 7.61218 20.6387 7.54018 20.4965 7.48798ZM20.7233 8.20798C20.6428 8.23538 20.5565 8.2415 20.473 8.22573C20.3894 8.20996 20.3113 8.17284 20.2463 8.11798C20.1931 8.07978 20.1494 8.02991 20.1185 7.97218C20.0663 7.82638 20.2535 7.67698 20.3903 7.66798L20.7791 7.72378C20.9303 7.80478 20.8547 8.15758 20.7233 8.21338V8.20798ZM28.4705 16.9704C28.4345 16.9542 28.2491 16.8768 28.1537 16.8408C27.7325 16.6878 27.2807 17.1612 27.5777 17.5608C27.8747 17.9604 28.4615 17.9604 28.6325 17.694C28.8035 17.4276 28.6991 17.0208 28.4705 16.9704ZM28.3787 17.5662C28.2982 17.5934 28.212 17.5994 28.1284 17.5837C28.0449 17.5679 27.9668 17.5309 27.9017 17.4762C27.849 17.4368 27.8054 17.3864 27.7739 17.3286C27.7235 17.1846 27.9089 17.0352 28.0457 17.0262L28.4345 17.082C28.5857 17.1576 28.5101 17.5086 28.3787 17.5662Z" fill="black"/>
<path fill-rule="evenodd" clip-rule="evenodd" d="M26.9998 26.8996C26.6398 25.1284 25.2395 22.3996 23.5583 21.703L23.2198 20.9956C23.2174 20.9905 23.2139 20.9859 23.2096 20.9823C23.2053 20.9786 23.2002 20.9759 23.1947 20.9744C23.1893 20.9728 23.1836 20.9725 23.1779 20.9734C23.1723 20.9742 23.167 20.9763 23.1622 20.9794L22.8022 21.2116C22.6879 20.4476 22.3388 19.738 21.8032 19.1812C22.1776 18.6034 22.777 18.427 23.3962 18.4C23.9092 18.3784 24.2872 18.3478 24.5842 17.9086C25.1728 17.041 25.0343 16.195 24.3431 15.3886C23.2901 14.161 22.876 14.5282 22.363 13.8496C21.3874 12.5752 21.166 10.6906 19.7296 9.70962C17.8936 8.46582 16.9036 9.46842 16.5184 9.77802C15.955 9.43602 14.6986 9.55482 14.1586 10.0174C13.6996 10.4098 13.0912 10.9174 12.8554 11.4844C12.3532 12.6814 12.4072 14.098 11.6728 15.1834C11.4928 15.4534 11.185 15.6352 10.9672 15.8908C10.6683 16.2656 10.414 16.674 10.2094 17.1076C9.94305 17.6116 9.73965 18.1714 9.98265 18.6934C10.3084 19.3918 11.0374 20.0578 11.815 20.0074C12.265 19.9768 12.8608 19.7068 13.2838 19.885C13.5359 19.9894 13.633 20.2324 13.8238 20.4358C14.2558 20.9164 15.2638 21.0622 15.8218 20.7292C15.208 21.5104 14.272 21.4834 12.6394 22.3834C10.1338 23.7622 9.21945 25.3282 8.95125 26.932C8.84865 27.431 8.77294 27.9351 8.72445 28.4422C8.56965 31.0576 9.36345 34.3732 11.9374 34.9222C12.643 35.0734 13.4512 35.1706 14.1496 34.996C15.4726 34.6666 17.0512 33.7756 18.2104 33.052C18.7504 32.7154 20.7484 31.3672 21.6772 31.1908C21.7332 31.6712 21.8543 32.1417 22.0372 32.5894C22.7806 34.1176 23.9704 35.0212 25.6372 34.6288C26.7172 34.375 27.025 33.2248 27.0539 32.1232C27.5956 30.9604 27.1654 27.7456 26.9998 26.8996ZM20.7718 18.472C21.0922 18.5314 21.3118 18.832 21.5494 19.0768C22.1776 19.705 22.6096 20.3782 22.7392 21.2368C22.219 21.568 21.8806 21.7768 21.8734 21.7876C21.8662 21.7984 21.616 21.1612 21.4648 21.0838C21.2386 20.9715 21.0334 20.8211 20.8582 20.6392C20.7232 20.4898 20.5576 20.227 20.5792 20.029C20.6749 19.9781 20.7794 19.9457 20.887 19.9336V19.822C20.3308 19.8382 20.14 20.3458 20.0896 20.4592C20.0536 20.5402 20.0032 20.6212 19.888 20.6086C19.7728 20.596 19.7314 20.4628 19.7746 20.344C19.8178 20.2252 19.9222 19.7032 20.6584 19.5898C20.6677 19.5885 20.6765 19.5854 20.6846 19.5807C20.6926 19.576 20.6996 19.5697 20.7052 19.5623C20.7108 19.5548 20.7149 19.5464 20.7172 19.5373C20.7195 19.5283 20.72 19.5189 20.7188 19.5097C20.7175 19.5005 20.7143 19.4916 20.7096 19.4836C20.7049 19.4756 20.6986 19.4686 20.6912 19.463C20.6838 19.4574 20.6753 19.4533 20.6663 19.451C20.6573 19.4486 20.6479 19.4481 20.6386 19.4494C20.4846 19.469 20.3352 19.5159 20.1976 19.588C20.074 19.6484 19.9642 19.7338 19.8753 19.8389C19.7863 19.9439 19.7202 20.0663 19.681 20.1982C19.5946 20.4448 19.2922 20.335 19.3642 20.1226C19.4367 19.916 19.5445 19.7235 19.6828 19.5538C19.8365 19.4074 20.021 19.2973 20.2228 19.2316C20.3812 19.1668 20.5162 19.1974 20.5522 19.1452C20.5882 19.093 20.5036 18.9184 20.4604 18.8662C20.2282 18.589 19.5604 18.8284 19.3048 18.5188C19.141 18.3154 19.4848 18.3082 19.6234 18.2902C20.0122 18.247 20.3812 18.3982 20.7718 18.472ZM21.4324 22.9324C20.9179 23.1001 20.393 23.2342 19.861 23.3338C20.041 22.3096 20.1634 21.4312 20.1454 21.1126C20.5648 21.1936 21.0454 21.2512 21.571 21.3376C21.7132 21.5734 21.7906 21.7714 21.8248 21.8272L21.4756 22.0486C21.4576 22.072 21.4612 21.9748 21.4324 22.9324ZM19.4776 28.1326C19.5574 28.4783 19.6139 28.8288 19.6468 29.182C18.9088 29.1352 18.3454 29.1442 18.0682 29.1334C18.079 28.6276 18.0844 28.471 18.0934 28.3648C18.5477 28.2497 19.0107 28.172 19.4776 28.1326ZM16.6462 23.6992C17.6674 23.7065 18.6872 23.6234 19.6936 23.4508C19.3732 25.1788 18.8854 27.256 18.655 27.6718C18.1258 26.2282 18.1798 26.2228 16.6462 23.6992ZM18.8062 27.6484C19.0978 26.995 19.5406 25.0456 19.8358 23.422C20.3731 23.3213 20.903 23.1842 21.4216 23.0116C21.3658 24.9556 21.3496 27.382 21.4667 29.3314C21.1247 29.3008 20.6278 29.2576 20.1454 29.2198C20.1148 28.9282 19.9942 27.913 19.8916 27.6466C19.8646 27.5746 19.8322 27.5458 19.7116 27.5422C19.4106 27.5554 19.111 27.5909 18.8152 27.6484H18.8062ZM19.4488 20.7814C19.2665 20.6748 19.1209 20.5154 19.0312 20.3242C19.1146 20.3594 19.2015 20.3853 19.2904 20.4016C19.3242 20.4396 19.3677 20.4676 19.4163 20.4825C19.4649 20.4974 19.5166 20.4987 19.5658 20.4862C19.6468 20.461 19.5946 20.4502 19.6378 20.5636C19.6544 20.6093 19.6824 20.65 19.7191 20.6819C19.7557 20.7138 19.7999 20.7358 19.8475 20.7459C19.895 20.756 19.9443 20.7538 19.9908 20.7395C20.0373 20.7253 20.0793 20.6994 20.113 20.6644C20.1832 20.6014 20.1886 20.5258 20.2732 20.3638C20.356 20.3476 20.437 20.326 20.5162 20.3026C20.7304 20.8642 21.4018 21.136 21.4487 21.1774C20.6585 21.0604 19.9582 20.9866 19.4578 20.7814H19.4488ZM15.9982 20.5654C16.4302 20.065 16.342 19.7068 15.8974 19.3522C14.9974 18.6466 15.109 18.8356 14.731 18.0472C14.2864 16.7674 14.6698 14.7514 14.9992 13.4392C15.0892 13.0792 15.703 12.694 16.1494 12.7516C16.7686 12.8308 16.5094 13.1566 17.0386 13.342C17.1305 13.3689 17.2256 13.3834 17.3212 13.3852C17.3269 13.387 17.3329 13.3876 17.3388 13.3871C17.3447 13.3866 17.3505 13.3849 17.3557 13.3821C17.361 13.3794 17.3657 13.3756 17.3695 13.371C17.3733 13.3665 17.3762 13.3612 17.3779 13.3555C17.3797 13.3498 17.3804 13.3439 17.3798 13.338C17.3793 13.332 17.3776 13.3263 17.3748 13.321C17.3721 13.3158 17.3683 13.3111 17.3638 13.3073C17.3592 13.3035 17.3539 13.3006 17.3482 13.2988C17.0675 13.1304 16.8087 12.9279 16.5778 12.6958C16.6876 12.2476 16.9666 12.0028 17.4904 11.9992C17.8504 11.9992 18.1348 12.2728 18.3904 12.5068C18.7 12.7894 19.033 13.5526 19.0078 13.972C18.9509 14.458 19.0648 14.9486 19.33 15.3598C19.51 15.673 19.8484 15.9448 20.05 16.2094C20.1616 16.357 20.0968 17.0158 20.032 17.3056C19.9474 17.5594 19.7674 18.0436 19.726 18.1534C18.9736 18.1804 19.006 18.5836 19.366 18.7564C19.0294 19.1596 18.2068 19.6078 18.7954 20.173C18.9214 20.4376 19.123 20.7994 19.393 20.9092C19.5846 20.9869 19.7828 21.0471 19.9852 21.0892C20.0248 21.3682 19.8952 22.2916 19.6972 23.3662C18.6642 23.5381 17.6178 23.617 16.5706 23.602C15.9208 22.5382 15.2746 21.5302 15.1108 21.3682C15.4745 21.1833 15.7835 20.9066 16.0072 20.5654H15.9982ZM14.7706 21.514C15.1306 21.379 14.9506 21.4024 15.037 21.469C15.1234 21.5356 15.7174 22.477 16.4068 23.5948C15.5896 23.5822 14.6698 23.521 14.3224 23.4814C14.4268 23.3986 14.1568 21.9766 14.0524 21.7966C14.3134 21.6922 14.5546 21.6004 14.7796 21.514H14.7706ZM13.9192 21.8524C14.0673 22.3824 14.1678 22.9246 14.2198 23.4724C13.4432 23.3611 12.6813 23.1637 11.9482 22.8838C12.5764 22.482 13.239 22.1369 13.9282 21.8524H13.9192ZM14.083 34.8664C13.408 35.0356 12.6178 34.9366 11.9374 34.7908C10.8736 34.5622 10.1374 33.8512 9.65865 32.9404C8.89725 31.5004 8.67045 29.3602 8.90265 27.8608C8.94945 27.5602 9.00885 27.2632 9.05925 26.9608C9.34545 25.2454 10.3876 23.953 11.842 22.9756C13.2694 23.4994 14.2288 23.683 16.4716 23.6956C18.025 26.2156 18.0592 26.4676 18.5038 27.7006C18.367 27.7258 17.7334 27.8536 17.6254 27.9418C17.5822 27.976 17.5822 28.0444 17.6254 29.1262C15.9874 29.1586 14.3854 29.4142 12.8788 30.3862C12.6988 29.0884 12.9058 28.696 13.3252 27.9526C13.984 26.7844 13.8652 26.5684 13.4494 25.9042C13.3809 25.8146 13.3319 25.7115 13.3054 25.6018C13.3054 25.5586 13.1254 25.4992 13.3792 25.9456C13.7392 26.6008 13.8364 26.7556 13.1992 27.8806C12.733 28.705 12.5422 29.128 12.823 30.424C12.697 30.5086 12.553 30.604 12.4144 30.7156C12.2027 30.8647 12.004 31.0315 11.8204 31.2142C11.8169 31.2211 11.8162 31.2292 11.8185 31.2366C11.8209 31.2441 11.8261 31.2502 11.833 31.2538C11.84 31.2574 11.848 31.2581 11.8555 31.2557C11.8629 31.2534 11.8691 31.2481 11.8726 31.2412C11.9284 31.1422 12.859 30.5212 13.1092 30.3934C14.506 29.6896 16.0504 29.0812 18.5794 29.2486C18.5476 30.3187 18.6584 31.3883 18.9088 32.4292C17.6092 33.25 15.7624 34.4488 14.092 34.8664H14.083ZM19.0204 32.3572C18.7892 31.3421 18.687 30.3019 18.7162 29.2612C21.4486 29.4412 20.5919 29.3836 21.4739 29.4412C21.5062 29.9668 21.5548 30.5374 21.6268 31.0612C20.9212 31.1926 19.6522 31.9666 19.0294 32.3572H19.0204ZM25.5616 34.4992C23.9722 34.8754 22.8436 34.0078 22.1272 32.539C21.3352 30.919 21.4667 23.8828 21.5117 22.09L23.1568 21.0712C25.378 25.8682 25.6444 26.3218 26.143 27.9112C26.7875 29.9362 27.637 34.0204 25.5706 34.4992H25.5616ZM27.0125 31.7452C26.9708 30.7814 26.8222 29.8251 26.5696 28.894C25.9991 26.6746 25.3816 25.5622 23.6734 21.9712L23.7238 21.9442C25.2323 22.7506 26.5102 25.2544 26.845 26.9266C27.0286 27.7996 27.3796 30.6544 27.0214 31.7452H27.0125Z" fill="black" stroke="black"/>
</svg>
