<svg width="38" height="38" viewBox="0 0 38 38" fill="none" xmlns="http://www.w3.org/2000/svg">
<path d="M26.6 11.5354C26.546 11.602 26.4883 11.6654 26.4271 11.7254C26.4206 11.7333 26.4164 11.7428 26.4151 11.753C26.4138 11.7631 26.4155 11.7734 26.4199 11.7826C26.4243 11.7918 26.4313 11.7996 26.44 11.8049C26.4487 11.8103 26.4587 11.813 26.4689 11.8128C26.6893 11.6777 26.8635 11.479 26.9686 11.2428C26.9952 11.163 26.8717 11.0908 26.8318 11.1782C26.7273 11.4081 26.3321 11.4214 26.2276 11.3853C26.2133 11.38 26.1974 11.3807 26.1835 11.3871C26.1696 11.3935 26.1588 11.4052 26.1535 11.4195C26.1482 11.4339 26.1489 11.4498 26.1553 11.4637C26.1617 11.4776 26.1734 11.4883 26.1877 11.4936C26.32 11.5394 26.4612 11.5537 26.6 11.5354ZM25.9103 10.5664C25.8209 10.646 25.7263 10.7197 25.6272 10.7868C25.6086 10.7989 25.5934 10.8155 25.5831 10.8352C25.5728 10.8548 25.5677 10.8768 25.5683 10.8989C25.5683 10.9673 25.8077 11.1459 25.8096 11.1478C25.8197 11.1553 25.8321 11.159 25.8446 11.1582C25.8571 11.1575 25.8689 11.1523 25.878 11.1437C25.8871 11.1351 25.8928 11.1235 25.8942 11.1111C25.8956 11.0986 25.8926 11.0861 25.8856 11.0756C25.8723 11.0509 25.7963 10.9578 25.7488 10.8951C25.9635 10.6804 26.0604 10.6101 25.9882 10.5569C25.9761 10.5494 25.9618 10.5463 25.9476 10.548C25.9334 10.5497 25.9203 10.5562 25.9103 10.5664ZM25.745 10.4505C25.821 10.4163 25.802 10.3289 25.8932 10.1009C25.8968 10.0927 25.8988 10.0838 25.899 10.0748C25.8992 10.0659 25.8976 10.0569 25.8943 10.0485C25.8911 10.0402 25.8862 10.0325 25.88 10.026C25.8738 10.0195 25.8663 10.0143 25.8581 10.0107C25.8498 10.0071 25.841 10.0051 25.832 10.0049C25.823 10.0047 25.8141 10.0063 25.8057 10.0096C25.7973 10.0128 25.7896 10.0177 25.7831 10.0239C25.7767 10.0302 25.7714 10.0376 25.7678 10.0458C25.6614 10.2681 25.5778 10.3137 25.612 10.3916C25.6162 10.4048 25.623 10.4169 25.6322 10.4271C25.6414 10.4374 25.6526 10.4456 25.6652 10.4511C25.6778 10.4567 25.6914 10.4595 25.7052 10.4594C25.719 10.4593 25.7325 10.4563 25.745 10.4505ZM26.5278 10.6918C26.6038 10.6576 26.5867 10.5683 26.676 10.3422C26.6833 10.3256 26.6837 10.3068 26.6771 10.2898C26.6706 10.2729 26.6575 10.2593 26.6409 10.252C26.6243 10.2447 26.6054 10.2443 26.5885 10.2509C26.5715 10.2575 26.5579 10.2705 26.5506 10.2871C26.4632 10.4771 26.3606 10.5569 26.3929 10.6329C26.3973 10.6461 26.4044 10.6583 26.4137 10.6685C26.4231 10.6788 26.4345 10.687 26.4472 10.6925C26.4599 10.6981 26.4737 10.7009 26.4876 10.7008C26.5015 10.7007 26.5152 10.6976 26.5278 10.6918ZM11.0371 7.48844C10.9459 6.81014 10.963 6.79494 10.9041 6.79494C7.58293 6.79494 7.75963 6.77214 7.75963 6.84244V7.47134C7.75963 7.49794 7.78053 7.53024 7.80713 7.53024C11.1682 7.54164 11.0485 7.56064 11.0371 7.48844ZM12.0992 6.79494C11.191 6.79494 11.2442 6.79494 11.2233 6.81014C11.2024 6.82534 11.2062 6.79684 11.2936 7.49984C11.2936 7.55874 11.3031 7.54164 12.0992 7.54164C12.1118 7.54164 12.1239 7.53663 12.1328 7.52772C12.1417 7.51882 12.1467 7.50673 12.1467 7.49414V6.84054C12.1462 6.82827 12.141 6.81667 12.1322 6.80817C12.1233 6.79967 12.1115 6.79493 12.0992 6.79494ZM28.5532 6.80634L27.3486 6.88994C27.3427 6.88993 27.3369 6.89112 27.3315 6.89344C27.326 6.89575 27.3211 6.89914 27.317 6.9034C27.313 6.90766 27.3098 6.91271 27.3077 6.91823C27.3056 6.92375 27.3047 6.92964 27.3049 6.93554V7.65374C27.3049 7.66633 27.3099 7.67842 27.3188 7.68732C27.3277 7.69623 27.3398 7.70124 27.3524 7.70124H28.5551C28.5677 7.70124 28.5798 7.69623 28.5887 7.68732C28.5976 7.67842 28.6026 7.66633 28.6026 7.65374C28.6026 6.84054 28.6235 6.80444 28.5532 6.80634ZM8.38473 10.1883V9.62784C8.38473 9.61524 8.37973 9.60316 8.37082 9.59425C8.36191 9.58534 8.34983 9.58034 8.33723 9.58034H7.87173C7.85913 9.58034 7.84705 9.58534 7.83814 9.59425C7.82923 9.60316 7.82423 9.61524 7.82423 9.62784C7.82423 10.2567 7.82423 10.2263 7.83943 10.2453C7.85463 10.2643 7.83943 10.2605 8.33913 10.2358C8.35124 10.2349 8.36259 10.2296 8.371 10.2208C8.37941 10.212 8.3843 10.2005 8.38473 10.1883ZM11.0979 9.45304C8.49873 9.58794 8.59563 9.55944 8.59563 9.62784C8.59563 10.2092 8.59563 10.1807 8.60893 10.1978C8.62223 10.2149 8.47593 10.213 11.0998 10.175C11.1124 10.175 11.1245 10.17 11.1334 10.1611C11.1423 10.1522 11.1473 10.1401 11.1473 10.1275V9.50054C11.1476 9.49406 11.1465 9.48759 11.1441 9.48157C11.1417 9.47554 11.1381 9.4701 11.1334 9.4656C11.1287 9.46111 11.1231 9.45766 11.117 9.4555C11.1109 9.45333 11.1044 9.45249 11.0979 9.45304ZM14.9511 9.45114V10.0021C14.9511 10.0147 14.9561 10.0268 14.965 10.0357C14.9739 10.0446 14.986 10.0496 14.9986 10.0496C15.6522 10.0496 15.6199 10.0496 15.6408 10.0325C15.6617 10.0154 15.6579 10.0325 15.5724 9.44354C15.5724 9.38654 15.5439 9.40364 15.0024 9.40364C14.9959 9.40311 14.9893 9.40395 14.9831 9.4061C14.9769 9.40825 14.9712 9.41167 14.9664 9.41613C14.9615 9.4206 14.9577 9.42601 14.9551 9.43204C14.9525 9.43806 14.9511 9.44457 14.9511 9.45114ZM17.7498 10.0401C17.7707 10.0154 17.765 10.0401 17.6985 9.48154C17.6985 9.42264 17.7935 9.44354 15.9296 9.40934C15.9229 9.40929 15.9162 9.41068 15.91 9.41341C15.9039 9.41615 15.8983 9.42017 15.8939 9.4252C15.8894 9.43023 15.886 9.43617 15.884 9.44261C15.8819 9.44904 15.8813 9.45584 15.8821 9.46254C15.9543 10.0553 15.941 10.0553 15.998 10.0553C17.86 10.0553 17.7289 10.0705 17.7498 10.0401ZM18.0956 10.0496C18.905 10.0724 18.8556 10.0762 18.8765 10.0496C18.8974 10.023 18.8917 10.0629 18.8917 9.44544C18.8912 9.43267 18.8858 9.42059 18.8766 9.41173C18.8674 9.40287 18.8551 9.39793 18.8423 9.39794C17.9607 9.43214 18.012 9.42264 17.993 9.44544C17.974 9.46824 17.9797 9.44544 18.05 10.0021C18.0508 10.0141 18.0559 10.0255 18.0642 10.0342C18.0725 10.0429 18.0837 10.0483 18.0956 10.0496ZM8.58613 12.4778C8.69823 11.7748 8.69823 11.8128 8.67733 11.79C8.65643 11.7672 8.68873 11.771 8.02373 11.8071C8.0118 11.8081 8.00068 11.8135 7.99257 11.8223C7.98447 11.8311 7.97999 11.8427 7.98003 11.8546V12.512C7.98003 12.5246 7.98503 12.5367 7.99394 12.5456C8.00285 12.5545 8.01493 12.5595 8.02753 12.5595L8.55003 12.5177C8.5595 12.5158 8.5681 12.5109 8.57459 12.5037C8.58108 12.4965 8.58512 12.4875 8.58613 12.4778ZM9.47533 12.436C9.47533 11.7463 9.47533 11.7843 9.46013 11.7634C9.44493 11.7425 9.47153 11.7501 8.94523 11.7729C8.89013 11.7729 8.90153 11.7729 8.82743 12.4303C8.82662 12.437 8.82725 12.4438 8.82927 12.4503C8.83129 12.4567 8.83466 12.4626 8.83915 12.4677C8.84365 12.4727 8.84916 12.4767 8.85533 12.4795C8.8615 12.4822 8.86818 12.4836 8.87493 12.4835H9.42783C9.44043 12.4835 9.45251 12.4785 9.46142 12.4696C9.47033 12.4607 9.47533 12.4486 9.47533 12.436ZM10.4253 11.7387C10.4253 12.4265 10.4253 12.3885 10.4386 12.4094C10.4519 12.4303 10.1707 12.4398 15.1031 12.1681C15.1097 12.1677 15.1162 12.1659 15.122 12.1628C15.1279 12.1597 15.1331 12.1554 15.1372 12.1503C15.1413 12.1451 15.1443 12.1391 15.1459 12.1327C15.1476 12.1263 15.1479 12.1196 15.1468 12.113L15.0252 11.3378C15.0234 11.3259 15.017 11.3152 15.0075 11.3077C14.9979 11.3003 14.9859 11.2968 14.9739 11.2979C10.1992 11.7197 10.4253 11.6703 10.4253 11.7387ZM16.7333 12.0465C16.7333 11.144 16.7333 11.1972 16.7181 11.1763C16.7029 11.1554 16.7846 11.1516 15.3406 11.2941C15.3277 11.296 15.316 11.3028 15.3079 11.313C15.2997 11.3233 15.2958 11.3362 15.2969 11.3492C15.4185 12.1453 15.4033 12.1491 15.4603 12.1491L16.6877 12.094C16.7 12.0935 16.7116 12.0883 16.7201 12.0795C16.7286 12.0706 16.7333 12.0588 16.7333 12.0465ZM17.7802 11.2105V12.0237C17.7802 12.0363 17.7852 12.0484 17.7941 12.0573C17.8031 12.0662 17.8151 12.0712 17.8277 12.0712H19.038C19.0506 12.0712 19.0627 12.0662 19.0716 12.0573C19.0805 12.0484 19.0855 12.0363 19.0855 12.0237C19.0855 11.0927 19.0855 11.1554 19.0703 11.1345C19.0551 11.1136 19.1444 11.1155 17.8258 11.163C17.8136 11.1635 17.802 11.1687 17.7935 11.1776C17.785 11.1865 17.7802 11.1983 17.7802 11.2105ZM23.8564 8.85264C22.5264 8.93434 22.5701 8.90774 22.5701 8.97234V9.70764C22.5701 9.72024 22.5751 9.73232 22.584 9.74123C22.5929 9.75013 22.605 9.75514 22.6176 9.75514H23.8602C23.8728 9.75514 23.8849 9.75013 23.8938 9.74123C23.9027 9.73232 23.9077 9.72024 23.9077 9.70764C23.9077 8.90014 23.9286 8.84884 23.8564 8.85264ZM9.10103 15.0333C9.15993 14.0947 9.16183 14.1707 9.14283 14.1498C9.12383 14.1289 9.19983 14.1346 8.11303 14.1346C8.10043 14.1346 8.08835 14.1396 8.07944 14.1486C8.07053 14.1575 8.06553 14.1695 8.06553 14.1821V15.0314C8.06553 15.044 8.07053 15.0561 8.07944 15.065C8.08835 15.0739 8.10043 15.0789 8.11303 15.0789H9.05353C9.06567 15.0785 9.07722 15.0736 9.08599 15.0652C9.09475 15.0568 9.1001 15.0454 9.10103 15.0333ZM11.5995 14.0814C11.5873 14.0819 11.5757 14.0871 11.5672 14.096C11.5587 14.1049 11.5539 14.1167 11.5539 14.1289V14.849C11.5539 14.8616 11.5589 14.8737 11.5678 14.8826C11.5768 14.8915 11.5888 14.8965 11.6014 14.8965H12.35C12.3626 14.8965 12.3747 14.8915 12.3836 14.8826C12.3925 14.8737 12.3975 14.8616 12.3975 14.849V14.1004C12.397 14.0877 12.3916 14.0756 12.3824 14.0667C12.3732 14.0579 12.3609 14.0529 12.3481 14.0529L11.5995 14.0814ZM15.9904 13.9351C12.5001 14.0263 12.6787 14.0168 12.6787 14.0852C12.6787 14.8927 12.6787 14.8452 12.692 14.8661C12.7053 14.887 12.502 14.8889 15.9942 14.8053C16.0063 14.8044 16.0177 14.7991 16.0261 14.7903C16.0345 14.7815 16.0394 14.77 16.0398 14.7578V13.9826C16.0401 13.9762 16.039 13.9697 16.0366 13.9637C16.0342 13.9576 16.0306 13.9522 16.0259 13.9477C16.0212 13.9432 16.0156 13.9398 16.0095 13.9376C16.0034 13.9354 15.9969 13.9346 15.9904 13.9351ZM19.0228 13.918C18.943 14.7008 18.9411 14.6533 18.962 14.678C18.9829 14.7027 18.8613 14.6932 20.4706 14.6932C20.4785 14.694 20.4865 14.6927 20.4938 14.6896C20.5011 14.6865 20.5075 14.6816 20.5124 14.6753C20.5173 14.6691 20.5206 14.6617 20.5219 14.6539C20.5233 14.6461 20.5226 14.638 20.52 14.6305C20.3528 13.842 20.3699 13.8382 20.3129 13.8401C18.9829 13.8705 19.0285 13.8591 19.0228 13.918ZM20.8791 14.6837H21.4263C21.4383 14.6838 21.4498 14.6793 21.4586 14.6712C21.4674 14.6631 21.4729 14.652 21.4738 14.64C21.5536 13.7679 21.5555 13.823 21.5327 13.8002C21.5099 13.7774 21.5669 13.7831 20.6796 13.8363C20.6728 13.837 20.6662 13.839 20.6602 13.8425C20.6543 13.8459 20.6491 13.8506 20.6452 13.8562C20.6412 13.8618 20.6385 13.8681 20.6372 13.8749C20.6359 13.8816 20.6362 13.8886 20.6378 13.8952C20.8468 14.7065 20.8278 14.6837 20.8791 14.6837ZM13.5584 6.47194C12.8497 7.00204 12.7509 7.05334 12.7471 7.11984C12.7471 7.22054 13.1271 7.56064 13.1404 7.56444C13.151 7.57021 13.1631 7.57237 13.175 7.57059C13.1869 7.56881 13.1979 7.56318 13.2063 7.55456C13.2147 7.54595 13.2201 7.53482 13.2216 7.52288C13.223 7.51094 13.2206 7.49884 13.2145 7.48844C13.1556 7.41054 13.0112 7.21484 12.9656 7.15024C13.0587 7.05904 13.4539 6.72464 13.6401 6.58024C13.7085 6.52704 13.6268 6.42064 13.5584 6.47194ZM16.2412 6.42254C16.2295 6.41337 16.215 6.40865 16.2001 6.40923C16.1853 6.4098 16.1711 6.41562 16.1602 6.42566C16.1492 6.4357 16.1422 6.4493 16.1403 6.46404C16.1385 6.47878 16.1419 6.4937 16.15 6.50614C16.3202 6.73336 16.4745 6.97206 16.6117 7.22054C16.6117 7.23954 16.3343 7.57774 16.2222 7.75064C16.2145 7.76185 16.2114 7.77558 16.2136 7.78901C16.2157 7.80243 16.2229 7.81454 16.2336 7.82284C16.2444 7.83071 16.2574 7.83495 16.2707 7.83495C16.284 7.83495 16.297 7.83071 16.3077 7.82284C16.4141 7.71074 16.7162 7.36684 16.758 7.30224C16.872 7.11794 16.5072 6.71134 16.2412 6.42254ZM14.3583 6.55364C14.3249 6.54277 14.2895 6.53917 14.2546 6.54308C14.2196 6.54699 14.1859 6.55832 14.1557 6.57631C14.1255 6.59429 14.0994 6.61853 14.0793 6.64738C14.0592 6.67624 14.0455 6.70906 14.0391 6.74364C14.0238 6.89068 14.0174 7.03852 14.0201 7.18634H13.8301C13.8113 7.18927 13.7942 7.19882 13.7818 7.21328C13.7694 7.22774 13.7626 7.24615 13.7626 7.26519C13.7626 7.28422 13.7694 7.30263 13.7818 7.31709C13.7942 7.33155 13.8113 7.34111 13.8301 7.34404L14.0296 7.37444C14.0283 7.47617 14.0353 7.57784 14.0505 7.67844C14.0676 7.78104 14.212 7.76014 14.2234 7.66514C14.231 7.5741 14.231 7.48258 14.2234 7.39154C14.3127 7.39154 14.4001 7.39154 14.4134 7.30414C14.4267 7.21674 14.3127 7.20344 14.2234 7.19584C14.2063 6.80064 14.2462 6.74174 14.2538 6.73224C14.3051 6.69234 14.3868 6.73224 14.3108 6.85194C14.3019 6.8651 14.2986 6.88121 14.3014 6.89683C14.3042 6.91246 14.3131 6.92635 14.326 6.93554C14.4172 7.00394 14.5635 6.65054 14.3583 6.55364ZM14.9796 7.16354C14.8974 7.16922 14.8149 7.16922 14.7326 7.16354C14.7165 7.16354 14.701 7.16994 14.6896 7.18134C14.6782 7.19275 14.6718 7.20821 14.6718 7.22434C14.6718 7.24046 14.6782 7.25593 14.6896 7.26733C14.701 7.27873 14.7165 7.28514 14.7326 7.28514L14.9226 7.30984C15.0271 7.32504 14.9701 7.28324 14.9986 7.53594C14.9986 7.56264 15.0092 7.58826 15.0281 7.60714C15.047 7.62603 15.0726 7.63664 15.0993 7.63664C15.126 7.63664 15.1517 7.62603 15.1705 7.60714C15.1894 7.58826 15.2 7.56264 15.2 7.53594C15.1989 7.47241 15.1945 7.40899 15.1867 7.34594H15.295C15.3202 7.34594 15.3444 7.33593 15.3622 7.31811C15.38 7.3003 15.39 7.27613 15.39 7.25094C15.39 7.22574 15.38 7.20158 15.3622 7.18376C15.3444 7.16595 15.3202 7.15594 15.295 7.15594C15.1373 7.15594 15.1601 7.16734 15.1563 7.13694C15.1411 7.04954 15.1259 6.96024 15.1183 6.87284C15.1183 6.85671 15.1119 6.84125 15.1005 6.82985C15.0891 6.81844 15.0737 6.81204 15.0575 6.81204C15.0414 6.81204 15.0259 6.81844 15.0145 6.82985C15.0031 6.84125 14.9967 6.85671 14.9967 6.87284C14.9872 6.99444 14.9796 7.11794 14.9796 7.16354Z" fill="black"/>
<path d="M15.96 7.12526C15.9503 7.04644 15.9446 6.96717 15.9429 6.88776C15.9403 6.87324 15.9327 6.86009 15.9214 6.85061C15.9102 6.84113 15.8959 6.83594 15.8811 6.83594C15.8664 6.83594 15.8521 6.84113 15.8408 6.85061C15.8295 6.86009 15.8219 6.87324 15.8194 6.88776C15.8194 6.97326 15.808 7.05306 15.8004 7.13856C15.7276 7.14309 15.6547 7.14309 15.5819 7.13856C15.565 7.14133 15.5496 7.15002 15.5385 7.16307C15.5274 7.17612 15.5214 7.19269 15.5214 7.20981C15.5214 7.22694 15.5274 7.24351 15.5385 7.25656C15.5496 7.26961 15.565 7.2783 15.5819 7.28106C15.6522 7.28106 15.7168 7.29246 15.789 7.29816C15.7738 7.46536 15.7586 7.63446 15.8859 7.63446C16.0132 7.63446 15.998 7.46346 15.9828 7.30576C16.0873 7.30576 16.2241 7.30576 16.2203 7.20696C16.2165 7.10816 16.0702 7.11576 15.96 7.12526ZM12.0992 8.24056C11.8598 8.30326 11.7192 8.54076 11.6964 8.87326C11.6869 9.14876 11.7648 9.49836 11.5235 9.65986C11.5068 9.67107 11.4937 9.68695 11.4859 9.70554C11.4781 9.72412 11.476 9.74458 11.4798 9.76436C11.514 9.93156 11.8142 9.69216 11.7534 10.4028C11.7304 10.4931 11.731 10.5879 11.7549 10.678C11.7788 10.7681 11.8254 10.8506 11.8902 10.9177C11.9501 10.9601 12.0188 10.9883 12.0913 11.0002C12.1637 11.012 12.2379 11.0072 12.3082 10.9861C12.3213 10.9827 12.3329 10.9751 12.3411 10.9644C12.3494 10.9538 12.3539 10.9407 12.3539 10.9272C12.3539 10.9137 12.3494 10.9005 12.3411 10.8899C12.3329 10.8792 12.3213 10.8716 12.3082 10.8683C12.1771 10.8493 12.0251 10.8683 11.9567 10.7562C11.8987 10.6024 11.89 10.4344 11.932 10.2755C11.951 10.1732 11.9449 10.0679 11.9141 9.96862C11.8833 9.86931 11.8288 9.77899 11.7553 9.70546C12.0802 9.30836 11.666 8.51986 12.1353 8.36026C12.1475 8.35282 12.1569 8.34153 12.162 8.32818C12.1671 8.31482 12.1676 8.30015 12.1635 8.28647C12.1594 8.27278 12.1508 8.26085 12.1392 8.25254C12.1275 8.24423 12.1135 8.24002 12.0992 8.24056ZM14.4837 8.37546C14.3412 8.21776 14.1417 8.29376 13.9897 8.26716C13.9808 8.26529 13.9717 8.26518 13.9628 8.26685C13.9539 8.26851 13.9454 8.2719 13.9378 8.27684C13.9302 8.28178 13.9237 8.28817 13.9186 8.29564C13.9135 8.3031 13.9099 8.31151 13.908 8.32036C13.9061 8.32922 13.906 8.33836 13.9077 8.34726C13.9093 8.35616 13.9127 8.36465 13.9177 8.37223C13.9226 8.37982 13.929 8.38636 13.9365 8.39148C13.9439 8.3966 13.9523 8.40019 13.9612 8.40206C14.1208 8.43246 14.2994 8.38686 14.3659 8.53126C14.4913 8.80866 14.2044 9.52496 14.4514 9.82896C14.231 10.0969 14.4932 10.5206 14.2956 10.7125C14.2215 10.7781 14.1247 10.8121 14.0258 10.8075C14.0111 10.8049 13.9959 10.8078 13.9832 10.8156C13.9705 10.8235 13.9611 10.8358 13.9569 10.8501C13.9526 10.8645 13.9538 10.8799 13.9603 10.8934C13.9667 10.9069 13.9778 10.9176 13.9916 10.9234C14.0464 10.9411 14.1041 10.9478 14.1615 10.9432C14.2188 10.9385 14.2747 10.9226 14.3259 10.8963C14.3771 10.87 14.4226 10.8338 14.4598 10.7899C14.497 10.746 14.5251 10.6951 14.5426 10.6403C14.568 10.529 14.568 10.4134 14.5426 10.3021C14.4799 9.84796 14.6737 9.97146 14.6775 9.83656C14.6813 9.70166 14.5008 9.80616 14.5331 9.41286C14.5844 8.89796 14.6509 8.55976 14.4837 8.37546Z" fill="black"/>
<path d="M12.5723 9.13517C12.5116 9.13124 12.451 9.14404 12.397 9.17218C12.3431 9.20032 12.2979 9.24272 12.2664 9.29477C12.2217 9.33645 12.1885 9.38892 12.1698 9.44713C12.1512 9.50535 12.1478 9.56737 12.16 9.62726C12.2018 9.72067 12.2745 9.79682 12.3659 9.84285C12.4572 9.88889 12.5617 9.90199 12.6616 9.87997C12.6179 10.07 12.5666 10.1574 12.3215 10.108C12.3045 10.1069 12.2876 10.1119 12.2739 10.1221C12.2602 10.1323 12.2506 10.147 12.2467 10.1636C12.2428 10.1803 12.245 10.1977 12.2527 10.2129C12.2605 10.2281 12.2735 10.2401 12.2892 10.2467C12.5134 10.2999 12.7262 10.2467 12.7946 10.0339C13.0074 9.49997 12.7946 9.17887 12.5723 9.13517ZM12.502 9.70517C12.3785 9.66147 12.3481 9.61017 12.3386 9.57217C12.3291 9.53417 12.3557 9.46577 12.4089 9.40307C12.4621 9.34037 12.4963 9.29667 12.5495 9.31757C12.7509 9.40307 12.73 9.79067 12.502 9.71087V9.70517ZM13.4729 9.59877C13.1518 9.54177 12.9542 9.92177 13.0929 10.1004C13.1596 10.1651 13.2489 10.2014 13.3418 10.2014C13.4348 10.2014 13.524 10.1651 13.5907 10.1004C13.5907 10.1479 13.5907 10.2011 13.6021 10.2296C13.6026 10.2427 13.6078 10.2552 13.617 10.2647C13.6261 10.2742 13.6384 10.2799 13.6515 10.2809C13.6648 10.2809 13.6776 10.2757 13.6871 10.2665C13.6967 10.2573 13.7023 10.2447 13.7028 10.2315C13.7028 10.1593 13.737 9.83247 13.7294 9.80967C13.7107 9.75402 13.6767 9.70475 13.6314 9.66747C13.586 9.63018 13.5311 9.60638 13.4729 9.59877ZM13.5489 9.82867C13.5489 9.88567 13.4786 9.97687 13.4444 9.99587C13.3494 10.0472 13.2544 10.0434 13.2316 10.0092C13.2088 9.97497 13.2829 9.76407 13.3988 9.76407C13.4425 9.76407 13.5394 9.78307 13.5489 9.82867ZM24.719 6.80767C24.4435 6.75827 24.1851 7.10977 24.2934 7.40617C24.3187 7.49171 24.3733 7.56562 24.4477 7.61495C24.522 7.66428 24.6114 7.68588 24.7 7.67597C25.2244 7.62087 25.1161 6.88177 24.719 6.80767ZM24.7 7.48407C24.4587 7.54107 24.3732 7.23517 24.51 7.05847C24.5285 7.03182 24.5528 7.00975 24.5812 6.99394C24.6095 6.97813 24.641 6.96901 24.6734 6.96727C24.7189 6.97545 24.7618 6.99414 24.7987 7.02185C24.8357 7.04956 24.8656 7.08552 24.8862 7.12687C24.9088 7.19892 24.9019 7.27702 24.867 7.344C24.8321 7.41097 24.772 7.46135 24.7 7.48407ZM25.7982 6.86847C25.7811 7.00527 25.6709 7.51447 25.669 7.64747C25.6716 7.66931 25.6814 7.68967 25.6969 7.70531C25.7123 7.72096 25.7326 7.73099 25.7544 7.73383C25.7762 7.73666 25.7983 7.73214 25.8173 7.72097C25.8362 7.7098 25.8509 7.69262 25.859 7.67217C25.8894 7.53917 25.9084 7.01287 25.9236 6.88177C25.9388 6.79627 25.8096 6.78677 25.7982 6.86847ZM25.2206 7.60947C25.209 7.60607 25.1967 7.60525 25.1847 7.60707C25.1727 7.60888 25.1613 7.61329 25.1511 7.61997C25.141 7.62666 25.1325 7.63548 25.1261 7.6458C25.1197 7.65613 25.1157 7.66772 25.1142 7.67977C25.0971 7.83557 24.9109 7.88307 24.9698 7.96477C24.9779 7.9767 24.9902 7.98523 25.0042 7.98873C25.0182 7.99223 25.033 7.99047 25.0458 7.98377C25.1017 7.95842 25.1518 7.92166 25.1927 7.87585C25.2336 7.83005 25.2644 7.7762 25.2833 7.71777C25.2865 7.70654 25.2873 7.69479 25.2859 7.68322C25.2844 7.67165 25.2806 7.66049 25.2748 7.6504C25.2689 7.64031 25.2611 7.63149 25.2518 7.62446C25.2425 7.61743 25.2319 7.61233 25.2206 7.60947ZM23.8906 7.47077C23.8906 7.42844 23.8738 7.38784 23.8439 7.35791C23.8139 7.32798 23.7733 7.31117 23.731 7.31117C23.6887 7.31117 23.6481 7.32798 23.6182 7.35791C23.5882 7.38784 23.5714 7.42844 23.5714 7.47077C23.5714 7.51309 23.5882 7.55369 23.6182 7.58362C23.6481 7.61355 23.6887 7.63037 23.731 7.63037C23.7733 7.63037 23.8139 7.61355 23.8439 7.58362C23.8738 7.55369 23.8906 7.51309 23.8906 7.47077ZM19.2831 9.91607C19.2831 9.95839 19.2999 9.99899 19.3299 10.0289C19.3598 10.0589 19.4004 10.0757 19.4427 10.0757C19.485 10.0757 19.5256 10.0589 19.5556 10.0289C19.5855 9.99899 19.6023 9.95839 19.6023 9.91607C19.6023 9.87374 19.5855 9.83314 19.5556 9.80321C19.5256 9.77328 19.485 9.75647 19.4427 9.75647C19.4004 9.75647 19.3598 9.77328 19.3299 9.80321C19.2999 9.83314 19.2831 9.87374 19.2831 9.91607ZM9.69001 14.82C9.69246 14.7977 9.69018 14.7751 9.68332 14.7538C9.67646 14.7324 9.66518 14.7127 9.65021 14.696C9.63524 14.6793 9.61692 14.666 9.59644 14.6568C9.57596 14.6477 9.55379 14.643 9.53136 14.643C9.50894 14.643 9.48677 14.6477 9.46629 14.6568C9.44581 14.666 9.42749 14.6793 9.41252 14.696C9.39755 14.7127 9.38627 14.7324 9.37941 14.7538C9.37255 14.7751 9.37027 14.7977 9.37272 14.82C9.37027 14.8423 9.37255 14.8648 9.37941 14.8862C9.38627 14.9075 9.39755 14.9272 9.41252 14.9439C9.42749 14.9606 9.44581 14.9739 9.46629 14.9831C9.48677 14.9922 9.50894 14.997 9.53136 14.997C9.55379 14.997 9.57596 14.9922 9.59644 14.9831C9.61692 14.9739 9.63524 14.9606 9.65021 14.9439C9.66518 14.9272 9.67646 14.9075 9.68332 14.8862C9.69018 14.8648 9.69246 14.8423 9.69001 14.82ZM10.811 14.6851C10.811 14.7274 10.8278 14.768 10.8578 14.7979C10.8877 14.8279 10.9283 14.8447 10.9706 14.8447C11.0129 14.8447 11.0535 14.8279 11.0835 14.7979C11.1134 14.768 11.1302 14.7274 11.1302 14.6851C11.1302 14.6427 11.1134 14.6021 11.0835 14.5722C11.0535 14.5423 11.0129 14.5255 10.9706 14.5255C10.9283 14.5255 10.8877 14.5423 10.8578 14.5722C10.8278 14.6021 10.811 14.6427 10.811 14.6851ZM18.2115 14.3127C18.1719 14.317 18.1354 14.3357 18.1088 14.3654C18.0822 14.395 18.0675 14.4334 18.0675 14.4732C18.0675 14.513 18.0822 14.5514 18.1088 14.5811C18.1354 14.6107 18.1719 14.6295 18.2115 14.6338C18.2511 14.6295 18.2877 14.6107 18.3142 14.5811C18.3408 14.5514 18.3555 14.513 18.3555 14.4732C18.3555 14.4334 18.3408 14.395 18.3142 14.3654C18.2877 14.3357 18.2511 14.317 18.2115 14.3127ZM20.0678 10.0073C20.0889 10.0078 20.1099 10.004 20.1295 9.99618C20.1491 9.98834 20.1669 9.97661 20.1818 9.96168C20.1968 9.94675 20.2085 9.92895 20.2163 9.90935C20.2242 9.88975 20.2279 9.86877 20.2274 9.84767C20.2231 9.8081 20.2043 9.77151 20.1747 9.74493C20.1451 9.71836 20.1067 9.70366 20.0669 9.70366C20.0271 9.70366 19.9887 9.71836 19.959 9.74493C19.9294 9.77151 19.9106 9.8081 19.9063 9.84767C19.9058 9.86893 19.9096 9.89008 19.9176 9.90981C19.9255 9.92954 19.9374 9.94744 19.9526 9.96239C19.9677 9.97734 19.9857 9.98904 20.0055 9.99676C20.0254 10.0045 20.0466 10.008 20.0678 10.0073ZM9.82682 5.72847C9.86105 5.72447 9.89262 5.70803 9.91553 5.68229C9.93844 5.65654 9.9511 5.62328 9.9511 5.58882C9.9511 5.55435 9.93844 5.52109 9.91553 5.49534C9.89262 5.4696 9.86105 5.45317 9.82682 5.44917C9.79258 5.45317 9.76101 5.4696 9.7381 5.49534C9.71519 5.52109 9.70253 5.55435 9.70253 5.58882C9.70253 5.62328 9.71519 5.65654 9.7381 5.68229C9.76101 5.70803 9.79258 5.72447 9.82682 5.72847ZM10.5279 5.72847C10.5621 5.72447 10.5937 5.70803 10.6166 5.68229C10.6395 5.65654 10.6522 5.62328 10.6522 5.58882C10.6522 5.55435 10.6395 5.52109 10.6166 5.49534C10.5937 5.4696 10.5621 5.45317 10.5279 5.44917C10.4937 5.45317 10.4621 5.4696 10.4392 5.49534C10.4163 5.52109 10.4036 5.55435 10.4036 5.58882C10.4036 5.62328 10.4163 5.65654 10.4392 5.68229C10.4621 5.70803 10.4937 5.72447 10.5279 5.72847ZM11.286 5.72657C11.3202 5.72257 11.3518 5.70613 11.3747 5.68039C11.3976 5.65464 11.4103 5.62138 11.4103 5.58692C11.4103 5.55245 11.3976 5.51919 11.3747 5.49344C11.3518 5.4677 11.3202 5.45127 11.286 5.44727C11.2518 5.45127 11.2202 5.4677 11.1973 5.49344C11.1744 5.51919 11.1617 5.55245 11.1617 5.58692C11.1617 5.62138 11.1744 5.65464 11.1973 5.68039C11.2202 5.70613 11.2518 5.72257 11.286 5.72657ZM10.5887 13.5375C10.5937 13.5274 10.5959 13.5162 10.5953 13.505C10.5946 13.4938 10.591 13.483 10.5849 13.4736C10.5787 13.4642 10.5702 13.4565 10.5603 13.4514C10.5503 13.4463 10.5391 13.4439 10.5279 13.4444C10.4785 13.4444 10.469 13.4957 10.431 13.5698C10.1669 14.0942 9.81161 14.8048 9.78501 14.8998C9.77794 14.9199 9.77881 14.9419 9.78746 14.9614C9.7961 14.9809 9.81186 14.9963 9.83152 15.0046C9.85118 15.0128 9.87324 15.0133 9.8932 15.0058C9.91317 14.9983 9.92952 14.9835 9.93892 14.9644C10.0054 14.8599 10.5222 13.6648 10.5887 13.5375ZM11.1264 13.3627C11.1208 13.3528 11.1126 13.3446 11.1028 13.3389C11.0929 13.3332 11.0817 13.3302 11.0704 13.3302C11.059 13.3302 11.0478 13.3332 11.038 13.3389C11.0281 13.3446 11.02 13.3528 11.0143 13.3627C10.7008 14.0144 10.222 14.9435 10.203 15.0157C10.2002 15.0291 10.2004 15.0429 10.2036 15.0562C10.2067 15.0695 10.2128 15.082 10.2213 15.0927C10.2299 15.1034 10.2406 15.1121 10.2529 15.1182C10.2652 15.1242 10.2786 15.1275 10.2923 15.1278C10.3664 15.1278 10.3911 15.1031 11.0371 13.6344C11.1283 13.4349 11.1549 13.4064 11.1264 13.3627ZM16.8739 14.9549C16.6885 14.6859 16.5829 14.37 16.5691 14.0436C16.5553 13.7173 16.634 13.3936 16.796 13.11C16.8051 13.0964 16.8084 13.0797 16.8052 13.0637C16.802 13.0476 16.7925 13.0335 16.7789 13.0245C16.7653 13.0154 16.7487 13.0121 16.7326 13.0153C16.7166 13.0185 16.7025 13.028 16.6934 13.0416C16.4734 13.3294 16.362 13.6856 16.3791 14.0475C16.3961 14.4094 16.5404 14.7536 16.7865 15.0195C16.7963 15.0266 16.8081 15.0304 16.8202 15.0303C16.8324 15.0303 16.8441 15.0264 16.8539 15.0192C16.8636 15.012 16.8708 15.0019 16.8744 14.9903C16.878 14.9787 16.8778 14.9663 16.8739 14.9549Z" fill="black"/>
<path d="M18.4528 12.9093C18.3198 12.9606 18.601 13.1183 18.5573 14.0246C18.5193 14.7846 18.2362 15.0259 18.2818 15.1019C18.2867 15.109 18.2932 15.1148 18.3009 15.1187C18.3085 15.1227 18.3169 15.1248 18.3255 15.1248C18.3341 15.1248 18.3426 15.1227 18.3502 15.1187C18.3578 15.1148 18.3643 15.109 18.3692 15.1019C18.5719 14.7831 18.693 14.4192 18.7218 14.0425C18.7506 13.6657 18.6863 13.2877 18.5345 12.9416C18.5278 12.9266 18.5155 12.9148 18.5003 12.9088C18.485 12.9028 18.4679 12.903 18.4528 12.9093ZM16.9252 13.9886C16.6174 14.209 16.8777 14.5585 17.1912 14.4712V14.986C17.1912 15.0639 17.1114 15.1038 17.0639 15.0373C17.0548 15.025 17.0413 15.0166 17.0263 15.0138C17.0112 15.011 16.9957 15.014 16.9827 15.0221C16.9697 15.0303 16.9603 15.0431 16.9564 15.0579C16.9524 15.0726 16.9542 15.0884 16.9613 15.1019C16.984 15.1392 17.0179 15.1682 17.0582 15.1849C17.0985 15.2015 17.1431 15.2049 17.1854 15.1945C17.2277 15.1841 17.2657 15.1606 17.2937 15.1272C17.3217 15.0938 17.3384 15.0523 17.3413 15.0088C17.3413 14.948 17.4002 14.1158 17.3223 14.0152C17.2981 13.9871 17.2686 13.9641 17.2355 13.9475C17.2024 13.931 17.1663 13.9212 17.1293 13.9187C17.0924 13.9162 17.0553 13.9211 17.0203 13.9331C16.9852 13.9451 16.9529 13.964 16.9252 13.9886ZM17.1475 14.1082C17.1681 14.1293 17.181 14.1567 17.1841 14.186C17.1872 14.2153 17.1803 14.2448 17.1646 14.2697C17.1228 14.3153 16.9746 14.3001 16.9537 14.2241C16.9328 14.1481 17.0791 14.0607 17.1475 14.1082ZM17.7251 13.9562C17.6597 13.9693 17.6004 14.0034 17.5562 14.0532C17.5119 14.1031 17.4852 14.1661 17.48 14.2325C17.4749 14.299 17.4916 14.3653 17.5276 14.4214C17.5636 14.4775 17.6169 14.5204 17.6795 14.5433C17.7313 14.5627 17.7879 14.5649 17.8409 14.5495C17.894 14.534 17.9407 14.5019 17.974 14.4578C17.9808 14.4459 17.9835 14.4321 17.9816 14.4185C17.9798 14.4049 17.9736 14.3922 17.9638 14.3825C17.9541 14.3728 17.9415 14.3665 17.9279 14.3647C17.9143 14.3629 17.9004 14.3656 17.8885 14.3723C17.8372 14.4027 17.6567 14.4027 17.6434 14.2545C17.6403 14.2252 17.6463 14.1955 17.6606 14.1696C17.6749 14.1438 17.6967 14.1229 17.7232 14.1098C17.7498 14.0968 17.7796 14.0922 17.8089 14.0967C17.8381 14.1011 17.8652 14.1145 17.8866 14.1348C17.9 14.1474 17.9178 14.1542 17.9361 14.1537C17.9545 14.1532 17.9719 14.1454 17.9845 14.132C17.9971 14.1186 18.0038 14.1008 18.0033 14.0825C18.0028 14.0641 17.995 14.0467 17.9816 14.0341C17.9482 14.0015 17.9075 13.9774 17.8629 13.9639C17.8182 13.9503 17.771 13.9477 17.7251 13.9562ZM8.67351 5.77675C8.69231 5.78288 8.71256 5.78287 8.73135 5.77672C8.75014 5.77058 8.76648 5.75861 8.77801 5.74255C8.82171 5.68365 8.94711 5.14405 8.98511 5.01485C8.99015 4.99847 8.98848 4.98076 8.98046 4.96562C8.97244 4.95048 8.95874 4.93914 8.94236 4.9341C8.92598 4.92906 8.90828 4.93073 8.89313 4.93875C8.87799 4.94677 8.86665 4.96047 8.86161 4.97685C8.67921 5.51075 8.52911 5.73115 8.67351 5.77675ZM14.2709 23.2833C14.1151 23.4597 13.9489 23.6266 13.7731 23.783C13.7634 23.7926 13.7557 23.804 13.7504 23.8165C13.7452 23.8291 13.7425 23.8426 13.7425 23.8562C13.7425 23.8698 13.7452 23.8833 13.7504 23.8959C13.7557 23.9084 13.7634 23.9198 13.7731 23.9293C13.9194 24.0604 14.0733 24.1801 14.2139 24.3093C14.2242 24.3174 14.2369 24.3217 14.25 24.3217C14.2631 24.3217 14.2758 24.3174 14.2861 24.3093C14.2943 24.2995 14.2988 24.287 14.2988 24.2742C14.2988 24.2614 14.2943 24.2489 14.2861 24.239C14.1854 24.1079 14.0847 23.9787 13.9783 23.859C14.1249 23.7068 14.2595 23.5436 14.3811 23.3707C14.44 23.2966 14.3241 23.2149 14.2709 23.2833ZM20.71 23.9844C20.7328 23.9844 20.71 23.9844 20.9551 23.8229C21.4092 23.5037 21.4548 23.4828 21.4415 23.3916C21.4244 23.2586 21.2515 23.2377 20.786 23.0116C20.7684 23.0018 20.7476 22.9994 20.7281 23.0049C20.7087 23.0104 20.6923 23.0235 20.6825 23.0411C20.6726 23.0587 20.6702 23.0796 20.6757 23.099C20.6813 23.1184 20.6943 23.1348 20.7119 23.1446C20.7993 23.194 21.0748 23.3669 21.1812 23.4315C20.9057 23.6899 20.672 23.9046 20.672 23.9046C20.667 23.912 20.664 23.9206 20.6634 23.9295C20.6627 23.9384 20.6644 23.9473 20.6682 23.9554C20.6721 23.9635 20.6779 23.9704 20.6853 23.9755C20.6926 23.9806 20.7011 23.9837 20.71 23.9844ZM19.3382 23.6595C19.5928 23.6595 19.8341 23.6177 20.0792 23.6063C20.0968 23.6063 20.1138 23.5993 20.1262 23.5869C20.1387 23.5744 20.1457 23.5575 20.1457 23.5398C20.1457 23.5222 20.1387 23.5053 20.1262 23.4928C20.1138 23.4804 20.0968 23.4733 20.0792 23.4733C19.8303 23.4733 19.5928 23.4334 19.3382 23.4505C19.3105 23.4505 19.2839 23.4616 19.2643 23.4812C19.2447 23.5008 19.2337 23.5273 19.2337 23.555C19.2337 23.5828 19.2447 23.6093 19.2643 23.6289C19.2839 23.6485 19.3105 23.6595 19.3382 23.6595ZM17.9265 23.7127C18.0481 23.7127 18.5725 23.6576 18.6295 23.6538C18.6466 23.6538 18.6631 23.647 18.6752 23.6349C18.6873 23.6228 18.6941 23.6064 18.6941 23.5892C18.6941 23.5721 18.6873 23.5557 18.6752 23.5436C18.6631 23.5315 18.6466 23.5246 18.6295 23.5246C18.5725 23.5246 18.0481 23.4904 17.9265 23.5056C17.9015 23.509 17.8785 23.5214 17.8619 23.5405C17.8452 23.5595 17.8361 23.5839 17.8361 23.6092C17.8361 23.6345 17.8452 23.6589 17.8619 23.6779C17.8785 23.697 17.9015 23.7093 17.9265 23.7127ZM16.2051 23.5911C16.1919 23.5914 16.1788 23.5942 16.1667 23.5995C16.1546 23.6048 16.1436 23.6125 16.1345 23.622C16.1253 23.6315 16.1181 23.6427 16.1132 23.6551C16.1084 23.6674 16.1061 23.6805 16.1063 23.6937C16.1063 23.8058 16.2222 23.8001 16.2963 23.8001C16.5145 23.7902 16.732 23.7692 16.948 23.7374C16.9649 23.7347 16.9803 23.726 16.9914 23.7129C17.0025 23.6999 17.0085 23.6833 17.0085 23.6662C17.0085 23.6491 17.0025 23.6325 16.9914 23.6195C16.9803 23.6064 16.9649 23.5977 16.948 23.5949C16.8207 23.6044 16.3267 23.5873 16.2051 23.5911ZM15.4394 23.6956C15.2988 23.6956 14.763 23.6709 14.6262 23.6956C14.601 23.6956 14.5769 23.7057 14.559 23.7235C14.5412 23.7413 14.5312 23.7655 14.5312 23.7906C14.5312 23.8158 14.5412 23.84 14.559 23.8578C14.5769 23.8756 14.601 23.8856 14.6262 23.8856C14.7687 23.9046 15.3007 23.8514 15.4394 23.8457C15.4593 23.8457 15.4784 23.8378 15.4925 23.8238C15.5066 23.8097 15.5145 23.7906 15.5145 23.7707C15.5145 23.7508 15.5066 23.7317 15.4925 23.7176C15.4784 23.7036 15.4593 23.6956 15.4394 23.6956ZM8.09021 2.90775C8.04616 2.85281 7.98887 2.80994 7.92373 2.78318C7.85859 2.75641 7.78772 2.74662 7.71777 2.75471C7.64781 2.7628 7.58105 2.78852 7.52374 2.82946C7.46643 2.87039 7.42045 2.9252 7.3901 2.98875C7.35975 3.0523 7.34603 3.12251 7.35022 3.19281C7.35442 3.26312 7.37638 3.3312 7.41406 3.3907C7.45175 3.45019 7.50391 3.49915 7.56568 3.53299C7.62744 3.56682 7.69679 3.58443 7.76721 3.58415C7.84614 3.58538 7.92375 3.56393 7.99085 3.52235C8.05794 3.48076 8.11169 3.4208 8.1457 3.34957C8.17971 3.27834 8.19257 3.19884 8.18273 3.12052C8.17289 3.04221 8.14078 2.96836 8.09021 2.90775ZM7.98571 3.28775C7.96176 3.33242 7.92446 3.3685 7.879 3.39093C7.83355 3.41337 7.78222 3.42104 7.7322 3.41288C7.68217 3.40471 7.63595 3.38112 7.59998 3.3454C7.56402 3.30968 7.54012 3.26362 7.53161 3.21365C7.52249 3.17781 7.52153 3.14037 7.52882 3.10411C7.5361 3.06785 7.55143 3.03369 7.57368 3.00414C7.59592 2.9746 7.62452 2.95043 7.65736 2.93342C7.6902 2.9164 7.72644 2.90698 7.76341 2.90585C7.80651 2.90949 7.84806 2.92357 7.88448 2.94689C7.9209 2.97021 7.95109 3.00206 7.97242 3.03968C7.99376 3.0773 8.0056 3.11955 8.00692 3.16278C8.00825 3.206 7.99901 3.2489 7.98001 3.28775H7.98571ZM9.88001 2.95525C9.82525 2.88367 9.74854 2.832 9.66162 2.80816C9.5747 2.78432 9.48237 2.78961 9.39875 2.82323C9.31513 2.85685 9.24482 2.91695 9.1986 2.99432C9.15238 3.07169 9.13278 3.16208 9.14281 3.25165C9.15129 3.34139 9.18818 3.42608 9.24809 3.49342C9.30801 3.56077 9.38785 3.60724 9.47599 3.6261C9.56413 3.64496 9.656 3.63521 9.73822 3.59828C9.82045 3.56135 9.88875 3.49916 9.93321 3.42075C9.96649 3.34543 9.97909 3.2626 9.96974 3.18079C9.96039 3.09897 9.92942 3.02112 9.88001 2.95525ZM9.42401 2.99515C9.47148 2.96393 9.52851 2.95061 9.5849 2.95757C9.64129 2.96453 9.69336 2.99132 9.73181 3.03315C9.76722 3.07485 9.78996 3.1258 9.79737 3.18C9.80477 3.2342 9.79653 3.28938 9.77361 3.33905C9.74935 3.38172 9.71284 3.41613 9.6688 3.43781C9.62476 3.45949 9.57523 3.46744 9.52661 3.46065C9.47621 3.45211 9.42948 3.42882 9.39232 3.39372C9.35516 3.35862 9.32925 3.31329 9.31786 3.26346C9.30647 3.21362 9.31011 3.16153 9.32833 3.11378C9.34655 3.06602 9.37853 3.02473 9.42021 2.99515H9.42401ZM11.6641 3.00465C11.6201 2.94977 11.5629 2.90694 11.4979 2.88017C11.4328 2.85339 11.362 2.84355 11.2921 2.85155C11.2222 2.85956 11.1555 2.88515 11.0982 2.92594C11.0409 2.96673 10.9949 3.02138 10.9644 3.08479C10.934 3.1482 10.9201 3.21829 10.9241 3.28853C10.928 3.35876 10.9498 3.42683 10.9872 3.48639C11.0246 3.54595 11.0766 3.59504 11.1381 3.62908C11.1997 3.66312 11.2689 3.681 11.3392 3.68105C11.4183 3.68265 11.4962 3.66147 11.5636 3.62004C11.6309 3.5786 11.685 3.51865 11.7192 3.44735C11.7535 3.37605 11.7665 3.2964 11.7567 3.2179C11.7469 3.13941 11.7148 3.06538 11.6641 3.00465ZM11.5577 3.38465C11.5352 3.42082 11.5037 3.4506 11.4664 3.47112C11.429 3.49165 11.387 3.50224 11.3444 3.50187C11.3018 3.50151 11.2599 3.49021 11.2229 3.46905C11.1859 3.4479 11.155 3.41759 11.1331 3.38104C11.1111 3.34449 11.099 3.30293 11.0977 3.26032C11.0964 3.21772 11.1061 3.1755 11.1259 3.13772C11.1456 3.09995 11.1747 3.06787 11.2104 3.04457C11.2461 3.02127 11.2872 3.00752 11.3297 3.00465C11.3737 3.00619 11.4167 3.01871 11.4546 3.04108C11.4925 3.06344 11.5243 3.09494 11.5469 3.13271C11.5696 3.17048 11.5825 3.21331 11.5843 3.25731C11.5862 3.30131 11.5771 3.34509 11.5577 3.38465Z" fill="black"/>
<path d="M27.8673 6.17006C27.9215 6.05938 27.9465 5.93667 27.9398 5.81361C27.9332 5.69056 27.8951 5.57125 27.8293 5.46706C27.6754 5.23906 27.3657 5.24666 27.1168 5.25236C26.3473 5.27136 8.28404 4.71846 8.26504 4.71656C8.15488 4.68998 8.03873 4.70628 7.94014 4.76216C7.63804 4.98256 7.64754 5.76726 7.98764 5.96486C8.0882 6.01019 8.19974 6.02537 8.30874 6.00856L27.2783 6.51586C27.3983 6.51547 27.5161 6.48325 27.6195 6.4225C27.723 6.36175 27.8085 6.27464 27.8673 6.17006ZM9.33854 4.95786C9.23514 5.19894 9.14941 5.44723 9.08204 5.70076C9.08153 5.71205 9.08331 5.72333 9.08728 5.73392C9.09125 5.74451 9.09733 5.75418 9.10514 5.76235C9.11296 5.77052 9.12235 5.77702 9.13275 5.78145C9.14315 5.78589 9.15434 5.78817 9.16564 5.78816C9.25114 5.78816 9.26634 5.71026 9.39554 5.24286C9.46584 4.98066 9.48484 4.97306 9.45064 4.93696C12.1733 5.02246 27.2688 5.44236 27.2992 5.44426C27.5329 5.44426 27.6602 5.51646 27.7115 5.65136C27.7503 5.74235 27.761 5.84281 27.7424 5.93993C27.7238 6.03705 27.6767 6.12642 27.607 6.19666C27.5231 6.25552 27.4284 6.29723 27.3283 6.3194C27.2282 6.34157 27.1247 6.34377 27.0237 6.32586C25.916 6.28786 8.13204 5.83376 8.11304 5.82996C7.86414 5.76916 7.84324 5.18206 7.99524 4.95216C8.05034 4.87046 8.13394 4.87426 8.26504 4.89136C9.50004 4.95216 9.35564 4.90846 9.33854 4.95786ZM15.5933 16.2534C15.5933 16.0634 15.7529 16.147 8.75334 16.3351C8.71317 16.3322 8.6729 16.339 8.63589 16.3549C8.59887 16.3707 8.56618 16.3952 8.54054 16.4263C8.46834 16.5346 8.59374 22.3562 8.59754 22.4113C8.59853 22.4353 8.60877 22.458 8.62612 22.4746C8.64348 22.4913 8.6666 22.5006 8.69064 22.5006C8.69064 22.5006 9.43734 22.474 10.0909 22.455C15.827 22.2897 15.7529 22.208 15.7472 22.1301C15.732 21.9838 15.5952 16.3541 15.5933 16.2534ZM8.69824 16.5574C8.69824 16.5441 8.73434 16.5327 8.75334 16.5308C9.00604 16.5308 15.1791 16.3408 15.4033 16.3408C15.4204 16.9108 15.58 21.7596 15.5933 22.0541C14.6167 22.1168 9.49624 22.2973 8.78564 22.3125C8.67354 20.7602 8.68684 16.6714 8.69824 16.5574Z" fill="black"/>
<path d="M9.02316 21.82C9.17136 21.7117 11.9549 19.3709 12.048 19.2949C12.7833 19.882 14.8505 21.5331 15.2913 21.8903C15.3597 21.9454 15.4471 21.8466 15.3806 21.7896C14.594 21.136 12.5952 19.5096 12.1905 19.1752C12.3805 19.027 14.7688 17.0282 15.0728 16.7831C15.1374 16.728 15.0538 16.633 14.9873 16.6843C14.2026 17.3151 12.3501 18.8104 12.0423 19.0593C11.4533 18.5938 9.55136 17.1289 9.09346 16.7983C9.08075 16.7909 9.0658 16.7884 9.05136 16.7912C9.03693 16.794 9.024 16.8019 9.01496 16.8135C9.00591 16.8251 9.00138 16.8395 9.00219 16.8542C9.003 16.8689 9.0091 16.8828 9.01936 16.8933C9.67106 17.4253 11.8504 19.1391 11.8998 19.1733C11.2766 19.692 9.12956 21.4989 8.92816 21.7022C8.91254 21.7148 8.90256 21.7331 8.90042 21.753C8.89828 21.773 8.90416 21.793 8.91676 21.8086C8.92936 21.8242 8.94764 21.8342 8.9676 21.8363C8.98755 21.8385 9.00754 21.8326 9.02316 21.82ZM22.6386 21.1531C22.0097 20.6363 20.7025 19.5001 20.4536 19.2835C21.0103 18.7933 22.7336 17.1935 23.0794 16.8781C23.0922 16.866 23.0997 16.8493 23.1003 16.8317C23.1008 16.814 23.0943 16.7969 23.0822 16.784C23.0701 16.7712 23.0534 16.7637 23.0358 16.7631C23.0181 16.7626 23.001 16.7691 22.9882 16.7812C22.7317 17.0187 20.3928 19.0935 20.3168 19.1619C20.009 18.894 17.5865 16.7527 17.4915 16.6729C17.4796 16.6637 17.4647 16.6592 17.4497 16.6603C17.4347 16.6614 17.4207 16.6681 17.4103 16.6789C17.3999 16.6898 17.3939 16.7041 17.3934 16.7192C17.393 16.7342 17.3981 16.7488 17.4079 16.7603C17.5656 16.9218 19.7487 18.9301 20.1648 19.2968C19.9425 19.4868 17.7404 21.4343 17.5048 21.6433C17.496 21.6502 17.4897 21.6599 17.4869 21.6707C17.4841 21.6815 17.4849 21.693 17.4892 21.7033C17.4935 21.7136 17.501 21.7223 17.5107 21.7279C17.5204 21.7335 17.5316 21.7359 17.5428 21.7345C17.6321 21.7345 20.1211 19.5685 20.2959 19.4165C20.712 19.768 22.175 20.9593 22.5436 21.2538C22.6196 21.307 22.707 21.2101 22.6386 21.1531ZM3.90266 30.4384C3.90266 30.4384 9.07636 30.142 9.16946 30.1344C9.18429 30.1333 9.19866 30.1288 9.21142 30.1212C9.22418 30.1135 9.23497 30.103 9.24292 30.0904C9.25086 30.0779 9.25575 30.0636 9.25718 30.0488C9.25861 30.034 9.25655 30.0191 9.25116 30.0052C9.26066 28.7512 9.39176 26.3952 9.31196 26.2736C9.2861 26.2419 9.25208 26.2179 9.21357 26.2042C9.17505 26.1905 9.13352 26.1875 9.09346 26.1957L3.93116 26.4503C3.90695 26.4513 3.88403 26.4614 3.86708 26.4787C3.85012 26.4961 3.84042 26.5192 3.83996 26.5434C3.80766 27.2901 3.74116 30.2902 3.75826 30.3434C3.76706 30.3738 3.78645 30.4001 3.81292 30.4176C3.8394 30.435 3.87122 30.4424 3.90266 30.4384ZM9.15236 26.4256C9.15236 26.5814 9.14286 27.2483 9.08016 29.9482C8.55766 29.9691 4.05656 30.237 3.95016 30.2427C3.95016 29.8418 4.01476 27.0849 4.03186 26.6327L9.10486 26.3781C9.11731 26.3786 9.12912 26.3837 9.13793 26.3925C9.14673 26.4013 9.15189 26.4132 9.15236 26.4256ZM10.908 29.914C10.9327 30.0033 11.0182 30.0071 11.1075 29.9995C16.6403 29.5701 16.3553 29.7202 16.3933 29.6499C16.4085 29.6195 16.38 29.7753 16.4465 27.7879C16.4465 27.5428 16.5206 25.9316 16.4598 25.8385C16.4342 25.8065 16.4002 25.7822 16.3616 25.7685C16.323 25.7547 16.2813 25.752 16.2413 25.7606C16.2147 25.7606 11.3431 26 11.0809 26.0152C11.0563 26.0157 11.0329 26.0257 11.0156 26.043C10.9982 26.0604 10.9882 26.0838 10.9878 26.1083C10.9574 26.8094 10.889 29.8494 10.908 29.914ZM11.098 29.8076C11.098 29.3953 11.1645 26.6327 11.1797 26.1976L16.2793 25.943C16.323 25.943 16.323 25.6637 16.2337 29.5093C15.7055 29.5321 11.2101 29.8 11.0923 29.8076H11.098ZM17.5067 29.4504C17.5333 29.5378 17.6169 29.5416 17.7081 29.534C23.2409 29.1027 22.9559 29.2547 22.9939 29.1844C23.0091 29.1559 22.9806 29.3003 23.0471 27.3243C23.0471 27.0735 23.1212 25.4699 23.0604 25.373C23.0348 25.341 23.0008 25.3167 22.9622 25.303C22.9236 25.2892 22.8819 25.2865 22.8419 25.2951L17.6815 25.5497C17.6569 25.5502 17.6335 25.5602 17.6162 25.5775C17.5988 25.5949 17.5888 25.6183 17.5884 25.6428C17.5561 26.38 17.4896 29.3801 17.5067 29.4504ZM17.7746 25.7359L22.8742 25.4813C22.9179 25.4813 22.916 25.2058 22.8286 29.0476C22.3061 29.0666 17.8031 29.3345 17.6986 29.3421C17.6929 29.3155 17.7575 26.1938 17.7746 25.7283V25.7359Z" fill="black"/>
<path d="M8.88062 26.5163C8.31062 26.959 6.82292 28.0173 6.61202 28.1712C6.43912 28.0667 4.49162 26.9001 4.28072 26.769C4.26712 26.7602 4.25057 26.7571 4.23471 26.7605C4.21885 26.7639 4.20499 26.7735 4.19617 26.7871C4.18736 26.8007 4.1843 26.8172 4.18769 26.8331C4.19107 26.8489 4.20062 26.8628 4.21422 26.8716C4.49732 27.0616 6.08382 28.0686 6.44292 28.2928C6.32892 28.3745 4.37762 29.7786 4.26172 29.8736C4.25174 29.8816 4.24451 29.8925 4.24108 29.9048C4.23764 29.9171 4.23817 29.9302 4.24258 29.9422C4.247 29.9542 4.25508 29.9645 4.26568 29.9716C4.27628 29.9787 4.28885 29.9823 4.30162 29.9819C4.36622 29.9819 6.58162 28.4448 6.63292 28.4068C7.07942 28.6671 8.68112 29.5582 8.85782 29.6513C8.86917 29.6586 8.88278 29.6614 8.89609 29.6593C8.90939 29.6572 8.92146 29.6503 8.93002 29.6399C8.93562 29.6269 8.93679 29.6124 8.93336 29.5987C8.92993 29.585 8.92208 29.5728 8.91102 29.5639C8.20422 29.1459 7.48982 28.7127 6.79822 28.2928C7.21052 27.9869 8.95662 26.6246 8.95662 26.6246C8.97099 26.6145 8.98076 26.5992 8.98378 26.5819C8.98681 26.5646 8.98285 26.5468 8.97277 26.5325C8.9627 26.5181 8.94733 26.5083 8.93004 26.5053C8.91276 26.5023 8.89499 26.5062 8.88062 26.5163ZM16.1253 26.0299C15.9771 26.1344 13.6952 27.719 13.5223 27.8425C13.11 27.5594 11.7686 26.6246 11.4665 26.3909C11.4019 26.3415 11.324 26.4422 11.3867 26.4916C11.8978 26.8944 13.0682 27.7627 13.3513 27.966C12.9276 28.2814 11.5026 29.2656 11.2309 29.5354C11.2241 29.5419 11.2195 29.5503 11.2175 29.5595C11.2155 29.5687 11.2162 29.5783 11.2197 29.5871C11.2232 29.5958 11.2292 29.6034 11.2369 29.6087C11.2446 29.6141 11.2538 29.617 11.2632 29.6171C11.2898 29.6171 11.4285 29.5392 13.5109 28.0762C13.9764 28.384 15.4812 29.2808 15.8194 29.4613C15.8299 29.4657 15.8415 29.4662 15.8523 29.4628C15.8631 29.4594 15.8723 29.4522 15.8783 29.4425C15.8842 29.4329 15.8865 29.4215 15.8848 29.4103C15.8831 29.3991 15.8774 29.3889 15.8688 29.3815C15.5876 29.1915 13.8225 28.0515 13.6838 27.9527C14.0258 27.7114 16.055 26.2218 16.1918 26.123C16.2042 26.1142 16.2125 26.1008 16.215 26.0859C16.2175 26.0709 16.2139 26.0556 16.2051 26.0432C16.1963 26.0309 16.1829 26.0225 16.168 26.02C16.153 26.0175 16.1377 26.0211 16.1253 26.0299ZM20.3927 27.2953C20.8639 27.6107 22.2927 28.6082 22.6005 28.8438C22.6069 28.8492 22.6142 28.8532 22.6222 28.8558C22.6301 28.8583 22.6385 28.8592 22.6467 28.8585C22.655 28.8578 22.6631 28.8555 22.6705 28.8516C22.6779 28.8478 22.6845 28.8426 22.6898 28.8362C22.6952 28.8299 22.6992 28.8225 22.7018 28.8146C22.7043 28.8066 22.7052 28.7983 22.7045 28.79C22.7038 28.7817 22.7015 28.7736 22.6977 28.7662C22.6938 28.7588 22.6886 28.7523 22.6822 28.7469C22.4371 28.5569 20.9266 27.4283 20.5713 27.1775C20.7613 27.054 22.5112 25.8475 22.7202 25.7088C22.7275 25.7043 22.7337 25.6985 22.7387 25.6915C22.7437 25.6846 22.7472 25.6768 22.7492 25.6685C22.7511 25.6602 22.7514 25.6516 22.75 25.6432C22.7486 25.6348 22.7456 25.6268 22.7411 25.6195C22.7366 25.6123 22.7308 25.606 22.7238 25.601C22.7169 25.5961 22.7091 25.5925 22.7008 25.5906C22.6925 25.5886 22.6839 25.5883 22.6755 25.5897C22.6671 25.5911 22.6591 25.5941 22.6518 25.5986C22.4808 25.7107 20.4858 26.9742 20.3718 27.0483C19.9785 26.8013 18.6618 26.0299 18.3084 25.8665C18.2948 25.86 18.2792 25.8591 18.2649 25.8641C18.2507 25.8691 18.239 25.8795 18.2324 25.8931C18.1906 25.9729 18.2001 25.9159 20.1932 27.1661C19.6365 27.5461 17.9132 28.7678 17.7384 28.9046C17.7289 28.9145 17.7227 28.9272 17.7206 28.9408C17.7186 28.9544 17.7208 28.9683 17.727 28.9806C17.7352 28.9926 17.7475 29.001 17.7616 29.0042C17.7758 29.0074 17.7906 29.005 17.803 28.9977C18.0082 28.8799 20.3927 27.2953 20.3927 27.2953Z" fill="black"/>
<path d="M37.05 32.8039C36.841 32.7564 35.72 32.6044 29.8547 31.7399C29.7309 31.5658 29.6347 31.3735 29.5697 31.1699C29.545 30.5999 29.3987 28.7911 29.3512 28.4377C29.2562 27.7347 29.0643 27.0317 29.0795 26.3078C29.2828 26.2641 29.4842 26.2166 29.678 26.1634C29.6946 26.1582 29.709 26.1478 29.7193 26.1338C29.7295 26.1198 29.735 26.1029 29.735 26.0855C29.7376 25.3751 29.6855 24.6656 29.5792 23.9632C29.8984 23.6098 29.887 22.9448 29.8756 22.4033C29.8756 21.9093 29.8927 21.5635 29.8908 18.2233C30.4741 17.7654 30.3411 16.7489 30.2708 16.2321C30.4399 16.1143 30.4475 16.1143 30.4494 16.0858C30.4348 15.9005 30.3965 15.7179 30.3354 15.5424C30.2952 15.4503 30.2363 15.3675 30.1625 15.2992C30.2271 15.2042 30.2385 15.1966 30.2252 15.1662C30.1169 14.9439 30.0352 14.7862 29.9288 14.6171V12.9508C30.2699 12.9883 30.6134 12.9072 30.9016 12.7209C30.912 12.7154 30.92 12.7061 30.924 12.695C30.928 12.6839 30.9278 12.6717 30.9233 12.6608C30.9188 12.6499 30.9103 12.6411 30.8997 12.636C30.889 12.631 30.8768 12.6301 30.8655 12.6335C30.6071 12.6962 30.4209 12.6658 30.3107 12.5404C30.039 12.2364 30.2594 11.4346 30.3677 11.1496C30.6223 10.439 30.9377 10.4143 31.0137 9.9032C31.0569 9.53487 30.9751 9.16271 30.7815 8.84642C30.5879 8.53013 30.2936 8.28805 29.9459 8.159C29.9459 8.1438 29.9972 5.2615 29.9991 5.1722C30.0181 4.3533 30.0428 3.2323 29.127 2.8618C28.9204 2.79266 28.7022 2.76489 28.4848 2.7801C28.4449 2.7801 8.36952 2.1379 8.22892 2.1284C7.84962 2.08481 7.46617 2.09248 7.08892 2.1512C6.13892 2.3564 6.12562 3.2912 6.11992 3.8992C6.11992 3.9505 6.13132 9.2553 6.13892 14.3036C5.49862 14.2884 2.94692 14.2846 2.41302 14.3036C1.96272 14.3036 1.56942 14.3359 1.31862 14.5278C1.19616 14.6246 1.09682 14.7475 1.0278 14.8875C0.958779 15.0275 0.921823 15.1811 0.919617 15.3372C0.919617 17.1973 1.10962 28.3579 1.00702 32.0743C0.993717 32.5569 1.21032 32.9369 1.57702 33.049C1.35092 33.3549 1.57702 33.7026 1.90002 33.847C4.40232 34.3866 11.6622 35.937 12.236 35.937C12.5305 35.937 27.3144 34.4987 36.1551 33.6456C36.6643 33.6456 37.1678 33.3853 37.1051 32.9141C37.0823 32.8001 37.0823 32.8115 37.05 32.8039ZM29.1441 28.3104C29.2619 29.2433 29.2999 30.1914 29.3702 31.13C29.1744 31.2047 28.958 31.2047 28.7622 31.13C28.1922 30.0489 27.2897 28.5821 27.4322 27.3072C27.4759 26.8968 27.493 26.7163 27.2593 26.3743C27.4626 26.361 27.6697 26.342 27.8863 26.3078C27.9262 26.3078 27.9414 26.3078 28.0763 25.5668C28.348 26.4028 28.348 26.4598 28.4145 26.4446L28.9047 26.3401C28.88 27.007 29.0529 27.6587 29.1441 28.3104ZM23.56 32.8476C23.8298 33.1402 24.5746 32.7146 24.9109 32.4961C24.9183 32.4917 24.9243 32.4852 24.928 32.4774C24.9317 32.4696 24.933 32.4609 24.9318 32.4524C24.9259 32.4129 24.9282 32.3725 24.9387 32.3339C24.9491 32.2953 24.9675 32.2593 24.9926 32.2282C24.9976 32.2208 25.004 32.2144 25.0116 32.2095C25.0191 32.2046 25.0275 32.2013 25.0363 32.1997C25.0667 32.1997 25.1256 32.2548 25.1541 32.3593C25.1826 32.4638 25.4562 32.4011 25.5341 32.3593C25.5664 32.3403 25.5683 32.3441 25.5341 31.7893C26.4005 31.9508 28.1086 32.2453 28.7261 32.3593C28.7451 32.441 28.7641 32.5208 28.785 32.5968C26.695 32.7868 12.0992 34.0902 11.7325 34.1168C11.5178 34.0674 7.11932 33.2827 6.96542 33.2561C10.9668 32.9274 21.4187 32.0724 24.1889 31.8349C23.8203 32.3897 23.5068 32.4619 23.4935 32.5265C23.4772 32.5813 23.4747 32.6394 23.4863 32.6954C23.4979 32.7515 23.5232 32.8038 23.56 32.8476ZM23.237 24.9835C22.154 25.0196 8.11112 25.5174 7.26752 25.3084C6.58732 25.2229 6.26812 24.6358 6.31752 23.5642C6.32892 22.9942 6.28142 6.3426 6.27192 4.1348C9.36132 4.2754 27.816 4.7903 29.8148 4.8074C29.8148 5.1589 29.7825 6.8974 29.7616 8.0963C29.127 7.9329 28.3423 8.0754 28.4563 8.6986C28.4583 8.70891 28.4637 8.71826 28.4715 8.7252C28.5433 8.78132 28.6033 8.8512 28.6478 8.93074C28.6923 9.01029 28.7205 9.09791 28.7308 9.18848C28.741 9.27905 28.7331 9.37076 28.7075 9.45824C28.6819 9.54573 28.6392 9.62724 28.5817 9.698C28.5361 9.7512 28.6634 9.983 28.6026 10.7962C28.5209 11.8887 29.0814 12.6962 29.7217 12.8957C29.7217 13.1427 29.7122 14.0623 29.7122 14.2789C29.0453 13.2396 28.6938 13.0591 27.5842 12.339C27.5272 12.301 27.5253 12.4017 27.7305 11.6208C27.8618 11.5787 27.9821 11.5076 28.0823 11.4129C28.1826 11.3183 28.2604 11.2023 28.31 11.0736C28.3519 10.6313 28.3519 10.1859 28.31 9.7436C28.3607 9.57443 28.3725 9.39599 28.3445 9.22162C28.3165 9.04725 28.2495 8.88145 28.1485 8.7366C27.975 8.44344 27.7138 8.21216 27.4018 8.0754C26.7957 7.8208 26.2333 8.0754 25.7355 8.2939C25.1655 8.5618 25.1997 8.7233 25.27 9.3427C25.2708 9.3921 25.2831 9.44063 25.3058 9.48448C25.3286 9.52833 25.3612 9.5663 25.4011 9.5954C25.2681 10.0419 25.0762 10.8646 25.2206 11.3054C25.2759 11.4635 25.3625 11.6089 25.4751 11.733C25.5877 11.857 25.7241 11.9571 25.8761 12.0274C25.8628 12.0844 25.8343 12.1908 25.8134 12.2706C25.7203 12.2459 25.5493 12.2041 25.4486 12.1813C24.8083 11.883 24.2269 11.5429 23.5695 11.6113C23.5187 11.6185 23.4704 11.6381 23.4289 11.6683C23.3327 11.5758 23.2199 11.5023 23.0964 11.4517C22.9938 11.2617 21.2876 8.5257 21.2667 8.4934C21.1812 8.3585 21.109 8.2407 21.1717 8.1039C21.2344 7.9671 21.4016 7.7239 21.3826 7.5225L22.9406 7.513C22.991 7.513 23.0393 7.49299 23.075 7.45735C23.1106 7.42172 23.1306 7.3734 23.1306 7.323V6.7986C23.1306 6.74821 23.1106 6.69989 23.075 6.66425C23.0393 6.62862 22.991 6.6086 22.9406 6.6086H17.29C17.2396 6.6086 17.1913 6.62862 17.1557 6.66425C17.12 6.69989 17.1 6.74821 17.1 6.7986V7.4104C17.1 7.46079 17.12 7.50912 17.1557 7.54475C17.1913 7.58039 17.2396 7.6004 17.29 7.6004L19.4351 7.5795C19.644 7.94069 19.9555 8.23168 20.33 8.4155C20.4098 8.4573 20.4022 8.463 20.5561 9.2781C20.8069 10.591 21.0653 11.9495 21.8861 13.0344C21.8709 13.0724 21.8595 13.1104 21.8462 13.1484C21.8423 13.1611 21.8414 13.1745 21.8437 13.1875C21.846 13.2006 21.8514 13.2129 21.8593 13.2235C21.8673 13.234 21.8777 13.2426 21.8896 13.2484C21.9015 13.2541 21.9147 13.257 21.9279 13.2567C21.9907 13.2549 22.0532 13.2665 22.1112 13.2908C22.1692 13.315 22.2214 13.3513 22.2642 13.3973C22.2319 13.7678 22.3041 13.9673 22.743 14.296C22.8532 14.3777 23.5961 14.7824 23.7918 14.885C23.7044 15.2308 23.6303 15.5842 23.56 15.9395C21.5669 16.006 17.2064 16.0459 17.1 16.1295C17.0683 16.1546 17.0429 16.1867 17.0257 16.2233C17.0086 16.2599 17.0002 16.3 17.0012 16.3404C16.9708 17.1004 16.9062 21.44 16.9119 21.6395C16.9119 22.0195 16.9746 22.2513 17.3793 22.2095C17.6738 22.2095 21.3142 22.1164 22.8076 22.0784C22.7848 22.3292 22.7772 22.333 22.8076 22.3539C22.9784 22.4836 23.1717 22.5809 23.3776 22.6408C23.2425 23.4139 23.1947 24.1997 23.2351 24.9835H23.237ZM26.6 13.4524C26.1459 13.5056 25.4258 13.4334 25.2966 13.0154C25.2472 12.8254 25.4277 12.4853 25.5246 12.3675L25.8552 12.4454C25.8754 12.4501 25.8965 12.4467 25.9142 12.4361C25.9319 12.4254 25.9448 12.4084 25.9502 12.3884C25.9749 12.282 26.0053 12.168 26.0262 12.0844C26.1003 12.1091 26.1801 12.1395 26.1972 12.0692C26.1992 12.0617 26.1997 12.0539 26.1987 12.0462C26.1977 12.0385 26.1952 12.0311 26.1913 12.0244C26.1874 12.0177 26.1822 12.0118 26.1761 12.0071C26.1699 12.0024 26.1629 11.999 26.1554 11.997C25.5854 11.8393 25.2757 11.2788 25.3954 10.6271C25.4551 10.1975 25.5401 9.77179 25.65 9.3522C25.8154 9.53775 26.0369 9.66416 26.2808 9.71218C26.5246 9.7602 26.7775 9.7272 27.0009 9.6182C26.9536 9.96609 26.9809 10.3201 27.0812 10.6565C27.1815 10.993 27.3523 11.3043 27.5823 11.5695C27.36 12.3295 27.3524 12.3295 27.4094 12.4131C27.4664 12.4967 27.6583 12.5765 27.8768 12.7437C27.5503 13.1258 27.097 13.3774 26.6 13.4524ZM26.6 13.7944C26.5012 13.7944 26.6 13.6139 26.6817 13.6139C26.7634 13.6139 26.6646 13.7887 26.6 13.7944ZM26.0167 13.7469C26.0167 13.8457 25.8267 13.9198 25.7583 13.8704C25.6899 13.821 25.7944 13.7051 25.897 13.6804C25.9214 13.6739 25.9474 13.6773 25.9694 13.6897C25.9914 13.7021 26.0077 13.7226 26.0148 13.7469H26.0167ZM25.3783 13.574C25.3705 13.5808 25.3612 13.5857 25.3512 13.5881C25.3412 13.5906 25.3307 13.5906 25.3206 13.5882C25.3106 13.5858 25.3012 13.581 25.2934 13.5742C25.2856 13.5675 25.2795 13.5589 25.2757 13.5493C25.2548 13.4486 25.4049 13.3935 25.4353 13.4334C25.4657 13.4733 25.4429 13.5189 25.3764 13.574H25.3783ZM28.196 16.481C28.2083 16.4861 28.2187 16.4948 28.2259 16.506C28.233 16.5173 28.2365 16.5304 28.2359 16.5437C28.2324 16.5565 28.2251 16.568 28.2149 16.5765C28.2047 16.585 28.1921 16.5901 28.1789 16.5912C27.6089 16.5399 27.1814 16.1694 27.0636 15.4645C27.0606 15.4486 27.064 15.4322 27.0731 15.4188C27.0822 15.4055 27.0962 15.3963 27.1121 15.3933C27.1279 15.3902 27.1444 15.3936 27.1577 15.4027C27.1711 15.4118 27.1803 15.4258 27.1833 15.4417C27.2449 15.6888 27.3708 15.9152 27.5484 16.0978C27.726 16.2804 27.9488 16.4126 28.1941 16.481H28.196ZM20.748 7.5681C20.7594 7.6156 20.6245 7.6327 20.5067 7.9576C20.5037 7.97255 20.5062 7.98807 20.5139 8.00128C20.5215 8.01449 20.5336 8.02447 20.5481 8.02936C20.5625 8.03425 20.5782 8.03371 20.5923 8.02785C20.6064 8.02199 20.6178 8.0112 20.6245 7.9975C20.7252 7.7239 20.9608 7.7752 20.9152 7.5529C20.8259 7.1216 20.9323 6.8993 21.0805 6.943C21.109 6.943 21.0938 7.323 21.1869 7.4199C21.3522 7.6099 21.052 7.8949 20.9969 8.1058C20.9817 8.17457 20.9823 8.24589 20.9988 8.31437C21.0153 8.38285 21.0471 8.44667 21.0919 8.501C21.128 8.5561 22.8323 11.3092 22.9463 11.4878C22.5448 11.8828 22.2081 12.3387 21.9488 12.8387C21.0292 11.541 20.8487 9.9089 20.539 8.4193C20.5006 8.33869 20.4325 8.27606 20.349 8.2445C20.0541 8.09154 19.806 7.86179 19.6308 7.5795L20.748 7.5681ZM22.9577 11.712C23.0432 11.617 23.0527 11.598 23.085 11.6056C23.1628 11.6448 23.2355 11.6933 23.3016 11.75C23.0774 11.9267 22.4637 12.6392 22.3022 13.1845C22.2213 13.1295 22.1279 13.0956 22.0305 13.0857C22.2053 12.5575 22.5891 12.1281 22.9577 11.712ZM22.8247 21.9112C21.2857 21.9378 17.4135 22.0461 17.1703 22.01C17.1 21.9473 17.1038 21.8086 17.1057 21.6965C17.1057 21.6756 17.1589 16.6387 17.1874 16.3157C17.1874 16.2511 16.7162 16.2796 23.5182 16.1124C23.18 17.9459 23.0128 19.9371 22.8247 21.9112ZM23.5239 22.6864C23.7299 22.7242 23.9411 22.7242 24.1471 22.6864C24.1572 22.6849 24.1665 22.6802 24.1736 22.673C24.1808 22.6658 24.1855 22.6565 24.187 22.6465C24.5784 20.5185 24.2136 20.3665 24.567 16.5038C24.757 14.3397 25.042 13.6253 24.985 13.555C24.6772 13.175 24.8672 12.7627 25.2586 12.4834C25.0686 12.8254 25.1218 13.1028 25.2738 13.2757C25.2264 13.2933 25.1858 13.3258 25.1583 13.3682C25.1307 13.4107 25.1175 13.4609 25.1207 13.5114C25.1239 13.562 25.1433 13.6101 25.176 13.6488C25.2087 13.6874 25.253 13.7145 25.3023 13.726C25.3711 13.7305 25.439 13.7086 25.4923 13.6648C25.5455 13.6211 25.5802 13.5587 25.5892 13.4904C25.6481 13.5144 25.7084 13.5347 25.7697 13.5512C25.5132 13.7032 25.5208 14.0376 25.821 14.0376C25.906 14.0432 25.99 14.0163 26.056 13.9623C26.1219 13.9083 26.1649 13.8314 26.1763 13.7469C26.1763 13.5436 25.9635 13.6253 26.4366 13.6139C26.2561 13.9806 26.752 14.068 26.8527 13.7127C26.8703 13.6636 26.8703 13.6099 26.8527 13.5607C27.7305 13.3707 27.2498 13.0268 26.8527 14.5221C26.5392 15.6887 26.6627 17.0795 26.828 18.0504C26.6093 18.2225 26.4059 18.4132 26.22 18.6204C26.0034 18.1663 25.9103 17.9611 25.8628 17.8718C25.8153 17.7825 25.8134 17.8034 25.7868 17.811C25.6861 17.8452 25.4163 17.9516 25.1579 18.0599C25.2662 16.899 25.3289 16.1865 25.5379 14.486C25.5392 14.4712 25.5348 14.4565 25.5257 14.4448C25.5166 14.4331 25.5034 14.4253 25.4888 14.4229C25.4741 14.4205 25.4591 14.4237 25.4467 14.4319C25.4344 14.44 25.4255 14.4526 25.422 14.467C25.2567 15.4816 25.061 16.7945 24.9793 18.1378C24.7893 18.2176 24.6905 18.2575 24.6411 18.286C24.5917 18.3145 24.5955 18.3278 24.605 18.3525C24.6468 18.4532 24.7684 18.7325 24.9185 19.0764C24.7285 20.5413 24.2649 24.9892 24.2193 25.6333C23.9217 25.4752 23.6464 25.2784 23.4004 25.0481C23.352 24.2587 23.3934 23.4664 23.5239 22.6864ZM26.6171 19.4906C26.7235 19.3994 26.8907 19.2398 26.9971 19.1353C27.2688 21.516 27.4569 20.3646 27.2422 24.366C27.1985 25.1754 27.1605 25.886 27.1852 26.1995C26.7413 26.2291 26.2955 26.2119 25.8552 26.1482C25.878 25.6637 26.0908 21.3545 26.1288 20.9004C26.416 20.7867 26.6942 20.6514 26.961 20.4957C26.999 20.4615 26.9895 20.5033 26.6171 19.4906ZM28.6273 31.2706V31.5613C27.2137 31.3523 26.0319 31.1813 25.4961 31.0939C25.4866 30.9799 25.479 30.8868 25.4733 30.8298C25.8381 29.6195 26.3777 28.0121 25.8837 26.8398C25.8172 26.6802 25.764 26.8227 25.9996 26.3515C26.3572 26.3916 26.7174 26.4043 27.0769 26.3895C27.4132 26.8512 27.2764 26.9215 27.246 27.3395C27.1396 28.7436 27.9395 30.009 28.6273 31.2706ZM28.6387 31.7589C28.6501 31.8995 28.671 32.0458 28.6957 32.1902L25.5284 31.6335C25.5284 31.5119 25.5151 31.3903 25.5075 31.2763C26.1402 31.3827 27.2954 31.5594 28.6387 31.7589ZM25.669 26.1178C25.2235 26.0425 24.7906 25.9057 24.3827 25.7112C24.4017 25.5364 24.9375 20.357 25.0439 19.3747C25.5664 20.5622 25.7089 20.8947 25.7602 20.9783C25.7849 21.0182 25.7887 21.0087 25.802 21.0087C25.8532 20.9995 25.9035 20.9855 25.9521 20.9669C25.8286 22.3501 25.6785 25.6143 25.669 26.1178ZM25.8191 26.3211C25.6158 26.6783 25.5968 26.7011 25.6918 26.8645C25.8818 27.1932 25.8932 27.8012 25.8818 28.1793C25.8495 28.8766 25.3346 30.598 25.2833 30.7671C25.2041 30.8371 25.1062 30.8825 25.0016 30.8977C24.8969 30.9128 24.7902 30.8972 24.6943 30.8526C24.6544 30.8374 24.6677 30.8811 24.6449 30.579C24.5708 29.5758 24.377 26.9804 24.2649 25.8594C24.7572 26.0895 25.281 26.2451 25.8191 26.3211ZM28.4468 23.15C28.5342 23.8986 28.8173 25.8366 28.8667 26.1672L28.4715 26.266C28.4088 26.076 28.2074 25.3654 28.1295 25.2001C28.1211 25.1847 28.1082 25.1721 28.0925 25.1642C28.0768 25.1562 28.0591 25.1531 28.0416 25.1554C28.0242 25.1576 28.0078 25.1651 27.9947 25.1768C27.9816 25.1885 27.9723 25.2039 27.968 25.221C27.911 25.5288 27.8559 25.8385 27.8008 26.1463C27.6393 26.1615 27.493 26.1729 27.3581 26.1824C27.3581 25.221 27.3923 24.2387 27.4493 23.264C27.7666 23.2393 28.2815 23.1804 28.4468 23.15ZM27.7267 20.4425C27.7256 20.4302 27.7294 20.418 27.7372 20.4084C27.745 20.3988 27.7562 20.3926 27.7685 20.3912C29.0985 20.2316 29.0453 20.2183 29.0643 20.2715C29.1065 20.4118 29.1207 20.559 29.1061 20.7047C29.1061 20.756 29.1612 20.7256 27.8217 20.8947C27.7552 20.9118 27.7666 20.8472 27.7267 20.4425ZM29.0415 26.1235C28.8059 24.8828 28.747 24.4021 28.5912 23.1253C28.804 23.1067 29.0153 23.0743 29.2239 23.0284C29.4507 24.0053 29.5661 25.0047 29.5678 26.0076C29.3854 26.0437 29.203 26.0855 29.0415 26.1235ZM29.7065 20.4976C29.6875 23.0911 29.754 23.2773 29.5355 23.7143C29.4918 23.4597 29.4424 23.2032 29.3854 22.9543C29.4453 22.9119 29.499 22.8614 29.545 22.8042C29.6001 22.7377 29.3968 20.3342 29.0681 18.5957C29.2277 18.5349 29.545 18.4057 29.716 18.3183C29.7179 19.0422 29.7122 19.7813 29.7065 20.4976ZM30.0732 17.6172C30.0308 17.7996 29.9226 17.96 29.7692 18.0675C28.9579 18.5919 27.0256 18.8503 27.0066 18.8522C26.9976 18.854 26.9891 18.858 26.9822 18.864C26.9752 18.87 26.9698 18.8777 26.9667 18.8864C26.8353 19.0707 26.6815 19.2379 26.5088 19.3842C26.4079 19.501 26.2762 19.5873 26.1288 19.6331C26.0129 19.6502 25.7317 19.5096 26.0433 19.4811C26.1261 19.4838 26.2076 19.46 26.2759 19.4131C26.3443 19.3663 26.3959 19.299 26.4233 19.2208C26.4277 19.2086 26.4276 19.1952 26.4231 19.1831C26.4186 19.1709 26.4099 19.1607 26.3986 19.1543C26.2884 19.103 26.3796 19.3633 25.8533 19.3443C25.726 19.3443 25.5626 19.1809 25.7716 19.1961C26.1098 19.2227 26.3416 18.9909 26.258 18.9282C26.2492 18.9209 26.2381 18.917 26.2267 18.917C26.2152 18.917 26.2042 18.9209 26.1953 18.9282C26.049 19.084 25.8305 19.046 25.6101 19.0194C25.5018 19.0061 25.4201 18.8902 25.5626 18.8674C25.7526 18.837 26.2181 18.8389 26.2713 18.7857C26.8413 18.153 27.6621 17.7331 28.3309 17.3968C28.9483 17.0933 29.5399 16.74 30.0998 16.3404C30.168 16.7641 30.159 17.1967 30.0732 17.6172ZM30.0295 15.4626C30.1345 15.6203 30.1913 15.8052 30.1929 15.9946C29.6926 16.3686 29.1704 16.7125 28.6292 17.0244C28.614 16.9161 28.5874 16.7166 28.5836 16.6444C29.3037 16.2359 29.8129 15.816 30.0295 15.4626ZM7.18962 2.2937C13.4349 2.4381 28.3309 2.934 28.3309 2.934C28.6026 2.934 28.7394 2.9473 28.8059 2.9435H28.823C29.3531 3.0176 29.6552 3.5135 29.754 3.9125C29.8028 4.15249 29.8232 4.39736 29.8148 4.6421C26.5221 4.587 15.333 4.3324 6.27002 3.9429C6.27002 3.1031 6.34982 2.4058 7.18962 2.2937ZM6.27002 24.7004C5.78742 24.7004 4.26932 24.7004 3.78672 24.7232C3.78672 24.1304 3.75252 20.034 3.74682 19.4393C4.10592 19.4526 5.75512 19.4108 6.13322 19.4013C6.13702 24.1855 6.08002 24.1931 6.27002 24.7004ZM6.12942 17.6704C5.60312 17.6704 4.00332 17.6704 3.64042 17.6875C3.65182 17.4709 3.65942 16.9275 3.66512 16.6672C4.01852 16.6672 5.58792 16.6235 6.13512 16.5931C6.12752 16.9446 6.12752 17.3056 6.12752 17.6571L6.12942 17.6704ZM6.12942 16.4221C5.86722 16.4221 3.69932 16.4886 3.58912 16.4981C3.47892 16.5076 3.49982 16.6102 3.49412 16.8002C3.47322 17.4291 3.46752 17.6837 3.47892 17.7882C3.48842 17.8585 3.50362 17.8604 3.53022 17.8623C3.77722 17.8794 5.88052 17.8452 6.13132 17.8414V19.2303C3.51502 19.2607 3.58722 19.2569 3.58722 19.3614C3.58722 19.4108 3.58722 24.4173 3.60812 24.8524C3.60812 24.9417 3.83232 24.9189 6.35742 24.898C6.65952 25.468 7.14402 25.5136 7.78812 25.5592C8.43222 25.6048 22.6233 25.1906 23.2788 25.1678C23.5114 25.4263 23.7913 25.6378 24.1034 25.791C24.1965 26.8607 24.3314 28.831 24.415 30.0888C23.2199 30.1686 3.32502 31.6411 2.61822 31.6924C2.61822 31.2193 2.53272 15.5538 2.53272 15.5538C2.84432 15.5538 5.76272 15.5063 6.12562 15.4949V16.4088L6.12942 16.4221ZM1.71002 32.8951C1.49152 32.669 1.58462 33.3568 1.58462 15.2251C1.58462 14.6551 1.96462 14.5069 2.40732 14.4822C2.97732 14.4499 4.02232 14.5069 6.12562 14.4461V15.3068C5.68862 15.3068 2.44342 15.36 2.44342 15.36C2.43087 15.3604 2.41854 15.3633 2.40712 15.3686C2.39571 15.3738 2.38544 15.3812 2.37692 15.3904C2.33892 15.4322 2.43772 31.7988 2.44532 31.8178C2.44902 31.8263 2.45514 31.8335 2.4629 31.8386C2.47067 31.8437 2.47975 31.8463 2.48902 31.8463C2.48902 31.8463 22.5017 30.3985 24.4264 30.2408C24.4264 30.3624 24.4796 31.0483 24.4872 31.1414C21.9184 31.3504 1.90002 32.8704 1.71002 32.8951ZM12.1296 35.082L2.16792 33.0148C5.81212 32.7773 21.5859 31.5689 24.4435 31.3219C24.4106 31.4288 24.368 31.5325 24.3162 31.6316C22.5093 31.7703 6.30802 33.1307 6.30802 33.1307C6.18832 33.1421 6.19782 33.3207 6.30802 33.3207L11.7154 34.3049C11.7306 34.3049 12.1239 34.2726 28.8496 32.7849C28.8496 32.8096 28.861 32.8267 28.88 32.84C29.0472 32.9445 29.3132 32.84 29.3132 32.7621C29.3087 32.6615 29.3203 32.5608 29.3474 32.4638C29.3474 32.4638 29.4025 32.4885 29.5032 32.7868C29.5051 32.7933 29.5085 32.7992 29.5132 32.8042C29.5178 32.8091 29.5235 32.8129 29.5298 32.8153C29.8795 32.9402 30.2393 33.0349 30.6052 33.0984C30.6742 33.0995 30.7424 33.0838 30.804 33.0527C30.8655 33.0216 30.9186 32.976 30.9586 32.9198C30.9819 32.8659 30.9887 32.8063 30.9782 32.7485C30.9677 32.6907 30.9404 32.6372 30.8997 32.5949C30.5579 32.4586 30.2546 32.2407 30.0162 31.9603C32.5793 32.3403 35.3742 32.7203 36.4287 32.8742L12.1296 35.082Z" fill="black"/>
</svg>
