<svg width="43" height="43" viewBox="0 0 43 43" fill="none" xmlns="http://www.w3.org/2000/svg">
<path d="M32.8263 18.1854C32.736 18.1854 32.736 18.3531 32.8263 18.3531C33.0413 18.3531 36.0362 18.3037 36.2878 18.2542C36.3107 18.2508 36.3316 18.2392 36.3467 18.2217C36.3618 18.2041 36.3701 18.1817 36.3701 18.1585C36.3701 18.1354 36.3618 18.113 36.3467 18.0954C36.3316 18.0779 36.3107 18.0663 36.2878 18.0629C35.4987 17.9597 33.6949 18.1682 32.8263 18.1854ZM34.026 22.5757C33.9271 22.5757 33.9443 22.7413 34.0389 22.7456C34.7398 22.7692 35.832 22.7327 36.5479 22.7004C36.6791 22.7004 36.6941 22.4854 36.5479 22.4854C35.746 22.4897 34.8301 22.5005 34.026 22.5757ZM34.1184 15.1604C34.0976 15.1613 34.0778 15.1697 34.0627 15.1841C34.0476 15.1985 34.0383 15.2179 34.0365 15.2387C34.0346 15.2595 34.0404 15.2802 34.0527 15.297C34.065 15.3139 34.083 15.3257 34.1034 15.3302C34.4882 15.3775 35.7374 15.427 36.1136 15.2679C36.1329 15.2583 36.1485 15.2428 36.1581 15.2235C36.1677 15.2043 36.1708 15.1825 36.167 15.1614C36.1631 15.1402 36.1524 15.1209 36.1366 15.1064C36.1207 15.0919 36.1006 15.0829 36.0792 15.0808C35.5804 15.0507 34.7806 15.2098 34.1184 15.1604ZM31.6631 19.3142C33.4777 19.2884 35.5331 19.1615 37.3649 18.9938C37.4789 18.9938 37.4681 18.7788 37.3499 18.7788C35.5482 18.824 33.4433 18.9422 31.6524 19.1271C31.6276 19.1285 31.6043 19.1398 31.5878 19.1583C31.5713 19.1768 31.5628 19.2012 31.5642 19.226C31.5656 19.2508 31.5769 19.274 31.5954 19.2906C31.614 19.3071 31.6383 19.3156 31.6631 19.3142ZM34.2646 9.73806C34.7699 9.69936 35.2751 9.66926 35.7696 9.60906C35.9115 9.59401 35.875 9.39406 35.7352 9.39406C35.2321 9.43276 34.729 9.49726 34.2302 9.55531C34.1141 9.56821 34.1464 9.74666 34.2646 9.73806ZM31.3148 14.223C31.2073 14.223 31.203 14.4057 31.3148 14.4143C32.5303 14.4709 33.7482 14.3858 34.944 14.1606C35.0795 14.137 35.058 13.922 34.9204 13.9456C33.7296 14.1487 32.5226 14.2415 31.3148 14.223ZM35.316 10.7679C35.503 10.8131 35.531 10.5078 35.359 10.5379C34.5198 10.6739 33.6693 10.7265 32.8198 10.6948C32.7059 10.6948 32.6801 10.8604 32.7962 10.8733C33.6368 10.9577 34.4853 10.9222 35.316 10.7679ZM30.6591 19.2131C30.4914 19.1486 29.7174 19.2561 29.5002 19.2798C29.3949 19.2798 29.3906 19.4496 29.5002 19.4475L30.3796 19.4195C30.7859 19.4045 30.7838 19.2626 30.6591 19.2131ZM31.547 28.5162C31.3664 28.4732 30.0829 28.5699 29.8722 28.5828C29.7604 28.5828 29.7819 28.7548 29.8937 28.7527C30.1216 28.7527 31.3707 28.7527 31.5685 28.6903C31.6567 28.6602 31.6266 28.5334 31.547 28.5162ZM29.87 27.6067C30.4742 27.6347 31.9706 27.6605 32.5747 27.5164C32.5888 27.5163 32.6028 27.5132 32.6156 27.5074C32.6285 27.5016 32.64 27.4931 32.6494 27.4826C32.6588 27.4721 32.6658 27.4597 32.6702 27.4462C32.6745 27.4328 32.6759 27.4186 32.6744 27.4046C32.6729 27.3905 32.6685 27.377 32.6614 27.3647C32.6543 27.3525 32.6448 27.3419 32.6333 27.3336C32.6219 27.3253 32.6089 27.3195 32.5951 27.3165C32.5813 27.3136 32.567 27.3136 32.5532 27.3165C31.6696 27.3165 30.8504 27.4648 29.8958 27.4261C29.7819 27.4218 29.7518 27.6003 29.87 27.6067ZM31.9555 23.784C32.0845 23.7604 32.0738 23.569 31.9383 23.569C30.9837 23.6658 30.7838 23.6894 29.8055 23.7281C29.7109 23.7281 29.7002 23.8915 29.8055 23.898C30.5242 23.9457 31.2459 23.9074 31.9555 23.784ZM33.2799 22.4317C32.1103 22.4747 30.8956 22.6725 29.6744 22.7155C29.6525 22.7188 29.6326 22.7299 29.6183 22.7466C29.6039 22.7634 29.596 22.7847 29.596 22.8068C29.596 22.8289 29.6039 22.8503 29.6183 22.867C29.6326 22.8838 29.6525 22.8948 29.6744 22.8982C30.687 22.8982 32.3167 22.8509 33.3036 22.6316C33.3242 22.6225 33.3413 22.607 33.3524 22.5875C33.3636 22.5679 33.3682 22.5453 33.3655 22.5229C33.3629 22.5005 33.3531 22.4796 33.3377 22.4632C33.3223 22.4468 33.3021 22.4357 33.2799 22.4317ZM37.2639 27.9894C37.2467 27.9894 36.0663 28.0862 35.8642 28.0797C35.8451 28.0831 35.8275 28.0927 35.8142 28.1069C35.801 28.1211 35.7926 28.1392 35.7904 28.1585C35.7882 28.1778 35.7924 28.1973 35.8022 28.2141C35.812 28.2309 35.827 28.2441 35.8449 28.2517C36.0857 28.2969 37.1005 28.3141 37.309 28.1378C37.3195 28.1262 37.3268 28.1121 37.3303 28.0968C37.3337 28.0816 37.3331 28.0657 37.3285 28.0508C37.324 28.0358 37.3156 28.0223 37.3043 28.0115C37.293 28.0008 37.279 27.9932 37.2639 27.9894ZM37.6444 23.3003C36.1545 23.397 34.4904 23.4529 33.0069 23.5798C32.8908 23.5798 32.9123 23.7539 33.0241 23.7604C33.826 23.784 36.6791 23.6378 37.6638 23.5131C37.6778 23.512 37.6915 23.5082 37.704 23.5017C37.7166 23.4952 37.7277 23.4863 37.7367 23.4755C37.7457 23.4647 37.7525 23.4522 37.7565 23.4387C37.7606 23.4252 37.762 23.411 37.7605 23.397C37.7578 23.3688 37.7441 23.3429 37.7223 23.3248C37.7006 23.3067 37.6726 23.2979 37.6444 23.3003ZM32.048 18.4112C32.0765 18.4112 32.1038 18.3998 32.124 18.3797C32.1441 18.3595 32.1555 18.3322 32.1555 18.3037C32.1555 18.2751 32.1441 18.2478 32.124 18.2276C32.1038 18.2075 32.0765 18.1962 32.048 18.1962C31.1213 18.2198 30.1861 18.2263 29.253 18.2972C29.2329 18.3017 29.215 18.3128 29.2021 18.3289C29.1893 18.3449 29.1823 18.3648 29.1823 18.3854C29.1823 18.4059 29.1893 18.4258 29.2021 18.4419C29.215 18.4579 29.2329 18.469 29.253 18.4735C30.1904 18.4907 31.1213 18.4413 32.048 18.4112ZM35.7137 27.0907C35.3869 27.0907 34.2087 27.1746 33.9292 27.224C33.8389 27.2391 33.826 27.3874 33.9292 27.3917C34.2324 27.4068 35.4041 27.3315 35.7438 27.3014C35.875 27.3057 35.847 27.0907 35.7137 27.0907ZM35.0859 28.2969L32.3834 28.4689C32.2608 28.4689 32.2909 28.6559 32.4113 28.6495C32.9359 28.6258 34.6237 28.5592 35.0967 28.4947C35.202 28.4818 35.2042 28.2969 35.0859 28.2969ZM33.1509 9.60906C32.3576 9.51876 29.8679 9.66926 29.0229 9.75526C28.9068 9.76601 28.8982 9.94661 29.0229 9.93586C30.4118 9.84556 31.7642 9.81546 33.1531 9.81976C33.1773 9.81458 33.199 9.80118 33.2145 9.78181C33.23 9.76245 33.2384 9.73833 33.2381 9.71353C33.2379 9.68873 33.229 9.66478 33.2132 9.64574C33.1973 9.6267 33.1753 9.61374 33.1509 9.60906ZM33.381 15.4119C33.5164 15.3926 33.467 15.1969 33.3315 15.1969C31.9477 15.3546 30.5554 15.4264 29.1627 15.4119C29.1425 15.4151 29.1241 15.4255 29.1108 15.441C29.0975 15.4566 29.0902 15.4764 29.0902 15.4968C29.0902 15.5173 29.0975 15.5371 29.1108 15.5526C29.1241 15.5682 29.1425 15.5785 29.1627 15.5818C30.571 15.6496 31.9826 15.5927 33.381 15.4119ZM31.9211 10.9098C31.9353 10.9085 31.949 10.9043 31.9615 10.8976C31.9741 10.891 31.9852 10.8819 31.9941 10.8709C32.0031 10.8599 32.0099 10.8472 32.0139 10.8336C32.018 10.82 32.0193 10.8057 32.0179 10.7916C32.0165 10.7774 32.0124 10.7637 32.0057 10.7511C31.999 10.7386 31.9899 10.7275 31.9789 10.7185C31.9679 10.7095 31.9553 10.7028 31.9416 10.6987C31.928 10.6947 31.9137 10.6933 31.8996 10.6948C30.9515 10.8131 30.0528 10.8174 29.1175 10.8991C29.0186 10.9098 29.0079 11.0711 29.1175 11.0754C30.0549 11.0905 30.992 11.0352 31.9211 10.9098ZM29.2573 14.3133C29.1498 14.3133 29.1476 14.4831 29.2702 14.4874C29.656 14.5237 30.0439 14.5338 30.4312 14.5175C30.4486 14.5097 30.4634 14.497 30.4738 14.481C30.4842 14.465 30.4897 14.4463 30.4897 14.4272C30.4897 14.4081 30.4842 14.3894 30.4738 14.3734C30.4634 14.3574 30.4486 14.3447 30.4312 14.3369C30.3925 14.3154 29.4551 14.3133 29.2573 14.3133ZM26.5741 15.5517C26.6988 15.5517 27.161 14.7863 27.4212 14.524C27.5158 14.4294 27.361 14.2703 27.2642 14.3606C26.9899 14.6078 26.7525 14.8931 26.559 15.2077L26.0151 14.7067C25.9033 14.6035 25.7592 14.7798 25.8624 14.8852C25.9656 14.9905 26.415 15.5517 26.5741 15.5517ZM25.1035 12.0407C25.985 12.0923 26.9009 12.0751 27.8684 12.0816C27.9372 12.0816 27.978 11.8902 27.8684 9.60691C27.8684 9.44136 27.8533 9.31881 27.8512 9.27366C27.8517 9.267 27.8509 9.2603 27.8486 9.254C27.8464 9.2477 27.8429 9.24194 27.8383 9.23711C27.7759 9.17046 27.3696 9.17476 26.4558 9.19841C24.9186 9.23496 24.7487 9.22421 24.7487 9.31236C24.7423 9.32956 24.839 12.0149 25.1035 12.0407ZM25.1637 11.8816C25.0562 11.3076 24.9788 10.095 24.9121 9.41556C25.5378 9.45211 26.9632 9.38116 27.6813 9.36396C27.6813 9.36396 27.72 11.2753 27.7372 11.8924C26.8944 11.873 26.0151 11.8408 25.1551 11.8709L25.1637 11.8816Z" fill="black"/>
<path d="M28.1651 16.1125C28.3457 16.0415 28.135 14.0377 28.1049 13.511C28.1034 13.5001 28.098 13.4902 28.0898 13.483C27.9608 13.3712 25.2325 13.5196 25.0949 13.5303C24.9573 13.5411 25.0949 14.2893 25.1185 14.7988C25.168 16.0673 25.226 16.177 25.2905 16.1856C25.7592 16.2522 27.7351 16.2802 28.1651 16.1125ZM25.226 13.7066C26.157 13.6464 27.1008 13.6421 27.9393 13.6378C27.9608 14.1409 27.9952 15.5578 28.0382 15.9405C27.162 16.0311 26.2802 16.0562 25.4002 16.0157C25.4367 15.6954 25.2583 14.07 25.226 13.7066ZM26.9761 19.1354L27.4749 18.6839C27.4895 18.6593 27.4958 18.6307 27.4932 18.6023C27.4905 18.5739 27.479 18.547 27.4601 18.5255C27.4413 18.5041 27.4161 18.4891 27.3883 18.4828C27.3605 18.4765 27.3313 18.4791 27.3051 18.4904C27.1008 18.6161 26.9155 18.7703 26.7547 18.9483L26.3075 18.5355C26.2832 18.513 26.251 18.501 26.218 18.5022C26.1849 18.5034 26.1537 18.5177 26.1312 18.542C26.1086 18.5662 26.0967 18.5984 26.0979 18.6314C26.0991 18.6645 26.1134 18.6957 26.1376 18.7183L26.5676 19.1483C26.1806 19.5568 26.0108 19.8126 26.0495 19.9287C26.0882 20.0448 26.2279 19.9932 26.2645 19.9416C26.415 19.7567 26.5848 19.546 26.7676 19.3504C26.9487 19.5482 27.1497 19.7268 27.3674 19.8836C27.3899 19.8894 27.4135 19.889 27.4358 19.8826C27.458 19.8761 27.4782 19.8637 27.494 19.8468C27.5099 19.8298 27.5208 19.8089 27.5258 19.7863C27.5308 19.7636 27.5295 19.74 27.5222 19.718C27.3604 19.5058 27.1774 19.3106 26.9761 19.1354ZM27.0901 9.9183C26.7466 10.2186 26.466 10.584 26.2645 10.9933C26.1025 10.7994 25.916 10.6274 25.7098 10.4816C25.5829 10.3935 25.4195 10.5612 25.5442 10.6558C25.7895 10.8725 26.0187 11.1068 26.2301 11.3567C26.286 11.4147 26.3397 11.3846 26.387 11.3223C26.6211 10.8661 26.9099 10.4401 27.247 10.0538C27.3502 9.9398 27.2019 9.81295 27.0901 9.9183ZM27.0213 23.9557C27.1331 23.8783 27.5588 23.057 27.806 22.7775C27.9028 22.67 27.7351 22.5216 27.6254 22.6356C27.3311 22.9388 27.0787 23.2801 26.8751 23.6504L26.3741 23.2204C26.2645 23.1279 26.1183 23.2935 26.2322 23.4031C26.3462 23.5128 26.8364 24.1148 27.0213 23.9557ZM28.6617 26.712C28.58 26.5507 25.6388 26.712 25.6109 26.712C25.6044 26.7127 25.5983 26.7151 25.5931 26.7189C25.5878 26.7226 25.5836 26.7276 25.5808 26.7334C25.4819 26.8926 25.5808 29.479 25.6517 29.7198C25.7356 30.0122 28.5865 29.7693 28.7284 29.7822C28.7326 29.7831 28.7371 29.7831 28.7414 29.7821C28.7456 29.7812 28.7496 29.7793 28.7531 29.7767C28.7566 29.774 28.7595 29.7706 28.7615 29.7667C28.7635 29.7629 28.7647 29.7586 28.7649 29.7542C28.8101 29.4253 28.6725 26.7335 28.6617 26.712ZM25.7485 26.8689C26.6085 26.9055 27.6254 26.8517 28.4983 26.8496C28.5112 27.2086 28.5886 29.3156 28.5994 29.5994C27.6448 29.6424 26.8428 29.6274 25.8259 29.5994C25.8366 29.2404 25.7614 27.1957 25.7485 26.8754V26.8689Z" fill="black"/>
<path d="M26.7869 28.2624C26.9395 28.2624 27.72 28.3162 27.7823 28.2818C27.7988 28.2724 27.8128 28.2594 27.8234 28.2437C27.834 28.2281 27.8408 28.2102 27.8433 28.1914C27.8458 28.1727 27.8439 28.1536 27.8378 28.1357C27.8317 28.1178 27.8216 28.1016 27.8081 28.0883C27.6942 27.9679 26.9739 27.9937 26.8535 28.0173C26.6901 28.0474 26.66 28.1098 26.6643 28.1571C26.6701 28.1858 26.6852 28.2118 26.7075 28.2309C26.7297 28.25 26.7576 28.2611 26.7869 28.2624ZM27.0771 21.9522C26.3719 21.9651 25.6302 21.9909 25.5076 21.9995C25.4603 21.9995 25.4109 22.0403 25.4044 22.4875C25.4044 23.0229 25.4969 24.7192 25.7119 24.7343C26.1419 24.7665 28.365 24.7751 28.6509 24.7536C28.6961 24.7536 28.7326 24.7536 28.6509 23.6356C28.6058 23.0594 28.5047 22.0124 28.5047 22.0124C28.4961 21.9694 28.4918 21.9307 27.0771 21.9522ZM28.3435 22.1414C28.3951 22.9433 28.423 23.7646 28.509 24.5709H25.7742C25.6904 23.7947 25.6345 22.9949 25.5743 22.1736L28.3435 22.1414ZM26.015 20.7417C26.8879 20.7417 28.3478 20.6235 28.3607 20.617C28.4983 20.5461 28.3607 18.6046 28.3155 17.7747C28.3155 17.6264 27.5566 17.6242 26.9266 17.6479C26.6514 17.6479 25.284 17.721 25.2883 17.9166C25.3614 20.7955 25.3442 20.6557 25.398 20.6858C25.5992 20.7383 25.8077 20.7572 26.015 20.7417ZM25.5614 20.5267C25.5119 19.6796 25.4947 18.7809 25.4603 17.9467C26.3531 17.8674 27.2496 17.8373 28.1457 17.8564C28.1457 18.151 28.2037 20.1096 28.2403 20.4364C27.9221 20.4579 25.8946 20.473 25.5678 20.5289L25.5614 20.5267Z" fill="black"/>
<path d="M41.7101 23.9234C41.1468 8.60037 41.3833 8.72938 41.2801 8.63908C41.1339 8.50148 40.0052 8.59177 39.7278 8.60682L39.6117 6.25688C39.6172 6.2427 39.6193 6.2274 39.6176 6.21228C39.616 6.19715 39.6107 6.18264 39.6023 6.16998C39.5939 6.15732 39.5825 6.14688 39.5692 6.13955C39.5558 6.13222 39.5409 6.12822 39.5257 6.12788C35.0107 6.07198 30.3646 6.37083 25.7055 6.68688C24.4499 6.77503 23.1449 6.85243 21.8678 6.98788C21.8558 6.98596 21.8436 6.98671 21.832 6.99009C21.8204 6.99347 21.8097 6.99938 21.8006 7.0074C21.7915 7.01542 21.7844 7.02535 21.7796 7.03648C21.7749 7.0476 21.7727 7.05964 21.7732 7.07173C22.0097 12.8122 22.6977 22.0916 23.8866 32.3665C23.8995 32.4847 24.8799 32.3815 25.7614 32.3235C25.7729 32.5764 25.8185 32.8266 25.8969 33.0674C26.0259 33.2308 41.9746 32.2418 41.9552 31.5624C41.8864 29.0103 41.794 26.426 41.7101 23.9234ZM40.5018 30.6271C34.8473 31.4871 29.7626 31.7279 24.0844 32.2181C22.96 22.4765 22.4977 15.7943 21.9344 7.13838C23.6802 7.03518 30.1367 6.44178 39.4634 6.31923C39.6956 12.5693 40.5599 29.9391 40.4954 30.6271H40.5018ZM13.5129 15.8459C13.3667 15.8459 13.3688 16.1297 13.4376 16.2372C13.4455 16.2529 13.4579 16.266 13.4732 16.2748C13.4885 16.2836 13.506 16.2877 13.5236 16.2866C13.6548 16.2716 13.6483 15.8609 13.5129 15.8459ZM12.7453 17.0886C12.8378 17.1122 13.0872 17.1273 13.1452 17.0413C13.2269 16.9209 13.0055 15.8287 12.9775 15.7513C12.9718 15.7355 12.9606 15.7222 12.946 15.7139C12.9314 15.7056 12.9143 15.7027 12.8978 15.7058C12.8812 15.7089 12.8664 15.7178 12.8558 15.7308C12.8452 15.7439 12.8395 15.7603 12.8399 15.7771C12.8399 15.9727 12.9281 16.6371 12.9625 16.9144L12.7475 16.9273C12.7317 16.934 12.7183 16.9451 12.7088 16.9593C12.6993 16.9735 12.6941 16.9902 12.6939 17.0073C12.6936 17.0243 12.6984 17.0411 12.7075 17.0556C12.7166 17.07 12.7298 17.0815 12.7453 17.0886ZM13.3301 15.4438C13.3937 15.4264 13.4607 15.4247 13.5251 15.439C13.5895 15.4532 13.6495 15.4829 13.6999 15.5255C13.7838 15.6008 13.945 15.4567 13.715 15.3105C13.5494 15.1987 13.1624 15.16 13.2033 15.3578C13.2099 15.3854 13.2266 15.4094 13.2501 15.4253C13.2735 15.4412 13.3021 15.4478 13.3301 15.4438Z" fill="black"/>
<path d="M19.6339 23.2594C18.2514 21.8963 15.7639 20.2945 13.5279 19.9763C13.5649 19.8485 13.5649 19.7128 13.5279 19.585C13.6981 19.4428 13.8563 19.2867 14.0009 19.1185C14.3083 18.7573 14.3019 18.4047 13.8633 18.5831C14.2933 17.6328 14.2933 15.5731 14.1385 14.4164C14.8587 14.8658 16.0735 14.4336 15.9251 13.5564C16.9034 13.851 17.5398 11.9074 16.2971 11.5569C16.4712 10.0863 14.5878 9.87348 14.0116 10.7313C13.687 9.78318 12.1949 10.282 12.3024 11.0259C11.6294 10.3035 10.176 10.555 9.9739 11.4559C9.36545 10.9033 8.3614 11.1377 8.44955 11.9525C7.48635 11.5053 6.9768 12.6577 7.725 13.0275C7.24555 13.2855 7.2606 14.3476 7.9959 14.3476C7.9959 15.0571 8.4259 16.6825 9.49015 17.5726C9.6041 18.5681 9.39985 19.0776 9.0451 20C5.5363 20.5332 2.87245 23.2701 1.67705 26.665C0.313953 30.535 0.961102 34.19 5.00095 34.9597C4.99255 35.4761 4.93204 35.9905 4.82035 36.4948C4.81834 36.5138 4.82325 36.5329 4.83419 36.5486C4.84513 36.5643 4.86136 36.5756 4.87991 36.5803C4.89846 36.585 4.91808 36.5828 4.93518 36.5742C4.95228 36.5656 4.96571 36.5512 4.973 36.5335C5.11692 36.0326 5.19498 35.5151 5.2052 34.9941C6.17846 35.1387 7.17272 34.987 8.05854 34.5587C8.94436 34.1303 9.68071 33.4452 10.1717 32.5925C10.7941 32.829 11.4293 33.0299 12.0745 33.1945C14.1041 33.7686 16.7507 34.3383 19.2576 33.6589C19.2082 34.8608 19.1394 35.824 19.0319 36.7807C19.0319 36.8753 19.163 36.9033 19.1781 36.8087C19.2619 36.3056 19.4705 34.0975 19.4576 33.6009C21.0529 33.1107 22.1193 32.0034 22.3816 30.5651C22.8395 28.127 21.8075 25.39 19.6339 23.2594ZM10.5028 13.9993C10.5587 14.6271 10.5028 15.0743 10.3115 15.3646C10.2405 15.4699 10.133 15.5796 10.0406 15.5796C9.9696 15.5022 9.5052 15.0206 9.0666 15.3022C8.78065 15.4893 8.76775 15.8526 9.03865 16.3256C9.23227 16.6129 9.37079 16.9337 9.44715 17.2716C8.6237 16.3772 8.37215 15.5387 8.18295 14.3369C8.40151 14.2975 8.60099 14.1871 8.75055 14.023C9.1268 14.582 10.047 14.4702 10.5028 13.9993ZM9.1698 15.4441C9.46005 15.2657 9.7288 15.4807 9.9739 15.6957C10.118 15.8225 10.3545 15.6441 10.4663 15.4807C10.7587 15.0765 10.7329 14.4057 10.6942 14.0703C10.9028 14.269 11.18 14.3799 11.4682 14.3799C11.7563 14.3799 12.0335 14.269 12.2422 14.0703C12.2852 14.6895 13.5838 14.8314 13.9256 14.3175C14.0826 15.3925 14.1578 17.7167 13.6375 18.6906C13.2075 18.8798 12.2293 19.312 11.7434 19.1206C11.3263 18.9551 11.1156 18.3187 10.6297 18.0456C10.3029 17.865 10.0234 18.0693 10.2513 18.4348C10.8275 19.3507 10.7759 19.699 10.3201 20.6407C9.92057 20.5318 9.54699 20.3439 9.2214 20.0881C9.6944 19.4109 9.8234 18.2026 9.70515 17.3985C9.5998 16.6825 9.49015 16.7255 9.20635 16.1966C9.0752 15.9795 8.9591 15.5774 9.1698 15.4441ZM12.7969 19.7807C12.7797 19.7886 12.7661 19.8026 12.7585 19.8199C12.7509 19.8372 12.75 19.8567 12.7558 19.8747C12.7616 19.8927 12.7738 19.9079 12.7901 19.9175C12.8064 19.9272 12.8256 19.9305 12.8442 19.9269C13.0285 19.8939 13.2033 19.8205 13.3559 19.7119C13.3682 19.9124 13.3154 20.1115 13.2054 20.2795C13.1667 20.3332 13.2355 20.4945 13.3752 20.2945C13.3645 20.8879 13.0613 21.6211 12.4787 21.9092C12.0838 21.8378 11.7079 21.6853 11.3749 21.4615C11.0419 21.2376 10.7588 20.9471 10.5437 20.6084C11.1887 19.5033 10.6211 18.6734 10.4319 18.3294C10.3265 18.1316 10.3803 18.1015 10.5523 18.2133C10.9586 18.4713 11.3155 19.1916 11.709 19.2883C12.4507 19.4668 13.3645 19.0196 13.8117 18.8196C14.0439 18.7143 14.1793 18.6433 13.8998 18.9938C13.5257 19.456 13.3129 19.5528 12.7969 19.7807ZM3.69805 28.9569C3.69027 28.9744 3.68906 28.9941 3.69463 29.0124C3.7002 29.0307 3.71218 29.0464 3.72838 29.0565C3.74457 29.0667 3.7639 29.0707 3.78282 29.0678C3.80173 29.0649 3.81896 29.0553 3.83135 29.0407C5.7169 26.0694 8.83655 24.0076 10.4426 20.8277C10.692 21.3824 11.7584 22.0962 12.4163 22.0962C12.4163 22.6316 12.3626 23.268 12.3067 23.8786C11.6617 23.7302 9.918 23.1841 9.6041 22.4703C9.56755 22.3822 9.42565 22.4424 9.46005 22.5305C9.7546 23.3282 11.5735 23.9689 12.2873 24.1043C12.1365 25.7108 11.8378 27.2999 11.3951 28.8515C11.0704 30.0125 10.6533 31.4165 10.0513 32.4549C9.57137 33.3087 8.83702 33.9915 7.95062 34.4081C7.06421 34.8247 6.06991 34.9544 5.1063 34.7791C1.1374 34.0825 0.539702 30.5027 1.88775 26.7209C3.14765 23.1777 5.9061 20.6837 9.0881 20.2107C9.434 20.4657 9.81209 20.6739 10.2126 20.8299C8.60005 23.9409 5.52555 25.9834 3.69805 28.9569ZM11.58 28.9418C13.6691 28.0614 15.8889 27.5304 18.1504 27.3702C18.7954 27.3272 19.4404 27.3293 20.0854 27.3293C20.18 27.3293 20.1821 27.1745 20.0854 27.1745C19.6467 27.1441 19.2068 27.1362 18.7674 27.1509C18.6621 26.2909 17.1119 23.7818 16.5852 23.0874C16.5717 23.0746 16.5541 23.0671 16.5355 23.0663C16.517 23.0655 16.4988 23.0713 16.4842 23.0828C16.4696 23.0942 16.4596 23.1106 16.456 23.1288C16.4525 23.147 16.4556 23.1659 16.4648 23.182C17.5204 24.6612 18.374 26.5446 18.5438 27.1595C16.654 27.2304 13.7386 27.6776 11.6402 28.7053C11.838 27.9808 12.6034 24.9923 12.6206 22.0403C13.2118 21.7759 13.6332 20.8191 13.5838 20.1763C15.813 20.684 17.8575 21.8004 19.4898 23.4013C21.4055 25.2782 22.5794 27.7013 22.2182 30.335C22.0268 31.84 20.9583 33.0053 19.363 33.4289C16.6131 34.1814 13.7837 33.5278 11.0683 32.685C10.8054 32.5965 10.5376 32.5233 10.2663 32.4657C10.8158 31.3357 11.2557 30.1557 11.58 28.9418Z" fill="black"/>
<path d="M11.4746 15.1002C11.5302 15.0181 11.6043 14.9502 11.6909 14.902C11.7776 14.8538 11.8743 14.8267 11.9734 14.8228C12.1304 14.8228 12.1218 14.5863 11.9734 14.6078C11.8457 14.6213 11.7228 14.6637 11.614 14.7319C11.5052 14.8001 11.4134 14.8922 11.3456 15.0013C11.2897 15.0894 11.4144 15.1862 11.4746 15.1002ZM11.982 15.6957C11.8939 15.7667 11.9003 16.1257 12.0336 16.1257C12.0641 16.1225 12.0926 16.1091 12.1145 16.0876C12.1363 16.0662 12.1503 16.0379 12.154 16.0075C12.2035 15.8204 12.0766 15.6291 11.982 15.6957ZM11.7928 17.4716C11.7888 17.4548 11.7797 17.4397 11.7667 17.4282C11.7538 17.4168 11.7376 17.4096 11.7204 17.4078C11.7032 17.4059 11.6859 17.4094 11.6707 17.4177C11.6556 17.4261 11.6434 17.4389 11.6359 17.4544C11.6144 17.4845 11.5735 17.577 11.6638 17.764C11.7251 17.8914 11.8309 17.9918 11.9612 18.0465C12.0915 18.1012 12.2374 18.1062 12.3712 18.0607C12.3893 18.0535 12.4041 18.0399 12.4129 18.0225C12.4216 18.0051 12.4237 17.9851 12.4186 17.9662C12.4136 17.9474 12.4018 17.9311 12.3855 17.9203C12.3693 17.9096 12.3496 17.9053 12.3303 17.9081C12.025 17.9683 11.8487 17.7748 11.7928 17.4716Z" fill="black"/>
</svg>
